midi_data = [
	[
		{"command": "keyswitch", "ks_type": "direction", "pos":0, "index":0},
		{"command": "keyswitch", "ks_type": "direction", "pos":0, "index":2},
		{"command": "keyswitch", "ks_type": "direction", "pos":0, "index":2},
		{"command": "keyswitch", "ks_type": "direction", "pos":0, "index":2},
		{"command": "keyswitch", "ks_type": "speed", "pos":0, "index":1},
		{"command": "keyswitch", "ks_type": "articulation", "pos":0, "index":1},
		{"command": "note", "pitch":36, "vel":1, "pos":0, "length":480, "chan":0, },
		{"command": "note", "pitch":39, "vel":1, "pos":1, "length":2159, "chan":0, },
		{"command": "note", "pitch":48, "vel":1, "pos":3840, "length":480, "chan":0, },
		{"command": "note", "pitch":51, "vel":1, "pos":3841, "length":2159, "chan":0, },
		{"command": "note", "pitch":60, "vel":31, "pos":7680, "length":480, "chan":0, },
		{"command": "note", "pitch":63, "vel":31, "pos":7681, "length":2159, "chan":0, },
		{"command": "keyswitch", "ks_type": "articulation", "pos":11520, "index":1},
		{"command": "note", "pitch":36, "vel":1, "pos":11520, "length":480, "chan":0, },
		{"command": "note", "pitch":39, "vel":1, "pos":11521, "length":2159, "chan":0, },
		{"command": "note", "pitch":48, "vel":31, "pos":15360, "length":480, "chan":0, },
		{"command": "note", "pitch":51, "vel":31, "pos":15361, "length":2159, "chan":0, },
		{"command": "note", "pitch":60, "vel":31, "pos":19200, "length":480, "chan":0, },
		{"command": "note", "pitch":63, "vel":31, "pos":19201, "length":2159, "chan":0, },
		{"command": "keyswitch", "ks_type": "articulation", "pos":23040, "index":2},
		{"command": "note", "pitch":36, "vel":1, "pos":23040, "length":480, "chan":0, },
		{"command": "note", "pitch":39, "vel":1, "pos":23041, "length":2159, "chan":0, },
		{"command": "note", "pitch":48, "vel":1, "pos":26880, "length":480, "chan":0, },
		{"command": "note", "pitch":51, "vel":1, "pos":26881, "length":2159, "chan":0, },
		{"command": "note", "pitch":60, "vel":91, "pos":30720, "length":480, "chan":0, },
		{"command": "note", "pitch":63, "vel":91, "pos":30721, "length":2159, "chan":0, },
	],
	[
		{"command": "keyswitch", "ks_type": "direction", "pos":0, "index":0},
		{"command": "keyswitch", "ks_type": "direction", "pos":0, "index":0},
		{"command": "keyswitch", "ks_type": "legato", "pos":0, "index":3},
		{"command": "keyswitch", "ks_type": "legato", "pos":0, "index":3},
		{"command": "keyswitch", "ks_type": "speed", "pos":0, "index":1},
		{"command": "keyswitch", "ks_type": "articulation", "pos":0, "index":1},
		{"command": "note", "pitch":46, "vel":1, "pos":0, "length":7680, "chan":0, },
		{"command": "note", "pitch":50, "vel":1, "pos":60, "length":7620, "chan":0, },
		{"command": "note", "pitch":53, "vel":1, "pos":120, "length":7560, "chan":0, },
		{"command": "note", "pitch":46, "vel":127, "pos":7680, "length":7680, "chan":0, },
		{"command": "note", "pitch":51, "vel":127, "pos":7680, "length":7680, "chan":0, },
		{"command": "note", "pitch":53, "vel":127, "pos":7680, "length":7680, "chan":0, },
		{"command": "note", "pitch":46, "vel":1, "pos":15360, "length":7680, "chan":0, },
		{"command": "note", "pitch":50, "vel":1, "pos":15360, "length":7680, "chan":0, },
		{"command": "note", "pitch":53, "vel":1, "pos":15360, "length":7680, "chan":0, },
		{"command": "note", "pitch":46, "vel":127, "pos":23040, "length":7620, "chan":0, },
		{"command": "note", "pitch":48, "vel":127, "pos":23040, "length":7620, "chan":0, },
		{"command": "note", "pitch":53, "vel":127, "pos":23040, "length":7620, "chan":0, },
	],
	[
		{"command": "keyswitch", "ks_type": "articulation", "pos":0, "index":1},
		{"command": "keyswitch", "ks_type": "articulation", "pos":0, "index":1},
		{"command": "keyswitch", "ks_type": "articulation", "pos":0, "index":1},
		{"command": "keyswitch", "ks_type": "legato", "pos":0, "index":3},
		{"command": "keyswitch", "ks_type": "speed", "pos":0, "index":1},
		{"command": "note", "pitch":53, "vel":96, "pos":1, "length":15245, "chan":0, },
		{"command": "note", "pitch":56, "vel":96, "pos":1, "length":3839, "chan":0, },
		{"command": "note", "pitch":60, "vel":96, "pos":1, "length":3839, "chan":0, },
		{"command": "note", "pitch":62, "vel":96, "pos":3840, "length":3836, "chan":0, },
		{"command": "note", "pitch":58, "vel":96, "pos":3840, "length":3836, "chan":0, },
		{"command": "note", "pitch":60, "vel":96, "pos":7676, "length":3839, "chan":0, },
		{"command": "note", "pitch":56, "vel":96, "pos":7692, "length":3823, "chan":0, },
		{"command": "note", "pitch":48, "vel":96, "pos":8243, "length":3039, "chan":0, },
		{"command": "note", "pitch":58, "vel":96, "pos":11516, "length":3726, "chan":0, },
		{"command": "note", "pitch":62, "vel":96, "pos":11516, "length":3726, "chan":0, },
		{"command": "note", "pitch":50, "vel":96, "pos":12133, "length":3109, "chan":0, },
	],
	[
		{"command": "keyswitch", "ks_type": "direction", "pos":0, "index":0},
		{"command": "keyswitch", "ks_type": "direction", "pos":0, "index":2},
		{"command": "keyswitch", "ks_type": "legato", "pos":0, "index":3},
		{"command": "keyswitch", "ks_type": "legato", "pos":0, "index":3},
		{"command": "keyswitch", "ks_type": "speed", "pos":0, "index":1},
		{"command": "keyswitch", "ks_type": "articulation", "pos":0, "index":2},
		{"command": "note", "pitch":53, "vel":1, "pos":0, "length":960, "chan":0, },
		{"command": "note", "pitch":56, "vel":1, "pos":1, "length":959, "chan":0, },
		{"command": "note", "pitch":48, "vel":1, "pos":1440, "length":960, "chan":0, },
		{"command": "note", "pitch":49, "vel":1, "pos":1440, "length":960, "chan":0, },
		{"command": "note", "pitch":53, "vel":91, "pos":3840, "length":960, "chan":0, },
		{"command": "note", "pitch":56, "vel":91, "pos":3840, "length":960, "chan":0, },
		{"command": "note", "pitch":48, "vel":1, "pos":5280, "length":960, "chan":0, },
		{"command": "note", "pitch":49, "vel":1, "pos":5280, "length":960, "chan":0, },
		{"command": "note", "pitch":53, "vel":1, "pos":7680, "length":960, "chan":0, },
		{"command": "note", "pitch":58, "vel":1, "pos":7680, "length":960, "chan":0, },
		{"command": "note", "pitch":46, "vel":1, "pos":9120, "length":960, "chan":0, },
		{"command": "note", "pitch":49, "vel":1, "pos":9120, "length":960, "chan":0, },
		{"command": "keyswitch", "ks_type": "articulation", "pos":13920, "index":2},
		{"command": "pedal", "value":0, "pos":0, "chan":0, },
		{"command": "pedal", "value":127, "pos":1, "chan":0, },
		{"command": "pedal", "value":0, "pos":3840, "chan":0, },
		{"command": "pedal", "value":127, "pos":4320, "chan":0, },
		{"command": "pedal", "value":0, "pos":7680, "chan":0, },
		{"command": "pedal", "value":127, "pos":8160, "chan":0, },
		{"command": "pedal", "value":0, "pos":15253, "chan":0, },
	],
	[
		{"command": "keyswitch", "ks_type": "direction", "pos":0, "index":0},
		{"command": "keyswitch", "ks_type": "direction", "pos":0, "index":0},
		{"command": "keyswitch", "ks_type": "direction", "pos":0, "index":0},
		{"command": "keyswitch", "ks_type": "legato", "pos":0, "index":1},
		{"command": "keyswitch", "ks_type": "speed", "pos":0, "index":1},
		{"command": "keyswitch", "ks_type": "speed", "pos":0, "index":1},
		{"command": "note", "pitch":68, "vel":118, "pos":0, "length":2048, "chan":0, },
		{"command": "note", "pitch":67, "vel":89, "pos":1, "length":3097, "chan":0, },
		{"command": "note", "pitch":64, "vel":76, "pos":1113, "length":4709, "chan":0, },
		{"command": "note", "pitch":68, "vel":118, "pos":7187, "length":2541, "chan":0, },
		{"command": "note", "pitch":67, "vel":89, "pos":7681, "length":3097, "chan":0, },
		{"command": "note", "pitch":64, "vel":76, "pos":8793, "length":4709, "chan":0, },
		{"command": "note", "pitch":60, "vel":36, "pos":10686, "length":3239, "chan":0, },
		{"command": "note", "pitch":70, "vel":127, "pos":14867, "length":1901, "chan":0, },
		{"command": "note", "pitch":67, "vel":89, "pos":15361, "length":2457, "chan":0, },
		{"command": "note", "pitch":64, "vel":76, "pos":16473, "length":4069, "chan":0, },
		{"command": "note", "pitch":60, "vel":36, "pos":18366, "length":2599, "chan":0, },
		{"command": "note", "pitch":56, "vel":6, "pos":19357, "length":2599, "chan":0, },
		{"command": "note", "pitch":68, "vel":118, "pos":22547, "length":2541, "chan":0, },
		{"command": "note", "pitch":67, "vel":89, "pos":23041, "length":3097, "chan":0, },
		{"command": "note", "pitch":64, "vel":76, "pos":24153, "length":4709, "chan":0, },
		{"command": "note", "pitch":60, "vel":36, "pos":26046, "length":3239, "chan":0, },
		{"command": "note", "pitch":55, "vel":9, "pos":27338, "length":3556, "chan":0, },
		{"command": "note", "pitch":72, "vel":118, "pos":30227, "length":2541, "chan":0, },
		{"command": "note", "pitch":67, "vel":89, "pos":30721, "length":3097, "chan":0, },
		{"command": "note", "pitch":64, "vel":76, "pos":31833, "length":4709, "chan":0, },
		{"command": "note", "pitch":60, "vel":36, "pos":33726, "length":3239, "chan":0, },
		{"command": "note", "pitch":55, "vel":9, "pos":35018, "length":3556, "chan":0, },
		{"command": "note", "pitch":70, "vel":118, "pos":37907, "length":2541, "chan":0, },
		{"command": "note", "pitch":67, "vel":89, "pos":38401, "length":3097, "chan":0, },
		{"command": "note", "pitch":65, "vel":76, "pos":39513, "length":4709, "chan":0, },
		{"command": "note", "pitch":60, "vel":36, "pos":40813, "length":3409, "chan":0, },
		{"command": "note", "pitch":56, "vel":11, "pos":41601, "length":3200, "chan":0, },
		{"command": "note", "pitch":68, "vel":118, "pos":45587, "length":2541, "chan":0, },
		{"command": "note", "pitch":67, "vel":89, "pos":46081, "length":3097, "chan":0, },
		{"command": "note", "pitch":65, "vel":76, "pos":47193, "length":4709, "chan":0, },
		{"command": "note", "pitch":60, "vel":36, "pos":47873, "length":4029, "chan":0, },
		{"command": "note", "pitch":56, "vel":39, "pos":49281, "length":4480, "chan":0, },
		{"command": "note", "pitch":53, "vel":1, "pos":51201, "length":5120, "chan":0, },
		{"command": "note", "pitch":67, "vel":118, "pos":57107, "length":2541, "chan":0, },
		{"command": "note", "pitch":64, "vel":89, "pos":57601, "length":3097, "chan":0, },
		{"command": "note", "pitch":60, "vel":76, "pos":58713, "length":4709, "chan":0, },
		{"command": "note", "pitch":56, "vel":36, "pos":60329, "length":3239, "chan":0, },
		{"command": "note", "pitch":55, "vel":19, "pos":61837, "length":5120, "chan":0, },
		{"command": "note", "pitch":52, "vel":118, "pos":63795, "length":2541, "chan":0, },
		{"command": "note", "pitch":48, "vel":89, "pos":64289, "length":3097, "chan":0, },
		{"command": "note", "pitch":44, "vel":76, "pos":65401, "length":4709, "chan":0, },
		{"command": "note", "pitch":43, "vel":36, "pos":67017, "length":3239, "chan":0, },
		{"command": "note", "pitch":40, "vel":39, "pos":68525, "length":5120, "chan":0, },
		{"command": "note", "pitch":36, "vel":1, "pos":71091, "length":8320, "chan":0, },
	],
	[
		{"command": "keyswitch", "ks_type": "direction", "pos":0, "index":0},
		{"command": "keyswitch", "ks_type": "legato", "pos":0, "index":0},
		{"command": "keyswitch", "ks_type": "legato", "pos":0, "index":0},
		{"command": "keyswitch", "ks_type": "legato", "pos":0, "index":0},
		{"command": "keyswitch", "ks_type": "speed", "pos":0, "index":1},
		{"command": "keyswitch", "ks_type": "speed", "pos":0, "index":1},
		{"command": "note", "pitch":38, "vel":1, "pos":0, "length":1077, "chan":0, },
		{"command": "note", "pitch":45, "vel":1, "pos":0, "length":1077, "chan":0, },
		{"command": "note", "pitch":41, "vel":1, "pos":1, "length":1076, "chan":0, },
		{"command": "note", "pitch":38, "vel":1, "pos":3840, "length":1077, "chan":0, },
		{"command": "note", "pitch":46, "vel":1, "pos":3840, "length":1077, "chan":0, },
		{"command": "note", "pitch":41, "vel":1, "pos":3841, "length":1076, "chan":0, },
		{"command": "note", "pitch":38, "vel":41, "pos":7680, "length":1077, "chan":0, },
		{"command": "note", "pitch":46, "vel":41, "pos":7680, "length":1077, "chan":0, },
		{"command": "note", "pitch":43, "vel":41, "pos":7681, "length":1076, "chan":0, },
		{"command": "note", "pitch":37, "vel":1, "pos":11520, "length":1077, "chan":0, },
		{"command": "note", "pitch":45, "vel":1, "pos":11520, "length":1077, "chan":0, },
		{"command": "note", "pitch":40, "vel":1, "pos":11521, "length":1076, "chan":0, },
		{"command": "note", "pitch":50, "vel":1, "pos":15360, "length":2037, "chan":0, },
		{"command": "note", "pitch":45, "vel":1, "pos":15360, "length":2037, "chan":0, },
		{"command": "note", "pitch":41, "vel":1, "pos":15361, "length":2036, "chan":0, },
		{"command": "note", "pitch":50, "vel":1, "pos":19200, "length":2037, "chan":0, },
		{"command": "note", "pitch":46, "vel":1, "pos":19200, "length":2037, "chan":0, },
		{"command": "note", "pitch":41, "vel":1, "pos":19201, "length":2036, "chan":0, },
		{"command": "note", "pitch":50, "vel":1, "pos":23040, "length":2037, "chan":0, },
		{"command": "note", "pitch":46, "vel":1, "pos":23040, "length":2037, "chan":0, },
		{"command": "note", "pitch":43, "vel":1, "pos":23041, "length":2036, "chan":0, },
		{"command": "note", "pitch":49, "vel":41, "pos":26880, "length":2037, "chan":0, },
		{"command": "note", "pitch":45, "vel":41, "pos":26880, "length":2037, "chan":0, },
		{"command": "note", "pitch":40, "vel":41, "pos":26881, "length":2036, "chan":0, },
		{"command": "note", "pitch":50, "vel":1, "pos":30716, "length":2884, "chan":0, },
		{"command": "note", "pitch":45, "vel":1, "pos":30720, "length":2880, "chan":0, },
		{"command": "note", "pitch":53, "vel":1, "pos":30720, "length":2880, "chan":0, },
		{"command": "note", "pitch":50, "vel":41, "pos":34559, "length":2881, "chan":0, },
		{"command": "note", "pitch":46, "vel":41, "pos":34560, "length":2880, "chan":0, },
		{"command": "note", "pitch":53, "vel":41, "pos":34560, "length":2880, "chan":0, },
		{"command": "note", "pitch":50, "vel":81, "pos":38399, "length":2881, "chan":0, },
		{"command": "note", "pitch":46, "vel":81, "pos":38400, "length":2880, "chan":0, },
		{"command": "note", "pitch":55, "vel":81, "pos":38401, "length":2879, "chan":0, },
		{"command": "note", "pitch":49, "vel":1, "pos":42239, "length":2881, "chan":0, },
		{"command": "note", "pitch":45, "vel":1, "pos":42240, "length":2880, "chan":0, },
		{"command": "note", "pitch":52, "vel":1, "pos":42241, "length":2879, "chan":0, },
	],
	[
		{"command": "keyswitch", "ks_type": "direction", "pos":0, "index":0},
		{"command": "keyswitch", "ks_type": "legato", "pos":0, "index":0},
		{"command": "keyswitch", "ks_type": "legato", "pos":0, "index":0},
		{"command": "keyswitch", "ks_type": "legato", "pos":0, "index":0},
		{"command": "keyswitch", "ks_type": "legato", "pos":0, "index":0},
		{"command": "keyswitch", "ks_type": "articulation", "pos":0, "index":1},
		{"command": "note", "pitch":56, "vel":96, "pos":0, "length":3840, "chan":0, },
		{"command": "note", "pitch":60, "vel":96, "pos":1, "length":3839, "chan":0, },
		{"command": "note", "pitch":63, "vel":96, "pos":2, "length":3838, "chan":0, },
		{"command": "note", "pitch":55, "vel":96, "pos":3840, "length":3840, "chan":0, },
		{"command": "note", "pitch":60, "vel":96, "pos":3840, "length":3840, "chan":0, },
		{"command": "note", "pitch":63, "vel":96, "pos":3840, "length":3840, "chan":0, },
		{"command": "note", "pitch":53, "vel":96, "pos":7680, "length":1985, "chan":0, },
		{"command": "note", "pitch":60, "vel":96, "pos":7680, "length":1920, "chan":0, },
		{"command": "note", "pitch":61, "vel":96, "pos":7680, "length":1920, "chan":0, },
		{"command": "note", "pitch":56, "vel":96, "pos":7680, "length":1985, "chan":0, },
		{"command": "note", "pitch":55, "vel":96, "pos":11520, "length":1920, "chan":0, },
		{"command": "note", "pitch":60, "vel":96, "pos":11520, "length":1920, "chan":0, },
		{"command": "note", "pitch":63, "vel":96, "pos":11520, "length":1920, "chan":0, },
	],
	[
		{"command": "keyswitch", "ks_type": "direction", "pos":0, "index":0},
		{"command": "keyswitch", "ks_type": "legato", "pos":0, "index":0},
		{"command": "keyswitch", "ks_type": "legato", "pos":0, "index":3},
		{"command": "keyswitch", "ks_type": "legato", "pos":0, "index":3},
		{"command": "keyswitch", "ks_type": "legato", "pos":0, "index":3},
		{"command": "keyswitch", "ks_type": "articulation", "pos":0, "index":1},
		{"command": "note", "pitch":56, "vel":96, "pos":0, "length":2760, "chan":0, },
		{"command": "note", "pitch":60, "vel":96, "pos":1, "length":2759, "chan":0, },
		{"command": "note", "pitch":63, "vel":96, "pos":2, "length":2758, "chan":0, },
		{"command": "note", "pitch":55, "vel":96, "pos":3840, "length":2811, "chan":0, },
		{"command": "note", "pitch":60, "vel":96, "pos":3841, "length":2810, "chan":0, },
		{"command": "note", "pitch":63, "vel":96, "pos":3842, "length":2809, "chan":0, },
		{"command": "note", "pitch":53, "vel":96, "pos":7680, "length":3050, "chan":0, },
		{"command": "note", "pitch":56, "vel":96, "pos":7681, "length":3049, "chan":0, },
		{"command": "note", "pitch":60, "vel":96, "pos":7682, "length":3048, "chan":0, },
		{"command": "note", "pitch":61, "vel":96, "pos":7683, "length":3047, "chan":0, },
		{"command": "note", "pitch":55, "vel":96, "pos":11520, "length":3050, "chan":0, },
		{"command": "note", "pitch":60, "vel":96, "pos":11521, "length":3049, "chan":0, },
		{"command": "note", "pitch":63, "vel":96, "pos":11522, "length":3048, "chan":0, },
	],
	[
		{"command": "keyswitch", "ks_type": "articulation", "pos":0, "index":1},
		{"command": "keyswitch", "ks_type": "speed", "pos":0, "index":1},
		{"command": "keyswitch", "ks_type": "direction", "pos":0, "index":0},
		{"command": "keyswitch", "ks_type": "release_sample", "pos":0, "index":0},
		{"command": "keyswitch", "ks_type": "direction", "pos":0, "index":2},
		{"command": "keyswitch", "ks_type": "direction", "pos":0, "index":2},
		{"command": "note", "pitch":60, "vel":38, "pos":0, "length":17709, "chan":0, },
		{"command": "note", "pitch":62, "vel":42, "pos":575, "length":19465, "chan":0, },
		{"command": "note", "pitch":63, "vel":36, "pos":1188, "length":22533, "chan":0, },
		{"command": "note", "pitch":65, "vel":45, "pos":1893, "length":23504, "chan":0, },
		{"command": "note", "pitch":67, "vel":42, "pos":10394, "length":16636, "chan":0, },
		{"command": "note", "pitch":69, "vel":86, "pos":16950, "length":6402, "chan":0, },
		{"command": "note", "pitch":70, "vel":106, "pos":19766, "length":9994, "chan":0, },
	],
	[
		{"command": "keyswitch", "ks_type": "articulation", "pos":0, "index":1},
		{"command": "keyswitch", "ks_type": "speed", "pos":0, "index":1},
		{"command": "keyswitch", "ks_type": "direction", "pos":0, "index":0},
		{"command": "keyswitch", "ks_type": "release_sample", "pos":0, "index":0},
		{"command": "keyswitch", "ks_type": "direction", "pos":0, "index":2},
		{"command": "note", "pitch":72, "vel":34, "pos":0, "length":3473, "chan":0, },
		{"command": "note", "pitch":60, "vel":32, "pos":6, "length":5018, "chan":0, },
		{"command": "note", "pitch":71, "vel":29, "pos":551, "length":1621, "chan":0, },
		{"command": "note", "pitch":64, "vel":33, "pos":642, "length":787, "chan":0, },
		{"command": "note", "pitch":67, "vel":24, "pos":1249, "length":1079, "chan":0, },
		{"command": "note", "pitch":62, "vel":32, "pos":1282, "length":3823, "chan":0, },
		{"command": "note", "pitch":69, "vel":48, "pos":2059, "length":1558, "chan":0, },
		{"command": "note", "pitch":64, "vel":40, "pos":2514, "length":2538, "chan":0, },
		{"command": "note", "pitch":65, "vel":41, "pos":3029, "length":1988, "chan":0, },
		{"command": "note", "pitch":71, "vel":43, "pos":3473, "length":1045, "chan":0, },
		{"command": "note", "pitch":69, "vel":61, "pos":4385, "length":826, "chan":0, },
		{"command": "note", "pitch":67, "vel":53, "pos":5033, "length":779, "chan":0, },
		{"command": "note", "pitch":65, "vel":53, "pos":5730, "length":1492, "chan":0, },
		{"command": "pedal", "value":127, "pos":0, "chan":0, },
		{"command": "pedal", "value":0, "pos":30720, "chan":0, },
	],
	[
		{"command": "keyswitch", "ks_type": "articulation", "pos":0, "index":2},
		{"command": "keyswitch", "ks_type": "speed", "pos":0, "index":1},
		{"command": "keyswitch", "ks_type": "direction", "pos":0, "index":0},
		{"command": "keyswitch", "ks_type": "release_sample", "pos":0, "index":0},
		{"command": "keyswitch", "ks_type": "direction", "pos":0, "index":2},
		{"command": "note", "pitch":47, "vel":34, "pos":0, "length":4476, "chan":0, },
		{"command": "note", "pitch":49, "vel":34, "pos":10, "length":3909, "chan":0, },
		{"command": "note", "pitch":50, "vel":41, "pos":329, "length":3655, "chan":0, },
		{"command": "note", "pitch":52, "vel":36, "pos":765, "length":3246, "chan":0, },
		{"command": "note", "pitch":54, "vel":38, "pos":1160, "length":2952, "chan":0, },
		{"command": "note", "pitch":56, "vel":50, "pos":1508, "length":2444, "chan":0, },
		{"command": "note", "pitch":57, "vel":44, "pos":1896, "length":2432, "chan":0, },
		{"command": "note", "pitch":59, "vel":61, "pos":2386, "length":1962, "chan":0, },
		{"command": "note", "pitch":61, "vel":69, "pos":2810, "length":1548, "chan":0, },
		{"command": "pedal", "value":0, "pos":0, "chan":0, },
		{"command": "pedal", "value":127, "pos":960, "chan":0, },
		{"command": "pedal", "value":0, "pos":15360, "chan":0, },
	],
	[
		{"command": "keyswitch", "ks_type": "articulation", "pos":0, "index":2},
		{"command": "keyswitch", "ks_type": "speed", "pos":0, "index":1},
		{"command": "keyswitch", "ks_type": "direction", "pos":0, "index":0},
		{"command": "keyswitch", "ks_type": "release_sample", "pos":0, "index":0},
		{"command": "keyswitch", "ks_type": "direction", "pos":0, "index":2},
		{"command": "note", "pitch":43, "vel":32, "pos":0, "length":4113, "chan":0, },
		{"command": "note", "pitch":44, "vel":41, "pos":84, "length":2941, "chan":0, },
		{"command": "note", "pitch":48, "vel":22, "pos":440, "length":2146, "chan":0, },
		{"command": "note", "pitch":51, "vel":26, "pos":749, "length":2030, "chan":0, },
		{"command": "note", "pitch":55, "vel":41, "pos":1021, "length":1779, "chan":0, },
		{"command": "note", "pitch":56, "vel":57, "pos":1190, "length":1805, "chan":0, },
		{"command": "note", "pitch":60, "vel":53, "pos":1456, "length":1569, "chan":0, },
		{"command": "note", "pitch":63, "vel":50, "pos":1738, "length":2186, "chan":0, },
		{"command": "note", "pitch":63, "vel":81, "pos":4852, "length":4322, "chan":0, },
		{"command": "note", "pitch":60, "vel":61, "pos":5113, "length":3990, "chan":0, },
		{"command": "note", "pitch":56, "vel":81, "pos":5329, "length":3876, "chan":0, },
		{"command": "note", "pitch":55, "vel":64, "pos":5579, "length":3568, "chan":0, },
		{"command": "note", "pitch":51, "vel":47, "pos":5749, "length":3495, "chan":0, },
		{"command": "note", "pitch":48, "vel":38, "pos":6033, "length":3088, "chan":0, },
		{"command": "note", "pitch":44, "vel":49, "pos":6264, "length":3004, "chan":0, },
		{"command": "note", "pitch":43, "vel":48, "pos":7015, "length":2547, "chan":0, },
		{"command": "pedal", "value":0, "pos":0, "chan":0, },
		{"command": "pedal", "value":127, "pos":960, "chan":0, },
		{"command": "pedal", "value":0, "pos":15286, "chan":0, },
	],
	[
		{"command": "keyswitch", "ks_type": "articulation", "pos":0, "index":1},
		{"command": "keyswitch", "ks_type": "speed", "pos":0, "index":1},
		{"command": "keyswitch", "ks_type": "direction", "pos":0, "index":0},
		{"command": "keyswitch", "ks_type": "direction", "pos":0, "index":2},
		{"command": "keyswitch", "ks_type": "legato", "pos":0, "index":1},
		{"command": "keyswitch", "ks_type": "legato", "pos":0, "index":3},
		{"command": "note", "pitch":36, "vel":54, "pos":0, "length":353, "chan":0, },
		{"command": "note", "pitch":39, "vel":43, "pos":1, "length":337, "chan":0, },
		{"command": "note", "pitch":48, "vel":33, "pos":355, "length":463, "chan":0, },
		{"command": "note", "pitch":51, "vel":58, "pos":670, "length":222, "chan":0, },
		{"command": "note", "pitch":60, "vel":45, "pos":1135, "length":638, "chan":0, },
		{"command": "note", "pitch":63, "vel":37, "pos":1448, "length":345, "chan":0, },
		{"command": "note", "pitch":63, "vel":71, "pos":2587, "length":865, "chan":0, },
		{"command": "note", "pitch":68, "vel":64, "pos":2880, "length":633, "chan":0, },
		{"command": "note", "pitch":36, "vel":53, "pos":13975, "length":903, "chan":0, },
		{"command": "note", "pitch":39, "vel":54, "pos":14386, "length":534, "chan":0, },
		{"command": "note", "pitch":48, "vel":61, "pos":14678, "length":654, "chan":0, },
		{"command": "note", "pitch":51, "vel":44, "pos":15008, "length":397, "chan":0, },
		{"command": "note", "pitch":60, "vel":36, "pos":15439, "length":762, "chan":0, },
		{"command": "note", "pitch":63, "vel":55, "pos":15817, "length":299, "chan":0, },
		{"command": "note", "pitch":63, "vel":50, "pos":17082, "length":460, "chan":0, },
		{"command": "note", "pitch":67, "vel":43, "pos":17280, "length":831, "chan":0, },
		{"command": "pedal", "value":0, "pos":0, "chan":0, },
		{"command": "pedal", "value":127, "pos":31, "chan":0, },
		{"command": "pedal", "value":0, "pos":14542, "chan":0, },
		{"command": "pedal", "value":127, "pos":14721, "chan":0, },
		{"command": "pedal", "value":0, "pos":30480, "chan":0, },
	],
	[
		{"command": "keyswitch", "ks_type": "articulation", "pos":0, "index":1},
		{"command": "keyswitch", "ks_type": "speed", "pos":0, "index":1},
		{"command": "keyswitch", "ks_type": "direction", "pos":0, "index":0},
		{"command": "keyswitch", "ks_type": "direction", "pos":0, "index":2},
		{"command": "keyswitch", "ks_type": "legato", "pos":0, "index":1},
		{"command": "keyswitch", "ks_type": "legato", "pos":0, "index":1},
		{"command": "note", "pitch":44, "vel":32, "pos":2739, "length":2192, "chan":0, },
		{"command": "note", "pitch":48, "vel":23, "pos":2877, "length":1809, "chan":0, },
		{"command": "note", "pitch":51, "vel":41, "pos":2933, "length":1912, "chan":0, },
		{"command": "note", "pitch":56, "vel":38, "pos":3168, "length":1487, "chan":0, },
		{"command": "note", "pitch":55, "vel":11, "pos":3178, "length":1185, "chan":0, },
		{"command": "note", "pitch":60, "vel":24, "pos":3372, "length":1335, "chan":0, },
		{"command": "note", "pitch":63, "vel":44, "pos":3392, "length":1773, "chan":0, },
		{"command": "note", "pitch":53, "vel":32, "pos":3420, "length":871, "chan":0, },
		{"command": "note", "pitch":41, "vel":25, "pos":8290, "length":2066, "chan":0, },
		{"command": "note", "pitch":44, "vel":36, "pos":8313, "length":1867, "chan":0, },
		{"command": "note", "pitch":48, "vel":11, "pos":8418, "length":1055, "chan":0, },
		{"command": "note", "pitch":53, "vel":29, "pos":8515, "length":1421, "chan":0, },
		{"command": "note", "pitch":51, "vel":36, "pos":8551, "length":1341, "chan":0, },
		{"command": "note", "pitch":56, "vel":50, "pos":8591, "length":1553, "chan":0, },
		{"command": "note", "pitch":60, "vel":30, "pos":8734, "length":1697, "chan":0, },
		{"command": "note", "pitch":44, "vel":42, "pos":13978, "length":1619, "chan":0, },
		{"command": "note", "pitch":48, "vel":36, "pos":14070, "length":1322, "chan":0, },
		{"command": "note", "pitch":51, "vel":52, "pos":14228, "length":1318, "chan":0, },
		{"command": "note", "pitch":55, "vel":39, "pos":14320, "length":1046, "chan":0, },
		{"command": "note", "pitch":56, "vel":57, "pos":14346, "length":1128, "chan":0, },
		{"command": "note", "pitch":60, "vel":30, "pos":14539, "length":937, "chan":0, },
		{"command": "note", "pitch":63, "vel":49, "pos":14565, "length":1223, "chan":0, },
		{"command": "note", "pitch":48, "vel":38, "pos":19694, "length":1661, "chan":0, },
		{"command": "note", "pitch":49, "vel":51, "pos":19751, "length":1635, "chan":0, },
		{"command": "note", "pitch":60, "vel":32, "pos":19926, "length":990, "chan":0, },
		{"command": "note", "pitch":53, "vel":38, "pos":19941, "length":1194, "chan":0, },
		{"command": "note", "pitch":61, "vel":48, "pos":19945, "length":1239, "chan":0, },
		{"command": "note", "pitch":56, "vel":25, "pos":19989, "length":1339, "chan":0, },
		{"command": "note", "pitch":65, "vel":25, "pos":20159, "length":1021, "chan":0, },
		{"command": "note", "pitch":68, "vel":40, "pos":20160, "length":1369, "chan":0, },
		{"command": "note", "pitch":44, "vel":61, "pos":25518, "length":1670, "chan":0, },
		{"command": "note", "pitch":48, "vel":28, "pos":25712, "length":1359, "chan":0, },
		{"command": "note", "pitch":53, "vel":24, "pos":25758, "length":1417, "chan":0, },
		{"command": "note", "pitch":56, "vel":42, "pos":25783, "length":1466, "chan":0, },
		{"command": "note", "pitch":51, "vel":46, "pos":25827, "length":1368, "chan":0, },
		{"command": "note", "pitch":60, "vel":27, "pos":25959, "length":1244, "chan":0, },
		{"command": "note", "pitch":63, "vel":49, "pos":26030, "length":1317, "chan":0, },
		{"command": "note", "pitch":41, "vel":22, "pos":31499, "length":1671, "chan":0, },
		{"command": "note", "pitch":44, "vel":34, "pos":31500, "length":1721, "chan":0, },
		{"command": "note", "pitch":48, "vel":3, "pos":31681, "length":1766, "chan":0, },
		{"command": "note", "pitch":51, "vel":37, "pos":31699, "length":1803, "chan":0, },
		{"command": "note", "pitch":53, "vel":17, "pos":31768, "length":1701, "chan":0, },
		{"command": "note", "pitch":56, "vel":41, "pos":31770, "length":1737, "chan":0, },
		{"command": "note", "pitch":60, "vel":57, "pos":31801, "length":1761, "chan":0, },
		{"command": "note", "pitch":48, "vel":34, "pos":36990, "length":1600, "chan":0, },
		{"command": "note", "pitch":49, "vel":53, "pos":37021, "length":1626, "chan":0, },
		{"command": "note", "pitch":53, "vel":39, "pos":37138, "length":1737, "chan":0, },
		{"command": "note", "pitch":60, "vel":47, "pos":37184, "length":1611, "chan":0, },
		{"command": "note", "pitch":61, "vel":64, "pos":37232, "length":1598, "chan":0, },
		{"command": "note", "pitch":56, "vel":42, "pos":37247, "length":1628, "chan":0, },
		{"command": "note", "pitch":65, "vel":39, "pos":37356, "length":1464, "chan":0, },
		{"command": "note", "pitch":68, "vel":53, "pos":37389, "length":1608, "chan":0, },
		{"command": "note", "pitch":51, "vel":47, "pos":42919, "length":1942, "chan":0, },
		{"command": "note", "pitch":48, "vel":39, "pos":42944, "length":1907, "chan":0, },
		{"command": "note", "pitch":55, "vel":34, "pos":43086, "length":1720, "chan":0, },
		{"command": "note", "pitch":60, "vel":41, "pos":43154, "length":1249, "chan":0, },
		{"command": "note", "pitch":63, "vel":53, "pos":43178, "length":1422, "chan":0, },
		{"command": "note", "pitch":58, "vel":38, "pos":43229, "length":1452, "chan":0, },
		{"command": "note", "pitch":67, "vel":27, "pos":43354, "length":1140, "chan":0, },
		{"command": "note", "pitch":70, "vel":52, "pos":43383, "length":1472, "chan":0, },
	],
	[
		{"command": "keyswitch", "ks_type": "articulation", "pos":0, "index":1},
		{"command": "keyswitch", "ks_type": "speed", "pos":0, "index":1},
		{"command": "keyswitch", "ks_type": "direction", "pos":0, "index":0},
		{"command": "keyswitch", "ks_type": "release_sample", "pos":0, "index":0},
		{"command": "keyswitch", "ks_type": "direction", "pos":0, "index":2},
		{"command": "keyswitch", "ks_type": "legato", "pos":0, "index":1},
		{"command": "note", "pitch":55, "vel":31, "pos":0, "length":14722, "chan":0, },
		{"command": "note", "pitch":56, "vel":26, "pos":104, "length":14163, "chan":0, },
		{"command": "note", "pitch":60, "vel":20, "pos":698, "length":12756, "chan":0, },
		{"command": "note", "pitch":62, "vel":34, "pos":1230, "length":11317, "chan":0, },
		{"command": "note", "pitch":63, "vel":42, "pos":1667, "length":11568, "chan":0, },
		{"command": "note", "pitch":65, "vel":36, "pos":2399, "length":11440, "chan":0, },
		{"command": "note", "pitch":51, "vel":41, "pos":15056, "length":14158, "chan":0, },
		{"command": "note", "pitch":55, "vel":35, "pos":15309, "length":13884, "chan":0, },
		{"command": "note", "pitch":58, "vel":25, "pos":15452, "length":13735, "chan":0, },
		{"command": "note", "pitch":60, "vel":29, "pos":15579, "length":12953, "chan":0, },
		{"command": "note", "pitch":62, "vel":36, "pos":16085, "length":12826, "chan":0, },
		{"command": "note", "pitch":63, "vel":37, "pos":16587, "length":13274, "chan":0, },
		{"command": "note", "pitch":55, "vel":41, "pos":30164, "length":7601, "chan":0, },
		{"command": "note", "pitch":58, "vel":53, "pos":30477, "length":7373, "chan":0, },
		{"command": "note", "pitch":62, "vel":47, "pos":30627, "length":7208, "chan":0, },
		{"command": "note", "pitch":63, "vel":33, "pos":30885, "length":7003, "chan":0, },
		{"command": "note", "pitch":65, "vel":47, "pos":30971, "length":7039, "chan":0, },
		{"command": "note", "pitch":67, "vel":57, "pos":31335, "length":6740, "chan":0, },
		{"command": "note", "pitch":70, "vel":64, "pos":31677, "length":6447, "chan":0, },
		{"command": "note", "pitch":56, "vel":73, "pos":38119, "length":13215, "chan":0, },
		{"command": "note", "pitch":60, "vel":65, "pos":38350, "length":13177, "chan":0, },
		{"command": "note", "pitch":63, "vel":67, "pos":38572, "length":13231, "chan":0, },
		{"command": "note", "pitch":67, "vel":66, "pos":38676, "length":12978, "chan":0, },
		{"command": "note", "pitch":68, "vel":65, "pos":38826, "length":13306, "chan":0, },
		{"command": "note", "pitch":70, "vel":64, "pos":39045, "length":13285, "chan":0, },
		{"command": "pedal", "value":0, "pos":0, "chan":0, },
	],
	[
		{"command": "note", "pitch":53, "vel":1, "pos":0, "length":720, "chan":0, },
		{"command": "keyswitch", "ks_type": "articulation", "pos":0, "index":1},
		{"command": "keyswitch", "ks_type": "speed", "pos":0, "index":1},
		{"command": "keyswitch", "ks_type": "speed", "pos":0, "index":1},
		{"command": "keyswitch", "ks_type": "direction", "pos":0, "index":2},
		{"command": "keyswitch", "ks_type": "legato", "pos":0, "index":3},
		{"command": "keyswitch", "ks_type": "legato", "pos":0, "index":1},
		{"command": "note", "pitch":56, "vel":1, "pos":4, "length":7393, "chan":0, },
		{"command": "note", "pitch":60, "vel":1, "pos":480, "length":720, "chan":0, },
		{"command": "note", "pitch":63, "vel":1, "pos":480, "length":6984, "chan":0, },
		{"command": "note", "pitch":51, "vel":31, "pos":7680, "length":720, "chan":0, },
		{"command": "note", "pitch":55, "vel":31, "pos":7680, "length":7446, "chan":0, },
		{"command": "note", "pitch":60, "vel":31, "pos":8160, "length":720, "chan":0, },
		{"command": "note", "pitch":63, "vel":31, "pos":8160, "length":7056, "chan":0, },
		{"command": "note", "pitch":49, "vel":127, "pos":15360, "length":720, "chan":0, },
		{"command": "note", "pitch":53, "vel":127, "pos":15360, "length":7500, "chan":0, },
		{"command": "note", "pitch":60, "vel":127, "pos":15840, "length":720, "chan":0, },
		{"command": "note", "pitch":61, "vel":127, "pos":15840, "length":6984, "chan":0, },
		{"command": "note", "pitch":51, "vel":31, "pos":23040, "length":720, "chan":0, },
		{"command": "note", "pitch":55, "vel":31, "pos":23040, "length":7518, "chan":0, },
		{"command": "note", "pitch":60, "vel":31, "pos":23520, "length":720, "chan":0, },
		{"command": "note", "pitch":63, "vel":31, "pos":23520, "length":7056, "chan":0, },
	],
	[
		{"command": "keyswitch", "ks_type": "speed", "pos":0, "index":1},
		{"command": "keyswitch", "ks_type": "direction", "pos":0, "index":0},
		{"command": "keyswitch", "ks_type": "direction", "pos":0, "index":0},
		{"command": "keyswitch", "ks_type": "legato", "pos":0, "index":1},
		{"command": "keyswitch", "ks_type": "legato", "pos":0, "index":1},
		{"command": "keyswitch", "ks_type": "articulation", "pos":0, "index":1},
		{"command": "note", "pitch":48, "vel":97, "pos":0, "length":240, "chan":0, },
		{"command": "note", "pitch":60, "vel":97, "pos":0, "length":240, "chan":0, },
		{"command": "note", "pitch":50, "vel":97, "pos":31, "length":3840, "chan":0, },
		{"command": "note", "pitch":62, "vel":97, "pos":31, "length":3840, "chan":0, },
		{"command": "note", "pitch":48, "vel":97, "pos":5760, "length":360, "chan":0, },
		{"command": "note", "pitch":50, "vel":97, "pos":5791, "length":3840, "chan":0, },
		{"command": "note", "pitch":60, "vel":97, "pos":6720, "length":360, "chan":0, },
		{"command": "note", "pitch":62, "vel":97, "pos":6751, "length":2880, "chan":0, },
		{"command": "note", "pitch":48, "vel":97, "pos":13440, "length":408, "chan":0, },
		{"command": "note", "pitch":50, "vel":97, "pos":13471, "length":3840, "chan":0, },
		{"command": "note", "pitch":60, "vel":97, "pos":15360, "length":297, "chan":0, },
		{"command": "note", "pitch":62, "vel":97, "pos":15391, "length":1920, "chan":0, },
	],
	[
		{"command": "keyswitch", "ks_type": "articulation", "pos":0, "index":1},
		{"command": "keyswitch", "ks_type": "speed", "pos":0, "index":1},
		{"command": "keyswitch", "ks_type": "direction", "pos":0, "index":0},
		{"command": "keyswitch", "ks_type": "direction", "pos":0, "index":0},
		{"command": "keyswitch", "ks_type": "legato", "pos":0, "index":3},
		{"command": "note", "pitch":67, "vel":50, "pos":0, "length":1384, "chan":0, },
		{"command": "keyswitch", "ks_type": "legato", "pos":0, "index":1},
		{"command": "note", "pitch":63, "vel":45, "pos":152, "length":1200, "chan":0, },
		{"command": "note", "pitch":60, "vel":60, "pos":866, "length":508, "chan":0, },
		{"command": "note", "pitch":67, "vel":50, "pos":7680, "length":1384, "chan":0, },
		{"command": "note", "pitch":62, "vel":45, "pos":7832, "length":1200, "chan":0, },
		{"command": "note", "pitch":58, "vel":60, "pos":8334, "length":720, "chan":0, },
		{"command": "note", "pitch":67, "vel":50, "pos":15360, "length":1384, "chan":0, },
		{"command": "note", "pitch":63, "vel":45, "pos":15512, "length":1200, "chan":0, },
		{"command": "note", "pitch":60, "vel":60, "pos":16014, "length":720, "chan":0, },
		{"command": "note", "pitch":56, "vel":60, "pos":16161, "length":720, "chan":0, },
		{"command": "note", "pitch":67, "vel":50, "pos":23040, "length":1384, "chan":0, },
		{"command": "note", "pitch":62, "vel":45, "pos":23192, "length":1200, "chan":0, },
		{"command": "note", "pitch":59, "vel":60, "pos":23694, "length":720, "chan":0, },
		{"command": "keyswitch", "ks_type": "legato", "pos":30392, "index":1},
		{"command": "pedal", "value":0, "pos":0, "chan":0, },
		{"command": "pedal", "value":127, "pos":30, "chan":0, },
		{"command": "pedal", "value":0, "pos":7680, "chan":0, },
		{"command": "pedal", "value":127, "pos":7805, "chan":0, },
		{"command": "pedal", "value":0, "pos":15360, "chan":0, },
		{"command": "pedal", "value":127, "pos":15500, "chan":0, },
		{"command": "pedal", "value":0, "pos":23040, "chan":0, },
		{"command": "pedal", "value":127, "pos":23146, "chan":0, },
		{"command": "pedal", "value":0, "pos":30702, "chan":0, },
	],
	[
		{"command": "note", "pitch":45, "vel":96, "pos":1440, "length":960, "chan":0, },
		{"command": "note", "pitch":55, "vel":96, "pos":3840, "length":960, "chan":0, },
		{"command": "note", "pitch":64, "vel":96, "pos":7680, "length":1440, "chan":0, },
	],
	[
		{"command": "note", "pitch":45, "vel":96, "pos":1440, "length":960, "chan":0, },
		{"command": "note", "pitch":55, "vel":96, "pos":3840, "length":960, "chan":0, },
		{"command": "note", "pitch":64, "vel":96, "pos":7680, "length":1440, "chan":0, },
	],
	[
		{"command": "note", "pitch":45, "vel":96, "pos":1440, "length":960, "chan":0, },
		{"command": "note", "pitch":55, "vel":96, "pos":3840, "length":960, "chan":0, },
		{"command": "note", "pitch":64, "vel":96, "pos":7680, "length":1440, "chan":0, },
	],
	[
		{"command": "keyswitch", "ks_type": "articulation", "pos":0, "index":2},
		{"command": "keyswitch", "ks_type": "speed", "pos":0, "index":1},
		{"command": "keyswitch", "ks_type": "direction", "pos":0, "index":0},
		{"command": "keyswitch", "ks_type": "direction", "pos":0, "index":0},
		{"command": "keyswitch", "ks_type": "direction", "pos":0, "index":0},
		{"command": "keyswitch", "ks_type": "legato", "pos":0, "index":3},
		{"command": "note", "pitch":60, "vel":31, "pos":0, "length":352, "chan":0, },
		{"command": "note", "pitch":63, "vel":31, "pos":161, "length":640, "chan":0, },
		{"command": "note", "pitch":48, "vel":17, "pos":480, "length":352, "chan":0, },
		{"command": "note", "pitch":51, "vel":17, "pos":641, "length":6240, "chan":0, },
		{"command": "note", "pitch":65, "vel":67, "pos":960, "length":352, "chan":0, },
		{"command": "note", "pitch":67, "vel":67, "pos":1121, "length":840, "chan":0, },
		{"command": "note", "pitch":60, "vel":31, "pos":1920, "length":352, "chan":0, },
		{"command": "note", "pitch":63, "vel":31, "pos":2081, "length":640, "chan":0, },
		{"command": "note", "pitch":65, "vel":77, "pos":2880, "length":352, "chan":0, },
		{"command": "note", "pitch":63, "vel":77, "pos":3041, "length":840, "chan":0, },
		{"command": "note", "pitch":60, "vel":31, "pos":3840, "length":352, "chan":0, },
		{"command": "note", "pitch":63, "vel":31, "pos":4001, "length":640, "chan":0, },
		{"command": "note", "pitch":65, "vel":77, "pos":4800, "length":352, "chan":0, },
		{"command": "note", "pitch":67, "vel":77, "pos":4961, "length":840, "chan":0, },
		{"command": "note", "pitch":60, "vel":31, "pos":5760, "length":352, "chan":0, },
		{"command": "note", "pitch":63, "vel":31, "pos":5921, "length":640, "chan":0, },
		{"command": "note", "pitch":67, "vel":97, "pos":6720, "length":352, "chan":0, },
		{"command": "note", "pitch":65, "vel":97, "pos":6881, "length":840, "chan":0, },
		{"command": "note", "pitch":60, "vel":31, "pos":7680, "length":352, "chan":0, },
		{"command": "note", "pitch":63, "vel":31, "pos":7841, "length":640, "chan":0, },
		{"command": "note", "pitch":46, "vel":17, "pos":8160, "length":352, "chan":0, },
		{"command": "note", "pitch":50, "vel":17, "pos":8321, "length":6240, "chan":0, },
		{"command": "note", "pitch":65, "vel":67, "pos":8640, "length":352, "chan":0, },
		{"command": "note", "pitch":67, "vel":67, "pos":8801, "length":840, "chan":0, },
		{"command": "note", "pitch":60, "vel":31, "pos":9600, "length":352, "chan":0, },
		{"command": "note", "pitch":63, "vel":31, "pos":9761, "length":640, "chan":0, },
		{"command": "note", "pitch":65, "vel":77, "pos":10560, "length":352, "chan":0, },
		{"command": "note", "pitch":63, "vel":77, "pos":10721, "length":840, "chan":0, },
		{"command": "note", "pitch":60, "vel":31, "pos":11520, "length":352, "chan":0, },
		{"command": "note", "pitch":63, "vel":31, "pos":11681, "length":640, "chan":0, },
		{"command": "note", "pitch":65, "vel":77, "pos":12480, "length":352, "chan":0, },
		{"command": "note", "pitch":67, "vel":77, "pos":12641, "length":840, "chan":0, },
		{"command": "note", "pitch":60, "vel":31, "pos":13440, "length":352, "chan":0, },
		{"command": "note", "pitch":63, "vel":31, "pos":13601, "length":640, "chan":0, },
		{"command": "note", "pitch":67, "vel":127, "pos":14400, "length":352, "chan":0, },
		{"command": "note", "pitch":65, "vel":127, "pos":14561, "length":840, "chan":0, },
		{"command": "note", "pitch":60, "vel":31, "pos":15360, "length":352, "chan":0, },
		{"command": "note", "pitch":63, "vel":31, "pos":15521, "length":640, "chan":0, },
		{"command": "note", "pitch":44, "vel":17, "pos":15840, "length":352, "chan":0, },
		{"command": "note", "pitch":48, "vel":17, "pos":16001, "length":6240, "chan":0, },
		{"command": "note", "pitch":65, "vel":67, "pos":16320, "length":352, "chan":0, },
		{"command": "note", "pitch":67, "vel":67, "pos":16481, "length":840, "chan":0, },
		{"command": "note", "pitch":60, "vel":31, "pos":17280, "length":352, "chan":0, },
		{"command": "note", "pitch":63, "vel":31, "pos":17441, "length":640, "chan":0, },
		{"command": "note", "pitch":65, "vel":77, "pos":18240, "length":352, "chan":0, },
		{"command": "note", "pitch":63, "vel":77, "pos":18401, "length":840, "chan":0, },
		{"command": "note", "pitch":60, "vel":31, "pos":19200, "length":352, "chan":0, },
		{"command": "note", "pitch":63, "vel":31, "pos":19361, "length":640, "chan":0, },
		{"command": "note", "pitch":65, "vel":77, "pos":20160, "length":352, "chan":0, },
		{"command": "note", "pitch":67, "vel":77, "pos":20321, "length":840, "chan":0, },
		{"command": "note", "pitch":60, "vel":31, "pos":21120, "length":352, "chan":0, },
		{"command": "note", "pitch":63, "vel":31, "pos":21281, "length":640, "chan":0, },
		{"command": "note", "pitch":67, "vel":97, "pos":22080, "length":352, "chan":0, },
		{"command": "note", "pitch":65, "vel":97, "pos":22241, "length":840, "chan":0, },
		{"command": "note", "pitch":60, "vel":31, "pos":23040, "length":352, "chan":0, },
		{"command": "note", "pitch":63, "vel":31, "pos":23201, "length":640, "chan":0, },
		{"command": "note", "pitch":46, "vel":17, "pos":23520, "length":352, "chan":0, },
		{"command": "note", "pitch":50, "vel":17, "pos":23681, "length":6240, "chan":0, },
		{"command": "note", "pitch":65, "vel":67, "pos":24000, "length":352, "chan":0, },
		{"command": "note", "pitch":67, "vel":67, "pos":24161, "length":840, "chan":0, },
		{"command": "note", "pitch":60, "vel":31, "pos":24960, "length":352, "chan":0, },
		{"command": "note", "pitch":63, "vel":31, "pos":25121, "length":640, "chan":0, },
		{"command": "note", "pitch":65, "vel":77, "pos":25920, "length":352, "chan":0, },
		{"command": "note", "pitch":63, "vel":77, "pos":26081, "length":840, "chan":0, },
		{"command": "note", "pitch":60, "vel":31, "pos":26880, "length":352, "chan":0, },
		{"command": "note", "pitch":63, "vel":31, "pos":27041, "length":640, "chan":0, },
		{"command": "note", "pitch":65, "vel":77, "pos":27840, "length":352, "chan":0, },
		{"command": "note", "pitch":67, "vel":77, "pos":28001, "length":840, "chan":0, },
		{"command": "note", "pitch":60, "vel":31, "pos":28800, "length":352, "chan":0, },
		{"command": "note", "pitch":63, "vel":31, "pos":28961, "length":640, "chan":0, },
		{"command": "note", "pitch":70, "vel":127, "pos":29760, "length":352, "chan":0, },
		{"command": "note", "pitch":67, "vel":127, "pos":29921, "length":798, "chan":0, },
	],
	[
		{"command": "keyswitch", "ks_type": "articulation", "pos":0, "index":2},
		{"command": "keyswitch", "ks_type": "speed", "pos":0, "index":1},
		{"command": "keyswitch", "ks_type": "direction", "pos":0, "index":0},
		{"command": "keyswitch", "ks_type": "direction", "pos":0, "index":0},
		{"command": "keyswitch", "ks_type": "legato", "pos":0, "index":1},
		{"command": "keyswitch", "ks_type": "release_sample", "pos":0, "index":0},
		{"command": "note", "pitch":38, "vel":40, "pos":0, "length":7948, "chan":0, },
		{"command": "note", "pitch":39, "vel":45, "pos":5, "length":7621, "chan":0, },
		{"command": "note", "pitch":43, "vel":21, "pos":462, "length":6982, "chan":0, },
		{"command": "note", "pitch":46, "vel":40, "pos":836, "length":6794, "chan":0, },
		{"command": "note", "pitch":50, "vel":31, "pos":1397, "length":6276, "chan":0, },
		{"command": "note", "pitch":51, "vel":58, "pos":1735, "length":6017, "chan":0, },
		{"command": "note", "pitch":55, "vel":55, "pos":2207, "length":5518, "chan":0, },
		{"command": "note", "pitch":58, "vel":55, "pos":2581, "length":5417, "chan":0, },
		{"command": "note", "pitch":62, "vel":123, "pos":4108, "length":4833, "chan":0, },
		{"command": "note", "pitch":63, "vel":127, "pos":4375, "length":4903, "chan":0, },
		{"command": "note", "pitch":67, "vel":123, "pos":4666, "length":4895, "chan":0, },
		{"command": "note", "pitch":70, "vel":127, "pos":4966, "length":5199, "chan":0, },
		{"command": "note", "pitch":36, "vel":40, "pos":11110, "length":7738, "chan":0, },
		{"command": "note", "pitch":39, "vel":45, "pos":11525, "length":7411, "chan":0, },
		{"command": "note", "pitch":43, "vel":21, "pos":11982, "length":6772, "chan":0, },
		{"command": "note", "pitch":44, "vel":40, "pos":12356, "length":6584, "chan":0, },
		{"command": "note", "pitch":48, "vel":31, "pos":12917, "length":6066, "chan":0, },
		{"command": "note", "pitch":51, "vel":58, "pos":13255, "length":5807, "chan":0, },
		{"command": "note", "pitch":55, "vel":55, "pos":13727, "length":5308, "chan":0, },
		{"command": "note", "pitch":56, "vel":55, "pos":14101, "length":5207, "chan":0, },
		{"command": "note", "pitch":60, "vel":103, "pos":15628, "length":4833, "chan":0, },
		{"command": "note", "pitch":63, "vel":108, "pos":15895, "length":4903, "chan":0, },
		{"command": "note", "pitch":67, "vel":103, "pos":16186, "length":4895, "chan":0, },
		{"command": "note", "pitch":68, "vel":108, "pos":16486, "length":5611, "chan":0, },
		{"command": "note", "pitch":38, "vel":40, "pos":22630, "length":7948, "chan":0, },
		{"command": "note", "pitch":39, "vel":45, "pos":23045, "length":7621, "chan":0, },
		{"command": "note", "pitch":43, "vel":21, "pos":23502, "length":6982, "chan":0, },
		{"command": "note", "pitch":46, "vel":40, "pos":23876, "length":6794, "chan":0, },
		{"command": "note", "pitch":50, "vel":31, "pos":24437, "length":6276, "chan":0, },
		{"command": "note", "pitch":51, "vel":58, "pos":24775, "length":6017, "chan":0, },
		{"command": "note", "pitch":55, "vel":55, "pos":25247, "length":5518, "chan":0, },
		{"command": "note", "pitch":58, "vel":55, "pos":25621, "length":5417, "chan":0, },
		{"command": "note", "pitch":62, "vel":127, "pos":27148, "length":4833, "chan":0, },
		{"command": "note", "pitch":63, "vel":127, "pos":27415, "length":4903, "chan":0, },
		{"command": "note", "pitch":67, "vel":127, "pos":27706, "length":4895, "chan":0, },
		{"command": "note", "pitch":70, "vel":127, "pos":28006, "length":4958, "chan":0, },
		{"command": "note", "pitch":36, "vel":40, "pos":34179, "length":7738, "chan":0, },
		{"command": "note", "pitch":39, "vel":45, "pos":34594, "length":7411, "chan":0, },
		{"command": "note", "pitch":43, "vel":21, "pos":35051, "length":6772, "chan":0, },
		{"command": "note", "pitch":44, "vel":40, "pos":35425, "length":6584, "chan":0, },
		{"command": "note", "pitch":48, "vel":31, "pos":35986, "length":6066, "chan":0, },
		{"command": "note", "pitch":51, "vel":58, "pos":36324, "length":5807, "chan":0, },
		{"command": "note", "pitch":55, "vel":55, "pos":36796, "length":5308, "chan":0, },
		{"command": "note", "pitch":56, "vel":55, "pos":37170, "length":5207, "chan":0, },
		{"command": "note", "pitch":60, "vel":103, "pos":38697, "length":4833, "chan":0, },
		{"command": "note", "pitch":63, "vel":108, "pos":38964, "length":4903, "chan":0, },
		{"command": "note", "pitch":67, "vel":103, "pos":39255, "length":4895, "chan":0, },
		{"command": "note", "pitch":68, "vel":108, "pos":39555, "length":5612, "chan":0, },
		{"command": "note", "pitch":72, "vel":108, "pos":39783, "length":6047, "chan":0, },
	],
	[
		{"command": "keyswitch", "ks_type": "articulation", "pos":0, "index":2},
		{"command": "keyswitch", "ks_type": "speed", "pos":0, "index":1},
		{"command": "keyswitch", "ks_type": "direction", "pos":0, "index":0},
		{"command": "keyswitch", "ks_type": "direction", "pos":0, "index":0},
		{"command": "keyswitch", "ks_type": "legato", "pos":0, "index":3},
		{"command": "keyswitch", "ks_type": "legato", "pos":0, "index":1},
		{"command": "note", "pitch":59, "vel":60, "pos":0, "length":1488, "chan":0, },
		{"command": "note", "pitch":66, "vel":44, "pos":0, "length":1488, "chan":0, },
		{"command": "note", "pitch":62, "vel":113, "pos":10, "length":1478, "chan":0, },
		{"command": "note", "pitch":67, "vel":104, "pos":490, "length":1478, "chan":0, },
		{"command": "note", "pitch":58, "vel":94, "pos":7633, "length":1488, "chan":0, },
		{"command": "note", "pitch":65, "vel":22, "pos":7633, "length":1488, "chan":0, },
		{"command": "note", "pitch":62, "vel":109, "pos":7681, "length":1440, "chan":0, },
		{"command": "note", "pitch":66, "vel":90, "pos":8161, "length":1440, "chan":0, },
		{"command": "note", "pitch":59, "vel":60, "pos":15313, "length":1488, "chan":0, },
		{"command": "note", "pitch":54, "vel":44, "pos":15313, "length":1488, "chan":0, },
		{"command": "note", "pitch":62, "vel":113, "pos":15361, "length":1440, "chan":0, },
		{"command": "note", "pitch":55, "vel":104, "pos":15841, "length":1440, "chan":0, },
		{"command": "note", "pitch":58, "vel":94, "pos":22993, "length":1488, "chan":0, },
		{"command": "note", "pitch":53, "vel":22, "pos":22993, "length":1488, "chan":0, },
		{"command": "note", "pitch":62, "vel":109, "pos":23041, "length":1440, "chan":0, },
		{"command": "note", "pitch":54, "vel":90, "pos":23521, "length":1440, "chan":0, },
		{"command": "note", "pitch":59, "vel":60, "pos":30673, "length":1488, "chan":0, },
		{"command": "note", "pitch":54, "vel":44, "pos":30673, "length":1488, "chan":0, },
		{"command": "note", "pitch":50, "vel":113, "pos":30721, "length":1440, "chan":0, },
		{"command": "note", "pitch":55, "vel":104, "pos":31201, "length":1440, "chan":0, },
		{"command": "note", "pitch":58, "vel":94, "pos":38353, "length":1488, "chan":0, },
		{"command": "note", "pitch":53, "vel":22, "pos":38353, "length":1488, "chan":0, },
		{"command": "note", "pitch":50, "vel":109, "pos":38401, "length":1440, "chan":0, },
		{"command": "note", "pitch":54, "vel":90, "pos":38881, "length":1440, "chan":0, },
		{"command": "note", "pitch":59, "vel":60, "pos":46081, "length":1488, "chan":0, },
		{"command": "note", "pitch":66, "vel":44, "pos":46081, "length":1488, "chan":0, },
		{"command": "note", "pitch":47, "vel":60, "pos":46081, "length":1488, "chan":0, },
		{"command": "note", "pitch":54, "vel":44, "pos":46081, "length":1488, "chan":0, },
		{"command": "note", "pitch":62, "vel":113, "pos":46129, "length":1440, "chan":0, },
		{"command": "note", "pitch":50, "vel":113, "pos":46129, "length":1440, "chan":0, },
		{"command": "note", "pitch":67, "vel":104, "pos":46609, "length":1440, "chan":0, },
		{"command": "note", "pitch":55, "vel":104, "pos":46609, "length":1440, "chan":0, },
		{"command": "note", "pitch":58, "vel":94, "pos":53761, "length":1488, "chan":0, },
		{"command": "note", "pitch":65, "vel":22, "pos":53761, "length":1488, "chan":0, },
		{"command": "note", "pitch":46, "vel":94, "pos":53761, "length":1488, "chan":0, },
		{"command": "note", "pitch":53, "vel":22, "pos":53761, "length":1488, "chan":0, },
		{"command": "note", "pitch":62, "vel":109, "pos":53809, "length":1440, "chan":0, },
		{"command": "note", "pitch":50, "vel":109, "pos":53809, "length":1440, "chan":0, },
		{"command": "note", "pitch":66, "vel":90, "pos":54289, "length":1440, "chan":0, },
		{"command": "note", "pitch":54, "vel":90, "pos":54289, "length":1440, "chan":0, },
		{"command": "note", "pitch":59, "vel":60, "pos":61441, "length":1488, "chan":0, },
		{"command": "note", "pitch":54, "vel":44, "pos":61441, "length":1488, "chan":0, },
		{"command": "note", "pitch":47, "vel":60, "pos":61441, "length":1488, "chan":0, },
		{"command": "note", "pitch":42, "vel":44, "pos":61441, "length":1488, "chan":0, },
		{"command": "note", "pitch":62, "vel":113, "pos":61489, "length":1440, "chan":0, },
		{"command": "note", "pitch":50, "vel":113, "pos":61489, "length":1440, "chan":0, },
		{"command": "note", "pitch":55, "vel":104, "pos":61969, "length":1440, "chan":0, },
		{"command": "note", "pitch":43, "vel":104, "pos":61969, "length":1440, "chan":0, },
		{"command": "note", "pitch":58, "vel":94, "pos":69121, "length":1488, "chan":0, },
		{"command": "note", "pitch":53, "vel":22, "pos":69121, "length":1488, "chan":0, },
		{"command": "note", "pitch":46, "vel":94, "pos":69121, "length":1488, "chan":0, },
		{"command": "note", "pitch":41, "vel":22, "pos":69121, "length":1488, "chan":0, },
		{"command": "note", "pitch":62, "vel":109, "pos":69169, "length":1440, "chan":0, },
		{"command": "note", "pitch":50, "vel":109, "pos":69169, "length":1440, "chan":0, },
		{"command": "note", "pitch":54, "vel":90, "pos":69649, "length":1440, "chan":0, },
		{"command": "note", "pitch":42, "vel":90, "pos":69649, "length":1440, "chan":0, },
		{"command": "note", "pitch":59, "vel":60, "pos":76801, "length":1488, "chan":0, },
		{"command": "note", "pitch":54, "vel":44, "pos":76801, "length":1488, "chan":0, },
		{"command": "note", "pitch":47, "vel":60, "pos":76801, "length":1488, "chan":0, },
		{"command": "note", "pitch":42, "vel":44, "pos":76801, "length":1488, "chan":0, },
		{"command": "note", "pitch":50, "vel":113, "pos":76849, "length":1440, "chan":0, },
		{"command": "note", "pitch":38, "vel":113, "pos":76849, "length":1440, "chan":0, },
		{"command": "note", "pitch":55, "vel":104, "pos":77329, "length":1440, "chan":0, },
		{"command": "note", "pitch":43, "vel":104, "pos":77329, "length":1440, "chan":0, },
		{"command": "note", "pitch":58, "vel":94, "pos":84481, "length":1488, "chan":0, },
		{"command": "note", "pitch":53, "vel":22, "pos":84481, "length":1488, "chan":0, },
		{"command": "note", "pitch":46, "vel":94, "pos":84481, "length":1488, "chan":0, },
		{"command": "note", "pitch":41, "vel":22, "pos":84481, "length":1488, "chan":0, },
		{"command": "note", "pitch":50, "vel":109, "pos":84529, "length":1440, "chan":0, },
		{"command": "note", "pitch":38, "vel":109, "pos":84529, "length":1440, "chan":0, },
		{"command": "note", "pitch":54, "vel":90, "pos":85009, "length":1440, "chan":0, },
		{"command": "note", "pitch":42, "vel":90, "pos":85009, "length":1440, "chan":0, },
		{"command": "keyswitch", "ks_type": "legato", "pos":91728, "index":1},
		{"command": "pedal", "value":127, "pos":0, "chan":0, },
		{"command": "pedal", "value":0, "pos":7385, "chan":0, },
		{"command": "pedal", "value":127, "pos":8306, "chan":0, },
		{"command": "pedal", "value":0, "pos":15014, "chan":0, },
		{"command": "pedal", "value":127, "pos":15840, "chan":0, },
		{"command": "pedal", "value":0, "pos":22803, "chan":0, },
		{"command": "pedal", "value":127, "pos":23520, "chan":0, },
		{"command": "pedal", "value":0, "pos":30449, "chan":0, },
		{"command": "pedal", "value":127, "pos":31200, "chan":0, },
		{"command": "pedal", "value":0, "pos":38291, "chan":0, },
		{"command": "pedal", "value":127, "pos":38880, "chan":0, },
		{"command": "pedal", "value":0, "pos":45861, "chan":0, },
		{"command": "pedal", "value":127, "pos":46560, "chan":0, },
		{"command": "pedal", "value":0, "pos":53513, "chan":0, },
		{"command": "pedal", "value":127, "pos":54434, "chan":0, },
		{"command": "pedal", "value":0, "pos":61142, "chan":0, },
		{"command": "pedal", "value":127, "pos":61968, "chan":0, },
		{"command": "pedal", "value":0, "pos":68931, "chan":0, },
		{"command": "pedal", "value":127, "pos":69648, "chan":0, },
		{"command": "pedal", "value":0, "pos":76577, "chan":0, },
		{"command": "pedal", "value":127, "pos":77328, "chan":0, },
		{"command": "pedal", "value":0, "pos":84419, "chan":0, },
		{"command": "pedal", "value":127, "pos":85008, "chan":0, },
		{"command": "pedal", "value":0, "pos":95040, "chan":0, },
	],
	[
		{"command": "keyswitch", "ks_type": "legato", "pos":0, "index":1},
		{"command": "keyswitch", "ks_type": "speed", "pos":0, "index":1},
		{"command": "keyswitch", "ks_type": "direction", "pos":0, "index":0},
		{"command": "keyswitch", "ks_type": "legato", "pos":0, "index":0},
		{"command": "keyswitch", "ks_type": "legato", "pos":0, "index":0},
		{"command": "keyswitch", "ks_type": "legato", "pos":0, "index":1},
		{"command": "note", "pitch":53, "vel":29, "pos":7309, "length":1021, "chan":0, },
		{"command": "note", "pitch":56, "vel":37, "pos":7857, "length":515, "chan":0, },
		{"command": "note", "pitch":60, "vel":36, "pos":11093, "length":1621, "chan":0, },
		{"command": "note", "pitch":63, "vel":46, "pos":11477, "length":1267, "chan":0, },
		{"command": "note", "pitch":50, "vel":34, "pos":19016, "length":2424, "chan":0, },
		{"command": "note", "pitch":51, "vel":36, "pos":19344, "length":2350, "chan":0, },
		{"command": "note", "pitch":41, "vel":31, "pos":24616, "length":2362, "chan":0, },
		{"command": "note", "pitch":44, "vel":51, "pos":25015, "length":2020, "chan":0, },
		{"command": "pedal", "value":127, "pos":6816, "chan":0, },
		{"command": "pedal", "value":0, "pos":34318, "chan":0, },
	],
	[
		{"command": "keyswitch", "ks_type": "articulation", "pos":0, "index":2},
		{"command": "keyswitch", "ks_type": "speed", "pos":0, "index":1},
		{"command": "keyswitch", "ks_type": "direction", "pos":0, "index":0},
		{"command": "keyswitch", "ks_type": "legato", "pos":0, "index":0},
		{"command": "keyswitch", "ks_type": "legato", "pos":0, "index":0},
		{"command": "keyswitch", "ks_type": "legato", "pos":0, "index":1},
		{"command": "note", "pitch":53, "vel":33, "pos":1920, "length":8479, "chan":0, },
		{"command": "note", "pitch":55, "vel":7, "pos":2812, "length":639, "chan":0, },
		{"command": "note", "pitch":56, "vel":62, "pos":4797, "length":721, "chan":0, },
		{"command": "note", "pitch":58, "vel":57, "pos":6578, "length":2469, "chan":0, },
	],
	[
		{"command": "keyswitch", "ks_type": "articulation", "pos":0, "index":1},
		{"command": "keyswitch", "ks_type": "speed", "pos":0, "index":1},
		{"command": "keyswitch", "ks_type": "direction", "pos":0, "index":0},
		{"command": "keyswitch", "ks_type": "legato", "pos":0, "index":0},
		{"command": "keyswitch", "ks_type": "legato", "pos":0, "index":3},
		{"command": "keyswitch", "ks_type": "legato", "pos":0, "index":1},
		{"command": "note", "pitch":54, "vel":96, "pos":3786, "length":2019, "chan":0, },
		{"command": "note", "pitch":56, "vel":96, "pos":3840, "length":1965, "chan":0, },
		{"command": "note", "pitch":59, "vel":96, "pos":3899, "length":1906, "chan":0, },
		{"command": "note", "pitch":54, "vel":96, "pos":7626, "length":2054, "chan":0, },
		{"command": "note", "pitch":56, "vel":96, "pos":7680, "length":2000, "chan":0, },
		{"command": "note", "pitch":59, "vel":96, "pos":8160, "length":1520, "chan":0, },
		{"command": "note", "pitch":54, "vel":96, "pos":11466, "length":2065, "chan":0, },
		{"command": "note", "pitch":56, "vel":96, "pos":11520, "length":2011, "chan":0, },
		{"command": "note", "pitch":59, "vel":96, "pos":12480, "length":1051, "chan":0, },
		{"command": "note", "pitch":54, "vel":96, "pos":15306, "length":2038, "chan":0, },
		{"command": "note", "pitch":56, "vel":96, "pos":15360, "length":1984, "chan":0, },
		{"command": "note", "pitch":59, "vel":96, "pos":16800, "length":544, "chan":0, },
	],
	[
		{"command": "note", "pitch":45, "vel":96, "pos":1440, "length":960, "chan":0, },
		{"command": "note", "pitch":55, "vel":96, "pos":3840, "length":960, "chan":0, },
		{"command": "note", "pitch":64, "vel":96, "pos":7680, "length":1440, "chan":0, },
	],
	[
		{"command": "keyswitch", "ks_type": "articulation", "pos":0, "index":1},
		{"command": "keyswitch", "ks_type": "speed", "pos":0, "index":1},
		{"command": "keyswitch", "ks_type": "legato", "pos":0, "index":0},
		{"command": "keyswitch", "ks_type": "legato", "pos":0, "index":0},
		{"command": "keyswitch", "ks_type": "direction", "pos":0, "index":0},
		{"command": "note", "pitch":36, "vel":42, "pos":5528, "length":811, "chan":0, },
		{"command": "note", "pitch":40, "vel":30, "pos":6052, "length":318, "chan":0, },
		{"command": "note", "pitch":40, "vel":7, "pos":6809, "length":572, "chan":0, },
		{"command": "note", "pitch":43, "vel":45, "pos":7095, "length":293, "chan":0, },
		{"command": "note", "pitch":43, "vel":43, "pos":7774, "length":1324, "chan":0, },
		{"command": "note", "pitch":47, "vel":39, "pos":8605, "length":513, "chan":0, },
		{"command": "note", "pitch":47, "vel":54, "pos":10987, "length":632, "chan":0, },
		{"command": "note", "pitch":48, "vel":38, "pos":11249, "length":439, "chan":0, },
		{"command": "note", "pitch":48, "vel":60, "pos":12306, "length":727, "chan":0, },
		{"command": "note", "pitch":52, "vel":48, "pos":12674, "length":408, "chan":0, },
		{"command": "note", "pitch":52, "vel":67, "pos":14024, "length":969, "chan":0, },
		{"command": "note", "pitch":55, "vel":51, "pos":14553, "length":481, "chan":0, },
		{"command": "note", "pitch":40, "vel":37, "pos":20671, "length":1981, "chan":0, },
		{"command": "note", "pitch":43, "vel":44, "pos":21120, "length":1560, "chan":0, },
		{"command": "note", "pitch":47, "vel":45, "pos":21590, "length":1055, "chan":0, },
		{"command": "note", "pitch":43, "vel":71, "pos":23286, "length":1456, "chan":0, },
		{"command": "note", "pitch":48, "vel":83, "pos":24359, "length":486, "chan":0, },
		{"command": "note", "pitch":48, "vel":70, "pos":25830, "length":745, "chan":0, },
		{"command": "note", "pitch":52, "vel":65, "pos":26137, "length":470, "chan":0, },
		{"command": "note", "pitch":52, "vel":68, "pos":27311, "length":946, "chan":0, },
		{"command": "note", "pitch":55, "vel":79, "pos":27800, "length":462, "chan":0, },
		{"command": "note", "pitch":55, "vel":85, "pos":28979, "length":632, "chan":0, },
		{"command": "note", "pitch":59, "vel":66, "pos":29283, "length":368, "chan":0, },
		{"command": "note", "pitch":59, "vel":79, "pos":30087, "length":778, "chan":0, },
		{"command": "note", "pitch":60, "vel":82, "pos":30510, "length":388, "chan":0, },
		{"command": "note", "pitch":60, "vel":82, "pos":31471, "length":561, "chan":0, },
		{"command": "note", "pitch":64, "vel":74, "pos":31740, "length":343, "chan":0, },
		{"command": "note", "pitch":72, "vel":53, "pos":37431, "length":1092, "chan":0, },
		{"command": "note", "pitch":71, "vel":55, "pos":37869, "length":699, "chan":0, },
		{"command": "note", "pitch":71, "vel":57, "pos":38997, "length":989, "chan":0, },
		{"command": "note", "pitch":67, "vel":54, "pos":39371, "length":664, "chan":0, },
		{"command": "note", "pitch":67, "vel":60, "pos":40323, "length":633, "chan":0, },
		{"command": "note", "pitch":64, "vel":56, "pos":40774, "length":253, "chan":0, },
		{"command": "note", "pitch":64, "vel":38, "pos":41475, "length":575, "chan":0, },
		{"command": "note", "pitch":60, "vel":49, "pos":41830, "length":278, "chan":0, },
		{"command": "note", "pitch":64, "vel":71, "pos":42341, "length":659, "chan":0, },
		{"command": "note", "pitch":60, "vel":54, "pos":42638, "length":450, "chan":0, },
		{"command": "note", "pitch":60, "vel":68, "pos":43678, "length":657, "chan":0, },
		{"command": "note", "pitch":59, "vel":43, "pos":43976, "length":399, "chan":0, },
		{"command": "note", "pitch":60, "vel":68, "pos":44611, "length":683, "chan":0, },
		{"command": "note", "pitch":59, "vel":46, "pos":44844, "length":509, "chan":0, },
		{"command": "note", "pitch":59, "vel":66, "pos":45631, "length":576, "chan":0, },
		{"command": "note", "pitch":59, "vel":80, "pos":46428, "length":958, "chan":0, },
		{"command": "note", "pitch":55, "vel":61, "pos":46816, "length":573, "chan":0, },
		{"command": "note", "pitch":55, "vel":59, "pos":47695, "length":1002, "chan":0, },
		{"command": "note", "pitch":52, "vel":61, "pos":48178, "length":549, "chan":0, },
		{"command": "note", "pitch":69, "vel":39, "pos":54228, "length":1151, "chan":0, },
		{"command": "note", "pitch":67, "vel":31, "pos":54684, "length":671, "chan":0, },
		{"command": "note", "pitch":67, "vel":42, "pos":55749, "length":788, "chan":0, },
		{"command": "note", "pitch":64, "vel":35, "pos":56200, "length":400, "chan":0, },
		{"command": "note", "pitch":64, "vel":46, "pos":57155, "length":883, "chan":0, },
		{"command": "note", "pitch":60, "vel":52, "pos":57680, "length":401, "chan":0, },
		{"command": "note", "pitch":60, "vel":50, "pos":58558, "length":1390, "chan":0, },
		{"command": "note", "pitch":59, "vel":49, "pos":59529, "length":478, "chan":0, },
		{"command": "note", "pitch":59, "vel":63, "pos":60771, "length":1772, "chan":0, },
		{"command": "note", "pitch":55, "vel":57, "pos":62111, "length":424, "chan":0, },
		{"command": "note", "pitch":55, "vel":71, "pos":63469, "length":831, "chan":0, },
		{"command": "note", "pitch":52, "vel":64, "pos":63881, "length":419, "chan":0, },
		{"command": "pedal", "value":0, "pos":3840, "chan":0, },
		{"command": "pedal", "value":127, "pos":4559, "chan":0, },
		{"command": "pedal", "value":0, "pos":19200, "chan":0, },
		{"command": "pedal", "value":127, "pos":20160, "chan":0, },
		{"command": "pedal", "value":0, "pos":34560, "chan":0, },
		{"command": "pedal", "value":127, "pos":36240, "chan":0, },
		{"command": "pedal", "value":0, "pos":50983, "chan":0, },
		{"command": "pedal", "value":127, "pos":51840, "chan":0, },
		{"command": "pedal", "value":0, "pos":67200, "chan":0, },
	],
	[
		{"command": "keyswitch", "ks_type": "articulation", "pos":20, "index":1},
		{"command": "keyswitch", "ks_type": "speed", "pos":20, "index":1},
		{"command": "keyswitch", "ks_type": "direction", "pos":20, "index":0},
		{"command": "keyswitch", "ks_type": "direction", "pos":20, "index":0},
		{"command": "keyswitch", "ks_type": "legato", "pos":20, "index":3},
		{"command": "keyswitch", "ks_type": "legato", "pos":20, "index":3},
		{"command": "note", "pitch":60, "vel":1, "pos":960, "length":7499, "chan":0, },
		{"command": "note", "pitch":58, "vel":1, "pos":980, "length":7466, "chan":0, },
		{"command": "note", "pitch":55, "vel":1, "pos":980, "length":7390, "chan":0, },
		{"command": "note", "pitch":62, "vel":1, "pos":2228, "length":1385, "chan":0, },
		{"command": "note", "pitch":65, "vel":1, "pos":2238, "length":1495, "chan":0, },
		{"command": "note", "pitch":62, "vel":1, "pos":5995, "length":1385, "chan":0, },
		{"command": "note", "pitch":65, "vel":1, "pos":6005, "length":1495, "chan":0, },
		{"command": "note", "pitch":67, "vel":1, "pos":6005, "length":1495, "chan":0, },
		{"command": "note", "pitch":60, "vel":87, "pos":8640, "length":7161, "chan":0, },
		{"command": "note", "pitch":57, "vel":87, "pos":8645, "length":7160, "chan":0, },
		{"command": "note", "pitch":53, "vel":87, "pos":8660, "length":7133, "chan":0, },
		{"command": "note", "pitch":58, "vel":87, "pos":8660, "length":7231, "chan":0, },
		{"command": "note", "pitch":62, "vel":86, "pos":9908, "length":1385, "chan":0, },
		{"command": "note", "pitch":65, "vel":87, "pos":9918, "length":1495, "chan":0, },
		{"command": "note", "pitch":62, "vel":46, "pos":13675, "length":1385, "chan":0, },
		{"command": "note", "pitch":65, "vel":47, "pos":13685, "length":1495, "chan":0, },
		{"command": "note", "pitch":67, "vel":47, "pos":13685, "length":1495, "chan":0, },
		{"command": "note", "pitch":55, "vel":1, "pos":16300, "length":7349, "chan":0, },
		{"command": "note", "pitch":60, "vel":1, "pos":16302, "length":7447, "chan":0, },
		{"command": "note", "pitch":51, "vel":1, "pos":16340, "length":7309, "chan":0, },
		{"command": "note", "pitch":58, "vel":1, "pos":16340, "length":7409, "chan":0, },
		{"command": "note", "pitch":65, "vel":1, "pos":17598, "length":1495, "chan":0, },
		{"command": "note", "pitch":62, "vel":1, "pos":17728, "length":1245, "chan":0, },
		{"command": "note", "pitch":62, "vel":36, "pos":21355, "length":1385, "chan":0, },
		{"command": "note", "pitch":65, "vel":37, "pos":21365, "length":1495, "chan":0, },
		{"command": "note", "pitch":70, "vel":37, "pos":21365, "length":1495, "chan":0, },
		{"command": "note", "pitch":55, "vel":107, "pos":23980, "length":7500, "chan":0, },
		{"command": "note", "pitch":57, "vel":107, "pos":23982, "length":7598, "chan":0, },
		{"command": "note", "pitch":53, "vel":107, "pos":24020, "length":7317, "chan":0, },
		{"command": "note", "pitch":58, "vel":107, "pos":24020, "length":7560, "chan":0, },
		{"command": "note", "pitch":62, "vel":86, "pos":25268, "length":1385, "chan":0, },
		{"command": "note", "pitch":65, "vel":87, "pos":25278, "length":1495, "chan":0, },
		{"command": "note", "pitch":62, "vel":1, "pos":29035, "length":1385, "chan":0, },
		{"command": "note", "pitch":65, "vel":1, "pos":29045, "length":1495, "chan":0, },
		{"command": "note", "pitch":69, "vel":1, "pos":29045, "length":1495, "chan":0, },
	],
	[
		{"command": "note", "pitch":45, "vel":96, "pos":1440, "length":960, "chan":0, },
		{"command": "note", "pitch":55, "vel":96, "pos":3840, "length":960, "chan":0, },
		{"command": "note", "pitch":64, "vel":96, "pos":7680, "length":1440, "chan":0, },
	],
	[
		{"command": "note", "pitch":45, "vel":96, "pos":1440, "length":960, "chan":0, },
		{"command": "note", "pitch":55, "vel":96, "pos":3840, "length":960, "chan":0, },
		{"command": "note", "pitch":64, "vel":96, "pos":7680, "length":1440, "chan":0, },
	],
	[
		{"command": "keyswitch", "ks_type": "legato", "pos":0, "index":3},
		{"command": "keyswitch", "ks_type": "speed", "pos":0, "index":1},
		{"command": "keyswitch", "ks_type": "speed", "pos":0, "index":1},
		{"command": "keyswitch", "ks_type": "speed", "pos":0, "index":1},
		{"command": "keyswitch", "ks_type": "legato", "pos":0, "index":3},
		{"command": "keyswitch", "ks_type": "legato", "pos":0, "index":1},
		{"command": "note", "pitch":48, "vel":75, "pos":1899, "length":15381, "chan":0, },
		{"command": "note", "pitch":50, "vel":75, "pos":1920, "length":15360, "chan":0, },
		{"command": "note", "pitch":60, "vel":75, "pos":2880, "length":960, "chan":0, },
		{"command": "note", "pitch":62, "vel":75, "pos":2880, "length":960, "chan":0, },
		{"command": "note", "pitch":60, "vel":75, "pos":4800, "length":960, "chan":0, },
		{"command": "note", "pitch":62, "vel":75, "pos":4800, "length":960, "chan":0, },
		{"command": "note", "pitch":60, "vel":75, "pos":6720, "length":960, "chan":0, },
		{"command": "note", "pitch":62, "vel":75, "pos":6720, "length":960, "chan":0, },
		{"command": "note", "pitch":60, "vel":75, "pos":8640, "length":1920, "chan":0, },
		{"command": "note", "pitch":62, "vel":75, "pos":8640, "length":1920, "chan":0, },
		{"command": "note", "pitch":60, "vel":75, "pos":11520, "length":960, "chan":0, },
		{"command": "note", "pitch":62, "vel":75, "pos":11520, "length":960, "chan":0, },
		{"command": "note", "pitch":60, "vel":75, "pos":13440, "length":960, "chan":0, },
		{"command": "note", "pitch":62, "vel":75, "pos":13440, "length":960, "chan":0, },
		{"command": "note", "pitch":60, "vel":75, "pos":15360, "length":960, "chan":0, },
		{"command": "note", "pitch":62, "vel":75, "pos":15360, "length":960, "chan":0, },
		{"command": "keyswitch", "ks_type": "legato", "pos":16947, "index":1},
	],
	[
		{"command": "keyswitch", "ks_type": "legato", "pos":0, "index":1},
		{"command": "keyswitch", "ks_type": "speed", "pos":0, "index":1},
		{"command": "keyswitch", "ks_type": "speed", "pos":0, "index":1},
		{"command": "keyswitch", "ks_type": "speed", "pos":0, "index":1},
		{"command": "keyswitch", "ks_type": "legato", "pos":0, "index":3},
		{"command": "keyswitch", "ks_type": "legato", "pos":0, "index":1},
		{"command": "note", "pitch":53, "vel":55, "pos":4535, "length":283, "chan":0, },
		{"command": "note", "pitch":60, "vel":62, "pos":4551, "length":280, "chan":0, },
		{"command": "note", "pitch":57, "vel":69, "pos":4570, "length":222, "chan":0, },
		{"command": "note", "pitch":53, "vel":63, "pos":6208, "length":1073, "chan":0, },
		{"command": "note", "pitch":58, "vel":65, "pos":6218, "length":1126, "chan":0, },
		{"command": "note", "pitch":62, "vel":71, "pos":6220, "length":1080, "chan":0, },
		{"command": "note", "pitch":57, "vel":86, "pos":8105, "length":1185, "chan":0, },
		{"command": "note", "pitch":60, "vel":87, "pos":8106, "length":1197, "chan":0, },
		{"command": "note", "pitch":53, "vel":80, "pos":8107, "length":1165, "chan":0, },
		{"command": "note", "pitch":52, "vel":74, "pos":10112, "length":1326, "chan":0, },
		{"command": "note", "pitch":55, "vel":74, "pos":10114, "length":1367, "chan":0, },
		{"command": "note", "pitch":58, "vel":83, "pos":10115, "length":1369, "chan":0, },
		{"command": "note", "pitch":60, "vel":82, "pos":10117, "length":1372, "chan":0, },
		{"command": "note", "pitch":53, "vel":63, "pos":11845, "length":2229, "chan":0, },
		{"command": "note", "pitch":60, "vel":59, "pos":11861, "length":2206, "chan":0, },
		{"command": "note", "pitch":57, "vel":65, "pos":11879, "length":2168, "chan":0, },
		{"command": "keyswitch", "ks_type": "legato", "pos":14547, "index":1},
		{"command": "pedal", "value":127, "pos":3179, "chan":0, },
		{"command": "pedal", "value":0, "pos":6314, "chan":0, },
		{"command": "pedal", "value":127, "pos":6887, "chan":0, },
		{"command": "pedal", "value":0, "pos":8227, "chan":0, },
		{"command": "pedal", "value":127, "pos":8900, "chan":0, },
		{"command": "pedal", "value":0, "pos":10146, "chan":0, },
		{"command": "pedal", "value":127, "pos":11095, "chan":0, },
		{"command": "pedal", "value":0, "pos":11953, "chan":0, },
		{"command": "pedal", "value":127, "pos":13415, "chan":0, },
		{"command": "pedal", "value":0, "pos":15919, "chan":0, },
	],
	[
		{"command": "keyswitch", "ks_type": "articulation", "pos":0, "index":1},
		{"command": "keyswitch", "ks_type": "speed", "pos":0, "index":1},
		{"command": "keyswitch", "ks_type": "speed", "pos":0, "index":1},
		{"command": "keyswitch", "ks_type": "speed", "pos":0, "index":1},
		{"command": "keyswitch", "ks_type": "legato", "pos":0, "index":3},
		{"command": "keyswitch", "ks_type": "legato", "pos":0, "index":1},
		{"command": "note", "pitch":60, "vel":72, "pos":1920, "length":1374, "chan":0, },
		{"command": "note", "pitch":72, "vel":62, "pos":1920, "length":28800, "chan":0, },
		{"command": "note", "pitch":57, "vel":79, "pos":1939, "length":1374, "chan":0, },
		{"command": "note", "pitch":60, "vel":72, "pos":5707, "length":1134, "chan":0, },
		{"command": "note", "pitch":59, "vel":79, "pos":5718, "length":1134, "chan":0, },
		{"command": "note", "pitch":60, "vel":72, "pos":9600, "length":1374, "chan":0, },
		{"command": "note", "pitch":57, "vel":79, "pos":9619, "length":1374, "chan":0, },
		{"command": "note", "pitch":62, "vel":72, "pos":13392, "length":1121, "chan":0, },
		{"command": "note", "pitch":59, "vel":79, "pos":13411, "length":1121, "chan":0, },
		{"command": "note", "pitch":60, "vel":72, "pos":17261, "length":1374, "chan":0, },
		{"command": "note", "pitch":57, "vel":79, "pos":17280, "length":1374, "chan":0, },
		{"command": "note", "pitch":60, "vel":72, "pos":21042, "length":1140, "chan":0, },
		{"command": "note", "pitch":59, "vel":79, "pos":21053, "length":1140, "chan":0, },
		{"command": "note", "pitch":60, "vel":72, "pos":24941, "length":1374, "chan":0, },
		{"command": "note", "pitch":57, "vel":79, "pos":24960, "length":1374, "chan":0, },
		{"command": "note", "pitch":62, "vel":72, "pos":28764, "length":1090, "chan":0, },
		{"command": "note", "pitch":59, "vel":79, "pos":28783, "length":1090, "chan":0, },
	],
	[
		{"command": "note", "pitch":45, "vel":96, "pos":1440, "length":960, "chan":0, },
		{"command": "note", "pitch":55, "vel":96, "pos":3840, "length":960, "chan":0, },
		{"command": "note", "pitch":64, "vel":96, "pos":7680, "length":1440, "chan":0, },
	],
	[
		{"command": "note", "pitch":45, "vel":96, "pos":1440, "length":960, "chan":0, },
		{"command": "note", "pitch":55, "vel":96, "pos":3840, "length":960, "chan":0, },
		{"command": "note", "pitch":64, "vel":96, "pos":7680, "length":1440, "chan":0, },
	],
	[
		{"command": "note", "pitch":45, "vel":96, "pos":1440, "length":960, "chan":0, },
		{"command": "note", "pitch":55, "vel":96, "pos":3840, "length":960, "chan":0, },
		{"command": "note", "pitch":64, "vel":96, "pos":7680, "length":1440, "chan":0, },
	],
	[
		{"command": "keyswitch", "ks_type": "articulation", "pos":0, "index":1},
		{"command": "keyswitch", "ks_type": "speed", "pos":0, "index":1},
		{"command": "keyswitch", "ks_type": "speed", "pos":0, "index":1},
		{"command": "keyswitch", "ks_type": "speed", "pos":0, "index":1},
		{"command": "keyswitch", "ks_type": "legato", "pos":0, "index":3},
		{"command": "keyswitch", "ks_type": "legato", "pos":0, "index":1},
		{"command": "note", "pitch":66, "vel":76, "pos":1848, "length":12552, "chan":0, },
		{"command": "note", "pitch":61, "vel":76, "pos":1920, "length":3715, "chan":0, },
		{"command": "note", "pitch":69, "vel":76, "pos":1920, "length":3718, "chan":0, },
		{"command": "note", "pitch":70, "vel":76, "pos":5684, "length":3855, "chan":0, },
		{"command": "note", "pitch":62, "vel":76, "pos":5684, "length":3855, "chan":0, },
		{"command": "note", "pitch":61, "vel":76, "pos":9553, "length":3664, "chan":0, },
		{"command": "note", "pitch":69, "vel":76, "pos":9553, "length":3667, "chan":0, },
		{"command": "note", "pitch":70, "vel":76, "pos":13236, "length":3858, "chan":0, },
		{"command": "note", "pitch":65, "vel":76, "pos":13236, "length":3858, "chan":0, },
		{"command": "note", "pitch":62, "vel":76, "pos":13267, "length":3827, "chan":0, },
		{"command": "note", "pitch":58, "vel":76, "pos":13267, "length":3827, "chan":0, },
		{"command": "note", "pitch":66, "vel":76, "pos":17265, "length":11501, "chan":0, },
		{"command": "note", "pitch":61, "vel":76, "pos":17280, "length":3715, "chan":0, },
		{"command": "note", "pitch":69, "vel":76, "pos":17280, "length":3718, "chan":0, },
		{"command": "note", "pitch":70, "vel":76, "pos":21044, "length":3855, "chan":0, },
		{"command": "note", "pitch":62, "vel":76, "pos":21044, "length":3855, "chan":0, },
		{"command": "note", "pitch":61, "vel":76, "pos":24913, "length":3728, "chan":0, },
		{"command": "note", "pitch":69, "vel":76, "pos":24913, "length":3731, "chan":0, },
		{"command": "note", "pitch":70, "vel":76, "pos":28682, "length":3899, "chan":0, },
		{"command": "note", "pitch":61, "vel":76, "pos":28682, "length":3899, "chan":0, },
		{"command": "note", "pitch":69, "vel":76, "pos":28682, "length":3899, "chan":0, },
		{"command": "note", "pitch":64, "vel":76, "pos":28713, "length":3868, "chan":0, },
	],
	[
		{"command": "keyswitch", "ks_type": "legato", "pos":0, "index":1},
		{"command": "keyswitch", "ks_type": "speed", "pos":0, "index":1},
		{"command": "keyswitch", "ks_type": "speed", "pos":0, "index":1},
		{"command": "keyswitch", "ks_type": "speed", "pos":0, "index":1},
		{"command": "keyswitch", "ks_type": "legato", "pos":0, "index":3},
		{"command": "keyswitch", "ks_type": "legato", "pos":0, "index":1},
		{"command": "note", "pitch":56, "vel":76, "pos":1885, "length":7649, "chan":0, },
		{"command": "note", "pitch":51, "vel":76, "pos":1920, "length":2019, "chan":0, },
		{"command": "note", "pitch":60, "vel":76, "pos":1920, "length":1859, "chan":0, },
		{"command": "note", "pitch":61, "vel":76, "pos":3793, "length":3835, "chan":0, },
		{"command": "note", "pitch":53, "vel":76, "pos":3948, "length":1812, "chan":0, },
		{"command": "note", "pitch":51, "vel":76, "pos":5760, "length":3774, "chan":0, },
		{"command": "note", "pitch":60, "vel":76, "pos":7647, "length":3873, "chan":0, },
		{"command": "note", "pitch":49, "vel":76, "pos":9600, "length":1920, "chan":0, },
		{"command": "note", "pitch":53, "vel":76, "pos":9600, "length":3840, "chan":0, },
		{"command": "note", "pitch":58, "vel":76, "pos":9600, "length":3840, "chan":0, },
		{"command": "note", "pitch":61, "vel":76, "pos":11520, "length":3840, "chan":0, },
		{"command": "note", "pitch":51, "vel":76, "pos":13440, "length":3713, "chan":0, },
		{"command": "note", "pitch":55, "vel":76, "pos":13440, "length":3760, "chan":0, },
		{"command": "note", "pitch":60, "vel":76, "pos":15360, "length":1762, "chan":0, },
		{"command": "note", "pitch":56, "vel":76, "pos":17280, "length":7680, "chan":0, },
		{"command": "note", "pitch":51, "vel":76, "pos":17280, "length":1995, "chan":0, },
		{"command": "note", "pitch":60, "vel":76, "pos":17280, "length":1920, "chan":0, },
		{"command": "note", "pitch":61, "vel":76, "pos":19200, "length":3840, "chan":0, },
		{"command": "note", "pitch":53, "vel":76, "pos":19332, "length":1788, "chan":0, },
		{"command": "note", "pitch":51, "vel":76, "pos":21120, "length":3840, "chan":0, },
		{"command": "note", "pitch":63, "vel":76, "pos":23040, "length":1854, "chan":0, },
		{"command": "note", "pitch":60, "vel":76, "pos":23040, "length":1892, "chan":0, },
		{"command": "note", "pitch":60, "vel":76, "pos":24960, "length":1920, "chan":0, },
		{"command": "note", "pitch":49, "vel":76, "pos":24995, "length":1920, "chan":0, },
		{"command": "note", "pitch":53, "vel":76, "pos":24995, "length":3745, "chan":0, },
		{"command": "note", "pitch":58, "vel":76, "pos":24995, "length":3745, "chan":0, },
		{"command": "note", "pitch":61, "vel":76, "pos":26915, "length":3840, "chan":0, },
		{"command": "note", "pitch":51, "vel":76, "pos":28800, "length":3822, "chan":0, },
		{"command": "note", "pitch":55, "vel":76, "pos":28800, "length":3822, "chan":0, },
		{"command": "note", "pitch":60, "vel":76, "pos":30755, "length":3805, "chan":0, },
		{"command": "note", "pitch":53, "vel":76, "pos":32640, "length":3840, "chan":0, },
		{"command": "note", "pitch":56, "vel":76, "pos":32640, "length":3840, "chan":0, },
		{"command": "note", "pitch":61, "vel":76, "pos":34560, "length":3840, "chan":0, },
		{"command": "note", "pitch":58, "vel":76, "pos":36480, "length":3840, "chan":0, },
		{"command": "note", "pitch":55, "vel":76, "pos":36480, "length":3840, "chan":0, },
		{"command": "note", "pitch":63, "vel":76, "pos":38400, "length":5520, "chan":0, },
		{"command": "note", "pitch":60, "vel":76, "pos":40320, "length":30720, "chan":0, },
		{"command": "note", "pitch":56, "vel":76, "pos":40320, "length":30720, "chan":0, },
		{"command": "note", "pitch":67, "vel":76, "pos":40320, "length":3600, "chan":0, },
		{"command": "note", "pitch":65, "vel":76, "pos":44160, "length":3600, "chan":0, },
		{"command": "note", "pitch":53, "vel":76, "pos":44160, "length":3600, "chan":0, },
		{"command": "note", "pitch":61, "vel":76, "pos":44160, "length":3600, "chan":0, },
		{"command": "note", "pitch":63, "vel":76, "pos":48000, "length":3600, "chan":0, },
		{"command": "note", "pitch":67, "vel":76, "pos":48000, "length":3600, "chan":0, },
		{"command": "note", "pitch":53, "vel":76, "pos":51840, "length":3600, "chan":0, },
		{"command": "note", "pitch":63, "vel":76, "pos":51840, "length":7440, "chan":0, },
		{"command": "note", "pitch":65, "vel":76, "pos":51840, "length":3600, "chan":0, },
		{"command": "note", "pitch":67, "vel":76, "pos":55680, "length":3600, "chan":0, },
		{"command": "note", "pitch":65, "vel":76, "pos":59520, "length":3600, "chan":0, },
		{"command": "note", "pitch":53, "vel":76, "pos":59520, "length":3600, "chan":0, },
		{"command": "note", "pitch":61, "vel":76, "pos":59520, "length":3600, "chan":0, },
		{"command": "note", "pitch":63, "vel":76, "pos":63360, "length":3600, "chan":0, },
		{"command": "note", "pitch":67, "vel":76, "pos":63360, "length":3600, "chan":0, },
		{"command": "note", "pitch":53, "vel":76, "pos":67200, "length":3600, "chan":0, },
		{"command": "note", "pitch":63, "vel":76, "pos":67200, "length":3600, "chan":0, },
		{"command": "note", "pitch":65, "vel":76, "pos":67200, "length":3600, "chan":0, },
	],
	[
		{"command": "keyswitch", "ks_type": "speed", "pos":0, "index":1},
		{"command": "keyswitch", "ks_type": "direction", "pos":0, "index":0},
		{"command": "keyswitch", "ks_type": "direction", "pos":0, "index":2},
		{"command": "keyswitch", "ks_type": "direction", "pos":0, "index":2},
		{"command": "keyswitch", "ks_type": "direction", "pos":0, "index":2},
		{"command": "keyswitch", "ks_type": "direction", "pos":0, "index":2},
		{"command": "note", "pitch":60, "vel":6, "pos":1889, "length":991, "chan":0, },
		{"command": "note", "pitch":63, "vel":6, "pos":1920, "length":960, "chan":0, },
		{"command": "note", "pitch":60, "vel":26, "pos":4769, "length":991, "chan":0, },
		{"command": "note", "pitch":63, "vel":26, "pos":4800, "length":960, "chan":0, },
		{"command": "note", "pitch":60, "vel":66, "pos":7649, "length":991, "chan":0, },
		{"command": "note", "pitch":63, "vel":66, "pos":7680, "length":960, "chan":0, },
		{"command": "note", "pitch":60, "vel":86, "pos":10529, "length":991, "chan":0, },
		{"command": "note", "pitch":63, "vel":86, "pos":10560, "length":960, "chan":0, },
		{"command": "note", "pitch":60, "vel":127, "pos":13409, "length":991, "chan":0, },
		{"command": "note", "pitch":63, "vel":127, "pos":13440, "length":960, "chan":0, },
	],
	[
		{"command": "keyswitch", "ks_type": "speed", "pos":0, "index":1},
		{"command": "keyswitch", "ks_type": "direction", "pos":0, "index":0},
		{"command": "keyswitch", "ks_type": "direction", "pos":0, "index":2},
		{"command": "keyswitch", "ks_type": "direction", "pos":0, "index":2},
		{"command": "keyswitch", "ks_type": "direction", "pos":0, "index":2},
		{"command": "keyswitch", "ks_type": "articulation", "pos":0, "index":2},
		{"command": "note", "pitch":38, "vel":127, "pos":1889, "length":991, "chan":0, },
		{"command": "note", "pitch":41, "vel":127, "pos":1920, "length":960, "chan":0, },
		{"command": "note", "pitch":39, "vel":127, "pos":7649, "length":991, "chan":0, },
		{"command": "note", "pitch":42, "vel":127, "pos":7680, "length":960, "chan":0, },
		{"command": "note", "pitch":38, "vel":127, "pos":11489, "length":991, "chan":0, },
		{"command": "note", "pitch":41, "vel":127, "pos":11520, "length":960, "chan":0, },
		{"command": "note", "pitch":37, "vel":127, "pos":19169, "length":991, "chan":0, },
		{"command": "note", "pitch":41, "vel":127, "pos":19200, "length":960, "chan":0, },
		{"command": "pedal", "value":0, "pos":1200, "chan":0, },
		{"command": "pedal", "value":127, "pos":1920, "chan":0, },
		{"command": "pedal", "value":0, "pos":5760, "chan":0, },
		{"command": "pedal", "value":127, "pos":7680, "chan":0, },
		{"command": "pedal", "value":0, "pos":9600, "chan":0, },
		{"command": "pedal", "value":127, "pos":11520, "chan":0, },
		{"command": "pedal", "value":0, "pos":15360, "chan":0, },
		{"command": "pedal", "value":127, "pos":19200, "chan":0, },
		{"command": "pedal", "value":0, "pos":23040, "chan":0, },
	],
	[
		{"command": "keyswitch", "ks_type": "speed", "pos":0, "index":1},
		{"command": "keyswitch", "ks_type": "direction", "pos":0, "index":0},
		{"command": "keyswitch", "ks_type": "direction", "pos":0, "index":2},
		{"command": "keyswitch", "ks_type": "direction", "pos":0, "index":2},
		{"command": "keyswitch", "ks_type": "direction", "pos":0, "index":2},
		{"command": "keyswitch", "ks_type": "direction", "pos":0, "index":2},
		{"command": "note", "pitch":53, "vel":6, "pos":1889, "length":15391, "chan":0, },
		{"command": "note", "pitch":55, "vel":6, "pos":1920, "length":15360, "chan":0, },
		{"command": "note", "pitch":60, "vel":127, "pos":5725, "length":961, "chan":0, },
		{"command": "note", "pitch":58, "vel":77, "pos":7680, "length":926, "chan":0, },
		{"command": "note", "pitch":58, "vel":57, "pos":11485, "length":961, "chan":0, },
		{"command": "note", "pitch":57, "vel":127, "pos":13440, "length":926, "chan":0, },
	],
	[
		{"command": "keyswitch", "ks_type": "speed", "pos":0, "index":1},
		{"command": "keyswitch", "ks_type": "direction", "pos":0, "index":0},
		{"command": "keyswitch", "ks_type": "direction", "pos":0, "index":2},
		{"command": "keyswitch", "ks_type": "direction", "pos":0, "index":2},
		{"command": "keyswitch", "ks_type": "direction", "pos":0, "index":2},
		{"command": "keyswitch", "ks_type": "articulation", "pos":0, "index":1},
		{"command": "note", "pitch":48, "vel":97, "pos":1889, "length":30716, "chan":0, },
		{"command": "note", "pitch":51, "vel":97, "pos":1920, "length":30685, "chan":0, },
		{"command": "note", "pitch":55, "vel":97, "pos":1920, "length":30685, "chan":0, },
		{"command": "note", "pitch":56, "vel":1, "pos":1920, "length":30685, "chan":0, },
		{"command": "note", "pitch":60, "vel":1, "pos":1920, "length":30685, "chan":0, },
		{"command": "note", "pitch":63, "vel":1, "pos":1920, "length":30685, "chan":0, },
	],
	[
		{"command": "keyswitch", "ks_type": "articulation", "pos":0, "index":1},
		{"command": "keyswitch", "ks_type": "speed", "pos":0, "index":1},
		{"command": "keyswitch", "ks_type": "direction", "pos":0, "index":0},
		{"command": "keyswitch", "ks_type": "direction", "pos":0, "index":2},
		{"command": "keyswitch", "ks_type": "direction", "pos":0, "index":2},
		{"command": "keyswitch", "ks_type": "direction", "pos":0, "index":2},
		{"command": "note", "pitch":65, "vel":87, "pos":0, "length":7596, "chan":0, },
		{"command": "note", "pitch":68, "vel":1, "pos":1, "length":479, "chan":0, },
		{"command": "note", "pitch":60, "vel":1, "pos":960, "length":480, "chan":0, },
		{"command": "note", "pitch":68, "vel":127, "pos":2880, "length":480, "chan":0, },
		{"command": "note", "pitch":60, "vel":127, "pos":3840, "length":480, "chan":0, },
		{"command": "note", "pitch":67, "vel":61, "pos":5760, "length":480, "chan":0, },
		{"command": "note", "pitch":60, "vel":61, "pos":6720, "length":480, "chan":0, },
		{"command": "note", "pitch":65, "vel":67, "pos":7634, "length":7642, "chan":0, },
		{"command": "note", "pitch":70, "vel":91, "pos":7680, "length":480, "chan":0, },
		{"command": "note", "pitch":61, "vel":41, "pos":8640, "length":414, "chan":0, },
		{"command": "note", "pitch":70, "vel":41, "pos":10560, "length":480, "chan":0, },
		{"command": "note", "pitch":61, "vel":41, "pos":11520, "length":480, "chan":0, },
		{"command": "note", "pitch":68, "vel":51, "pos":13440, "length":480, "chan":0, },
		{"command": "note", "pitch":61, "vel":51, "pos":14400, "length":480, "chan":0, },
	],
	[
		{"command": "keyswitch", "ks_type": "speed", "pos":0, "index":1},
		{"command": "keyswitch", "ks_type": "direction", "pos":0, "index":0},
		{"command": "keyswitch", "ks_type": "direction", "pos":0, "index":0},
		{"command": "keyswitch", "ks_type": "direction", "pos":0, "index":0},
		{"command": "keyswitch", "ks_type": "direction", "pos":0, "index":0},
		{"command": "keyswitch", "ks_type": "articulation", "pos":0, "index":2},
		{"command": "note", "pitch":38, "vel":1, "pos":1889, "length":991, "chan":0, },
		{"command": "note", "pitch":41, "vel":1, "pos":1920, "length":960, "chan":0, },
		{"command": "note", "pitch":57, "vel":1, "pos":2880, "length":960, "chan":0, },
		{"command": "note", "pitch":62, "vel":1, "pos":2880, "length":960, "chan":0, },
		{"command": "note", "pitch":38, "vel":101, "pos":3809, "length":913, "chan":0, },
		{"command": "note", "pitch":41, "vel":101, "pos":3840, "length":882, "chan":0, },
		{"command": "note", "pitch":57, "vel":87, "pos":4800, "length":960, "chan":0, },
		{"command": "note", "pitch":60, "vel":87, "pos":4800, "length":960, "chan":0, },
		{"command": "note", "pitch":38, "vel":1, "pos":5729, "length":3067, "chan":0, },
		{"command": "note", "pitch":40, "vel":1, "pos":5760, "length":3036, "chan":0, },
		{"command": "note", "pitch":57, "vel":107, "pos":6720, "length":2042, "chan":0, },
		{"command": "note", "pitch":60, "vel":107, "pos":6720, "length":2042, "chan":0, },
		{"command": "note", "pitch":38, "vel":127, "pos":9600, "length":932, "chan":0, },
		{"command": "note", "pitch":41, "vel":127, "pos":9600, "length":932, "chan":0, },
		{"command": "note", "pitch":57, "vel":127, "pos":10560, "length":932, "chan":0, },
		{"command": "note", "pitch":62, "vel":127, "pos":10560, "length":932, "chan":0, },
		{"command": "note", "pitch":38, "vel":127, "pos":11520, "length":932, "chan":0, },
		{"command": "note", "pitch":41, "vel":127, "pos":11520, "length":932, "chan":0, },
		{"command": "note", "pitch":64, "vel":97, "pos":12480, "length":7200, "chan":0, },
		{"command": "note", "pitch":62, "vel":97, "pos":12480, "length":7200, "chan":0, },
		{"command": "note", "pitch":36, "vel":127, "pos":13440, "length":6240, "chan":0, },
		{"command": "note", "pitch":40, "vel":127, "pos":13440, "length":6240, "chan":0, },
		{"command": "note", "pitch":57, "vel":7, "pos":14400, "length":5280, "chan":0, },
		{"command": "note", "pitch":58, "vel":7, "pos":14400, "length":5280, "chan":0, },
	],
	[
		{"command": "keyswitch", "ks_type": "articulation", "pos":0, "index":2},
		{"command": "keyswitch", "ks_type": "speed", "pos":0, "index":1},
		{"command": "keyswitch", "ks_type": "direction", "pos":0, "index":0},
		{"command": "keyswitch", "ks_type": "direction", "pos":0, "index":0},
		{"command": "keyswitch", "ks_type": "direction", "pos":0, "index":0},
		{"command": "keyswitch", "ks_type": "direction", "pos":0, "index":0},
		{"command": "note", "pitch":67, "vel":21, "pos":7528, "length":1384, "chan":0, },
		{"command": "note", "pitch":63, "vel":21, "pos":7680, "length":1200, "chan":0, },
		{"command": "note", "pitch":60, "vel":21, "pos":8182, "length":720, "chan":0, },
		{"command": "note", "pitch":68, "vel":115, "pos":11316, "length":861, "chan":0, },
		{"command": "note", "pitch":67, "vel":127, "pos":11520, "length":592, "chan":0, },
		{"command": "note", "pitch":67, "vel":21, "pos":15208, "length":1384, "chan":0, },
		{"command": "note", "pitch":62, "vel":21, "pos":15360, "length":1200, "chan":0, },
		{"command": "note", "pitch":58, "vel":21, "pos":15862, "length":720, "chan":0, },
		{"command": "note", "pitch":68, "vel":115, "pos":18996, "length":861, "chan":0, },
		{"command": "note", "pitch":67, "vel":109, "pos":19200, "length":592, "chan":0, },
		{"command": "note", "pitch":67, "vel":11, "pos":22888, "length":1384, "chan":0, },
		{"command": "note", "pitch":63, "vel":11, "pos":23040, "length":1200, "chan":0, },
		{"command": "note", "pitch":60, "vel":11, "pos":23444, "length":818, "chan":0, },
		{"command": "note", "pitch":56, "vel":11, "pos":23520, "length":889, "chan":0, },
		{"command": "note", "pitch":68, "vel":115, "pos":26676, "length":861, "chan":0, },
		{"command": "note", "pitch":67, "vel":109, "pos":26880, "length":592, "chan":0, },
		{"command": "note", "pitch":67, "vel":11, "pos":30568, "length":1384, "chan":0, },
		{"command": "note", "pitch":62, "vel":11, "pos":30720, "length":1200, "chan":0, },
		{"command": "note", "pitch":58, "vel":11, "pos":31222, "length":720, "chan":0, },
		{"command": "note", "pitch":68, "vel":65, "pos":34356, "length":861, "chan":0, },
		{"command": "note", "pitch":67, "vel":59, "pos":34560, "length":592, "chan":0, },
		{"command": "note", "pitch":67, "vel":11, "pos":38248, "length":1384, "chan":0, },
		{"command": "keyswitch", "ks_type": "legato", "pos":38290, "index":3},
		{"command": "note", "pitch":63, "vel":11, "pos":38400, "length":1200, "chan":0, },
		{"command": "note", "pitch":60, "vel":11, "pos":38902, "length":720, "chan":0, },
		{"command": "note", "pitch":68, "vel":115, "pos":42036, "length":861, "chan":0, },
		{"command": "note", "pitch":67, "vel":109, "pos":42240, "length":592, "chan":0, },
		{"command": "note", "pitch":67, "vel":11, "pos":45928, "length":1384, "chan":0, },
		{"command": "note", "pitch":62, "vel":11, "pos":46080, "length":1200, "chan":0, },
		{"command": "note", "pitch":58, "vel":11, "pos":46582, "length":720, "chan":0, },
		{"command": "note", "pitch":68, "vel":127, "pos":49716, "length":861, "chan":0, },
		{"command": "note", "pitch":67, "vel":127, "pos":49920, "length":592, "chan":0, },
		{"command": "note", "pitch":67, "vel":31, "pos":53608, "length":1384, "chan":0, },
		{"command": "note", "pitch":63, "vel":31, "pos":53760, "length":1200, "chan":0, },
		{"command": "note", "pitch":60, "vel":31, "pos":54262, "length":720, "chan":0, },
		{"command": "note", "pitch":56, "vel":31, "pos":54409, "length":720, "chan":0, },
		{"command": "note", "pitch":68, "vel":115, "pos":57396, "length":861, "chan":0, },
		{"command": "note", "pitch":67, "vel":127, "pos":57600, "length":592, "chan":0, },
		{"command": "note", "pitch":67, "vel":50, "pos":61288, "length":1384, "chan":0, },
		{"command": "note", "pitch":62, "vel":45, "pos":61440, "length":1200, "chan":0, },
		{"command": "note", "pitch":59, "vel":60, "pos":61942, "length":720, "chan":0, },
		{"command": "note", "pitch":71, "vel":115, "pos":65076, "length":861, "chan":0, },
		{"command": "note", "pitch":67, "vel":109, "pos":65280, "length":592, "chan":0, },
		{"command": "keyswitch", "ks_type": "legato", "pos":71040, "index":3},
		{"command": "pedal", "value":127, "pos":7680, "chan":0, },
		{"command": "pedal", "value":0, "pos":13301, "chan":0, },
		{"command": "pedal", "value":127, "pos":15360, "chan":0, },
		{"command": "pedal", "value":0, "pos":20986, "chan":0, },
		{"command": "pedal", "value":127, "pos":23040, "chan":0, },
		{"command": "pedal", "value":0, "pos":28690, "chan":0, },
		{"command": "pedal", "value":127, "pos":30720, "chan":0, },
		{"command": "pedal", "value":0, "pos":36444, "chan":0, },
		{"command": "pedal", "value":127, "pos":38400, "chan":0, },
		{"command": "pedal", "value":0, "pos":46080, "chan":0, },
		{"command": "pedal", "value":127, "pos":46240, "chan":0, },
		{"command": "pedal", "value":0, "pos":53760, "chan":0, },
		{"command": "pedal", "value":127, "pos":53922, "chan":0, },
		{"command": "pedal", "value":0, "pos":61304, "chan":0, },
		{"command": "pedal", "value":127, "pos":61440, "chan":0, },
		{"command": "pedal", "value":0, "pos":69505, "chan":0, },
	],
	[
		{"command": "keyswitch", "ks_type": "legato", "pos":0, "index":3},
		{"command": "keyswitch", "ks_type": "speed", "pos":0, "index":1},
		{"command": "keyswitch", "ks_type": "direction", "pos":0, "index":0},
		{"command": "keyswitch", "ks_type": "legato", "pos":0, "index":0},
		{"command": "keyswitch", "ks_type": "legato", "pos":0, "index":0},
		{"command": "keyswitch", "ks_type": "legato", "pos":0, "index":3},
		{"command": "note", "pitch":53, "vel":1, "pos":1879, "length":7621, "chan":0, },
		{"command": "note", "pitch":56, "vel":1, "pos":1920, "length":7580, "chan":0, },
		{"command": "note", "pitch":60, "vel":37, "pos":2932, "length":2646, "chan":0, },
		{"command": "note", "pitch":61, "vel":61, "pos":5731, "length":1854, "chan":0, },
		{"command": "note", "pitch":60, "vel":61, "pos":5760, "length":1825, "chan":0, },
		{"command": "note", "pitch":63, "vel":97, "pos":7651, "length":5309, "chan":0, },
		{"command": "note", "pitch":60, "vel":97, "pos":7680, "length":5280, "chan":0, },
		{"command": "note", "pitch":51, "vel":1, "pos":9575, "length":7655, "chan":0, },
		{"command": "note", "pitch":56, "vel":1, "pos":9600, "length":7665, "chan":0, },
		{"command": "note", "pitch":61, "vel":21, "pos":13411, "length":1854, "chan":0, },
		{"command": "note", "pitch":60, "vel":21, "pos":13440, "length":1825, "chan":0, },
		{"command": "note", "pitch":63, "vel":77, "pos":15331, "length":1866, "chan":0, },
		{"command": "note", "pitch":60, "vel":77, "pos":15360, "length":1837, "chan":0, },
		{"command": "note", "pitch":53, "vel":1, "pos":17040, "length":7665, "chan":0, },
		{"command": "note", "pitch":65, "vel":127, "pos":17251, "length":3811, "chan":0, },
		{"command": "note", "pitch":49, "vel":1, "pos":17255, "length":7625, "chan":0, },
		{"command": "note", "pitch":51, "vel":1, "pos":17280, "length":7625, "chan":0, },
		{"command": "note", "pitch":60, "vel":127, "pos":17280, "length":3782, "chan":0, },
		{"command": "note", "pitch":61, "vel":61, "pos":21091, "length":1854, "chan":0, },
		{"command": "note", "pitch":60, "vel":61, "pos":21120, "length":1825, "chan":0, },
		{"command": "note", "pitch":63, "vel":97, "pos":23011, "length":1849, "chan":0, },
		{"command": "note", "pitch":60, "vel":97, "pos":23040, "length":1820, "chan":0, },
		{"command": "note", "pitch":61, "vel":61, "pos":24931, "length":3869, "chan":0, },
		{"command": "note", "pitch":48, "vel":1, "pos":24935, "length":7200, "chan":0, },
		{"command": "note", "pitch":51, "vel":1, "pos":24960, "length":7200, "chan":0, },
		{"command": "note", "pitch":60, "vel":61, "pos":24960, "length":7200, "chan":0, },
		{"command": "note", "pitch":56, "vel":127, "pos":28800, "length":3360, "chan":0, },
	],
	[
		{"command": "keyswitch", "ks_type": "articulation", "pos":0, "index":1},
		{"command": "keyswitch", "ks_type": "speed", "pos":0, "index":1},
		{"command": "keyswitch", "ks_type": "direction", "pos":0, "index":0},
		{"command": "keyswitch", "ks_type": "direction", "pos":0, "index":2},
		{"command": "keyswitch", "ks_type": "legato", "pos":0, "index":3},
		{"command": "keyswitch", "ks_type": "legato", "pos":0, "index":1},
		{"command": "note", "pitch":60, "vel":96, "pos":3600, "length":387, "chan":0, },
		{"command": "note", "pitch":63, "vel":96, "pos":3840, "length":180, "chan":0, },
		{"command": "note", "pitch":60, "vel":96, "pos":7440, "length":480, "chan":0, },
		{"command": "note", "pitch":63, "vel":96, "pos":7680, "length":960, "chan":0, },
		{"command": "note", "pitch":60, "vel":96, "pos":11280, "length":480, "chan":0, },
		{"command": "note", "pitch":63, "vel":96, "pos":11520, "length":1789, "chan":0, },
		{"command": "note", "pitch":60, "vel":96, "pos":15120, "length":480, "chan":0, },
		{"command": "note", "pitch":63, "vel":96, "pos":15360, "length":1991, "chan":0, },
		{"command": "note", "pitch":60, "vel":96, "pos":18960, "length":480, "chan":0, },
		{"command": "note", "pitch":63, "vel":96, "pos":19200, "length":2766, "chan":0, },
		{"command": "note", "pitch":60, "vel":96, "pos":22800, "length":480, "chan":0, },
		{"command": "note", "pitch":63, "vel":96, "pos":23040, "length":3840, "chan":0, },
	],
	[
		{"command": "note", "pitch":45, "vel":96, "pos":1440, "length":960, "chan":0, },
		{"command": "note", "pitch":55, "vel":96, "pos":3840, "length":960, "chan":0, },
		{"command": "note", "pitch":64, "vel":96, "pos":7680, "length":1440, "chan":0, },
	],
	[
		{"command": "note", "pitch":45, "vel":96, "pos":1440, "length":960, "chan":0, },
		{"command": "note", "pitch":55, "vel":96, "pos":3840, "length":960, "chan":0, },
		{"command": "note", "pitch":64, "vel":96, "pos":7680, "length":1440, "chan":0, },
	],
	[
		{"command": "note", "pitch":45, "vel":96, "pos":1440, "length":960, "chan":0, },
		{"command": "note", "pitch":55, "vel":96, "pos":3840, "length":960, "chan":0, },
		{"command": "note", "pitch":64, "vel":96, "pos":7680, "length":1440, "chan":0, },
	],
	[
		{"command": "note", "pitch":45, "vel":96, "pos":1440, "length":960, "chan":0, },
		{"command": "note", "pitch":55, "vel":96, "pos":3840, "length":960, "chan":0, },
		{"command": "note", "pitch":64, "vel":96, "pos":7680, "length":1440, "chan":0, },
	],
	[
		{"command": "note", "pitch":45, "vel":96, "pos":1440, "length":960, "chan":0, },
		{"command": "note", "pitch":55, "vel":96, "pos":3840, "length":960, "chan":0, },
		{"command": "note", "pitch":64, "vel":96, "pos":7680, "length":1440, "chan":0, },
	],
	[
		{"command": "note", "pitch":45, "vel":96, "pos":1440, "length":960, "chan":0, },
		{"command": "note", "pitch":55, "vel":96, "pos":3840, "length":960, "chan":0, },
		{"command": "note", "pitch":64, "vel":96, "pos":7680, "length":1440, "chan":0, },
	],
	[
		{"command": "note", "pitch":45, "vel":96, "pos":1440, "length":960, "chan":0, },
		{"command": "note", "pitch":55, "vel":96, "pos":3840, "length":960, "chan":0, },
		{"command": "note", "pitch":64, "vel":96, "pos":7680, "length":1440, "chan":0, },
	],
	[
		{"command": "keyswitch", "ks_type": "legato", "pos":0, "index":1},
		{"command": "keyswitch", "ks_type": "speed", "pos":0, "index":1},
		{"command": "keyswitch", "ks_type": "direction", "pos":0, "index":0},
		{"command": "keyswitch", "ks_type": "direction", "pos":0, "index":2},
		{"command": "keyswitch", "ks_type": "direction", "pos":0, "index":2},
		{"command": "keyswitch", "ks_type": "legato", "pos":0, "index":1},
		{"command": "note", "pitch":53, "vel":96, "pos":1794, "length":1023, "chan":0, },
		{"command": "note", "pitch":59, "vel":96, "pos":1920, "length":897, "chan":0, },
		{"command": "note", "pitch":53, "vel":96, "pos":4674, "length":1840, "chan":0, },
		{"command": "note", "pitch":59, "vel":96, "pos":4800, "length":1714, "chan":0, },
		{"command": "note", "pitch":53, "vel":96, "pos":8514, "length":2880, "chan":0, },
		{"command": "note", "pitch":59, "vel":96, "pos":8640, "length":2754, "chan":0, },
		{"command": "note", "pitch":53, "vel":96, "pos":13314, "length":3857, "chan":0, },
		{"command": "note", "pitch":56, "vel":96, "pos":13440, "length":3731, "chan":0, },
		{"command": "note", "pitch":53, "vel":96, "pos":20034, "length":4884, "chan":0, },
		{"command": "note", "pitch":56, "vel":96, "pos":20160, "length":4758, "chan":0, },
		{"command": "note", "pitch":53, "vel":96, "pos":26796, "length":5760, "chan":0, },
		{"command": "note", "pitch":56, "vel":96, "pos":26922, "length":5634, "chan":0, },
		{"command": "note", "pitch":53, "vel":96, "pos":34434, "length":6703, "chan":0, },
		{"command": "note", "pitch":56, "vel":96, "pos":34560, "length":6577, "chan":0, },
		{"command": "note", "pitch":53, "vel":96, "pos":43074, "length":7674, "chan":0, },
		{"command": "note", "pitch":56, "vel":96, "pos":43200, "length":7548, "chan":0, },
	],
	[
		{"command": "keyswitch", "ks_type": "legato", "pos":0, "index":1},
		{"command": "keyswitch", "ks_type": "speed", "pos":0, "index":1},
		{"command": "keyswitch", "ks_type": "direction", "pos":0, "index":0},
		{"command": "keyswitch", "ks_type": "direction", "pos":0, "index":2},
		{"command": "keyswitch", "ks_type": "direction", "pos":0, "index":2},
		{"command": "keyswitch", "ks_type": "legato", "pos":0, "index":1},
		{"command": "note", "pitch":53, "vel":96, "pos":1794, "length":3863, "chan":0, },
		{"command": "note", "pitch":55, "vel":96, "pos":1920, "length":3737, "chan":0, },
		{"command": "note", "pitch":57, "vel":96, "pos":2815, "length":2850, "chan":0, },
		{"command": "note", "pitch":58, "vel":96, "pos":2880, "length":2785, "chan":0, },
		{"command": "note", "pitch":60, "vel":96, "pos":3775, "length":1890, "chan":0, },
		{"command": "note", "pitch":62, "vel":96, "pos":3840, "length":1825, "chan":0, },
		{"command": "note", "pitch":64, "vel":96, "pos":4735, "length":941, "chan":0, },
		{"command": "note", "pitch":65, "vel":96, "pos":4800, "length":876, "chan":0, },
		{"command": "note", "pitch":65, "vel":96, "pos":7554, "length":3863, "chan":0, },
		{"command": "note", "pitch":64, "vel":96, "pos":7680, "length":3737, "chan":0, },
		{"command": "note", "pitch":62, "vel":96, "pos":8575, "length":2850, "chan":0, },
		{"command": "note", "pitch":60, "vel":96, "pos":8640, "length":2785, "chan":0, },
		{"command": "note", "pitch":58, "vel":96, "pos":9535, "length":1890, "chan":0, },
		{"command": "note", "pitch":57, "vel":96, "pos":9600, "length":1825, "chan":0, },
		{"command": "note", "pitch":55, "vel":96, "pos":10495, "length":941, "chan":0, },
		{"command": "note", "pitch":53, "vel":96, "pos":10560, "length":876, "chan":0, },
		{"command": "note", "pitch":53, "vel":96, "pos":13314, "length":3863, "chan":0, },
		{"command": "note", "pitch":55, "vel":96, "pos":13440, "length":3737, "chan":0, },
		{"command": "note", "pitch":57, "vel":96, "pos":14335, "length":1025, "chan":0, },
		{"command": "note", "pitch":58, "vel":96, "pos":14400, "length":960, "chan":0, },
		{"command": "note", "pitch":57, "vel":96, "pos":18175, "length":3821, "chan":0, },
		{"command": "note", "pitch":58, "vel":96, "pos":18240, "length":3756, "chan":0, },
		{"command": "note", "pitch":53, "vel":96, "pos":19074, "length":971, "chan":0, },
		{"command": "note", "pitch":55, "vel":96, "pos":19200, "length":845, "chan":0, },
	],
	[
		{"command": "note", "pitch":45, "vel":96, "pos":1440, "length":960, "chan":0, },
		{"command": "note", "pitch":55, "vel":96, "pos":3840, "length":960, "chan":0, },
		{"command": "note", "pitch":64, "vel":96, "pos":7680, "length":1440, "chan":0, },
	],
	[
		{"command": "note", "pitch":45, "vel":96, "pos":1440, "length":960, "chan":0, },
		{"command": "note", "pitch":55, "vel":96, "pos":3840, "length":960, "chan":0, },
		{"command": "note", "pitch":64, "vel":96, "pos":7680, "length":1440, "chan":0, },
	],
	[
		{"command": "note", "pitch":45, "vel":96, "pos":1440, "length":960, "chan":0, },
		{"command": "note", "pitch":55, "vel":96, "pos":3840, "length":960, "chan":0, },
		{"command": "note", "pitch":64, "vel":96, "pos":7680, "length":1440, "chan":0, },
	],
	[
		{"command": "note", "pitch":45, "vel":96, "pos":1440, "length":960, "chan":0, },
		{"command": "note", "pitch":55, "vel":96, "pos":3840, "length":960, "chan":0, },
		{"command": "note", "pitch":64, "vel":96, "pos":7680, "length":1440, "chan":0, },
	],
	[
		{"command": "note", "pitch":45, "vel":96, "pos":1440, "length":960, "chan":0, },
		{"command": "note", "pitch":55, "vel":96, "pos":3840, "length":960, "chan":0, },
		{"command": "note", "pitch":64, "vel":96, "pos":7680, "length":1440, "chan":0, },
	],
	[
		{"command": "note", "pitch":45, "vel":96, "pos":1440, "length":960, "chan":0, },
		{"command": "note", "pitch":55, "vel":96, "pos":3840, "length":960, "chan":0, },
		{"command": "note", "pitch":64, "vel":96, "pos":7680, "length":1440, "chan":0, },
	],
	[
		{"command": "keyswitch", "ks_type": "articulation", "pos":0, "index":1},
		{"command": "keyswitch", "ks_type": "speed", "pos":0, "index":1},
		{"command": "keyswitch", "ks_type": "direction", "pos":0, "index":0},
		{"command": "keyswitch", "ks_type": "direction", "pos":0, "index":0},
		{"command": "keyswitch", "ks_type": "legato", "pos":0, "index":1},
		{"command": "keyswitch", "ks_type": "release_sample", "pos":0, "index":0},
		{"command": "note", "pitch":60, "vel":24, "pos":7953, "length":14388, "chan":0, },
		{"command": "note", "pitch":62, "vel":10, "pos":8823, "length":468, "chan":0, },
		{"command": "note", "pitch":62, "vel":38, "pos":10324, "length":12038, "chan":0, },
		{"command": "pedal", "value":127, "pos":4964, "chan":0, },
		{"command": "pedal", "value":0, "pos":24432, "chan":0, },
	],
	[
		{"command": "keyswitch", "ks_type": "articulation", "pos":0, "index":2},
		{"command": "keyswitch", "ks_type": "speed", "pos":0, "index":1},
		{"command": "keyswitch", "ks_type": "direction", "pos":0, "index":0},
		{"command": "keyswitch", "ks_type": "direction", "pos":0, "index":0},
		{"command": "keyswitch", "ks_type": "legato", "pos":0, "index":1},
		{"command": "keyswitch", "ks_type": "release_sample", "pos":0, "index":0},
		{"command": "note", "pitch":68, "vel":40, "pos":5728, "length":192, "chan":0, },
		{"command": "note", "pitch":72, "vel":38, "pos":5760, "length":365, "chan":0, },
		{"command": "note", "pitch":68, "vel":60, "pos":6226, "length":157, "chan":0, },
		{"command": "note", "pitch":72, "vel":69, "pos":6240, "length":1031, "chan":0, },
		{"command": "note", "pitch":72, "vel":40, "pos":11488, "length":192, "chan":0, },
		{"command": "note", "pitch":68, "vel":38, "pos":11520, "length":365, "chan":0, },
		{"command": "note", "pitch":72, "vel":60, "pos":11986, "length":157, "chan":0, },
		{"command": "note", "pitch":68, "vel":69, "pos":12000, "length":1031, "chan":0, },
		{"command": "pedal", "value":127, "pos":5011, "chan":0, },
		{"command": "pedal", "value":0, "pos":26880, "chan":0, },
	],
	[
		{"command": "keyswitch", "ks_type": "articulation", "pos":0, "index":2},
		{"command": "keyswitch", "ks_type": "speed", "pos":0, "index":1},
		{"command": "keyswitch", "ks_type": "direction", "pos":0, "index":0},
		{"command": "keyswitch", "ks_type": "direction", "pos":0, "index":0},
		{"command": "keyswitch", "ks_type": "legato", "pos":0, "index":1},
		{"command": "keyswitch", "ks_type": "release_sample", "pos":0, "index":0},
		{"command": "note", "pitch":54, "vel":31, "pos":6116, "length":714, "chan":0, },
		{"command": "note", "pitch":56, "vel":32, "pos":6462, "length":480, "chan":0, },
		{"command": "note", "pitch":56, "vel":36, "pos":8886, "length":514, "chan":0, },
		{"command": "note", "pitch":57, "vel":47, "pos":9093, "length":291, "chan":0, },
		{"command": "note", "pitch":54, "vel":50, "pos":11896, "length":632, "chan":0, },
		{"command": "note", "pitch":56, "vel":54, "pos":12206, "length":325, "chan":0, },
		{"command": "note", "pitch":56, "vel":46, "pos":17251, "length":1090, "chan":0, },
		{"command": "note", "pitch":61, "vel":40, "pos":17659, "length":738, "chan":0, },
		{"command": "note", "pitch":61, "vel":63, "pos":19437, "length":1044, "chan":0, },
		{"command": "note", "pitch":56, "vel":60, "pos":19733, "length":805, "chan":0, },
		{"command": "note", "pitch":56, "vel":60, "pos":21278, "length":835, "chan":0, },
		{"command": "note", "pitch":61, "vel":54, "pos":21613, "length":501, "chan":0, },
		{"command": "note", "pitch":61, "vel":59, "pos":22676, "length":756, "chan":0, },
		{"command": "note", "pitch":56, "vel":57, "pos":23003, "length":547, "chan":0, },
		{"command": "pedal", "value":127, "pos":4964, "chan":0, },
		{"command": "pedal", "value":0, "pos":32640, "chan":0, },
	],
	[
		{"command": "keyswitch", "ks_type": "release_sample", "pos":0, "index":0},
		{"command": "keyswitch", "ks_type": "speed", "pos":0, "index":1},
		{"command": "keyswitch", "ks_type": "direction", "pos":0, "index":0},
		{"command": "keyswitch", "ks_type": "direction", "pos":0, "index":0},
		{"command": "keyswitch", "ks_type": "legato", "pos":0, "index":1},
		{"command": "keyswitch", "ks_type": "release_sample", "pos":0, "index":0},
		{"command": "note", "pitch":55, "vel":32, "pos":7427, "length":1364, "chan":0, },
		{"command": "note", "pitch":60, "vel":27, "pos":8260, "length":435, "chan":0, },
		{"command": "note", "pitch":55, "vel":40, "pos":9303, "length":1456, "chan":0, },
		{"command": "note", "pitch":60, "vel":17, "pos":9754, "length":1080, "chan":0, },
		{"command": "note", "pitch":60, "vel":42, "pos":13584, "length":3247, "chan":0, },
		{"command": "note", "pitch":63, "vel":53, "pos":15300, "length":1798, "chan":0, },
		{"command": "note", "pitch":67, "vel":58, "pos":15827, "length":1291, "chan":0, },
		{"command": "note", "pitch":67, "vel":69, "pos":17434, "length":4066, "chan":0, },
		{"command": "note", "pitch":63, "vel":65, "pos":17659, "length":3865, "chan":0, },
		{"command": "note", "pitch":60, "vel":59, "pos":18087, "length":3340, "chan":0, },
		{"command": "note", "pitch":55, "vel":63, "pos":21686, "length":3982, "chan":0, },
		{"command": "note", "pitch":60, "vel":72, "pos":22114, "length":3625, "chan":0, },
		{"command": "note", "pitch":63, "vel":103, "pos":22600, "length":2733, "chan":0, },
		{"command": "note", "pitch":63, "vel":103, "pos":25669, "length":5680, "chan":0, },
		{"command": "note", "pitch":62, "vel":86, "pos":26139, "length":5180, "chan":0, },
		{"command": "pedal", "value":127, "pos":4964, "chan":0, },
		{"command": "pedal", "value":0, "pos":27626, "chan":0, },
	],
	[
		{"command": "keyswitch", "ks_type": "articulation", "pos":0, "index":1},
		{"command": "keyswitch", "ks_type": "speed", "pos":0, "index":1},
		{"command": "keyswitch", "ks_type": "direction", "pos":0, "index":0},
		{"command": "keyswitch", "ks_type": "direction", "pos":0, "index":0},
		{"command": "keyswitch", "ks_type": "legato", "pos":0, "index":1},
		{"command": "keyswitch", "ks_type": "release_sample", "pos":0, "index":0},
		{"command": "note", "pitch":55, "vel":36, "pos":8941, "length":4642, "chan":0, },
		{"command": "note", "pitch":57, "vel":34, "pos":9576, "length":4027, "chan":0, },
		{"command": "note", "pitch":58, "vel":49, "pos":11334, "length":2290, "chan":0, },
		{"command": "note", "pitch":55, "vel":43, "pos":14155, "length":21262, "chan":0, },
		{"command": "note", "pitch":57, "vel":50, "pos":14522, "length":20925, "chan":0, },
		{"command": "note", "pitch":58, "vel":76, "pos":15239, "length":20208, "chan":0, },
		{"command": "note", "pitch":60, "vel":57, "pos":19856, "length":2932, "chan":0, },
		{"command": "note", "pitch":62, "vel":78, "pos":20306, "length":2286, "chan":0, },
		{"command": "note", "pitch":60, "vel":82, "pos":23873, "length":3115, "chan":0, },
		{"command": "note", "pitch":62, "vel":88, "pos":24230, "length":2808, "chan":0, },
		{"command": "note", "pitch":60, "vel":82, "pos":27171, "length":2556, "chan":0, },
		{"command": "note", "pitch":62, "vel":80, "pos":27508, "length":2320, "chan":0, },
		{"command": "note", "pitch":62, "vel":79, "pos":30655, "length":6002, "chan":0, },
		{"command": "note", "pitch":64, "vel":93, "pos":31430, "length":6573, "chan":0, },
		{"command": "note", "pitch":64, "vel":83, "pos":39053, "length":4978, "chan":0, },
		{"command": "note", "pitch":65, "vel":79, "pos":39434, "length":4609, "chan":0, },
		{"command": "pedal", "value":127, "pos":5011, "chan":0, },
		{"command": "pedal", "value":0, "pos":54613, "chan":0, },
	],
	[
		{"command": "keyswitch", "ks_type": "articulation", "pos":0, "index":1},
		{"command": "keyswitch", "ks_type": "speed", "pos":0, "index":1},
		{"command": "keyswitch", "ks_type": "direction", "pos":0, "index":0},
		{"command": "keyswitch", "ks_type": "direction", "pos":0, "index":0},
		{"command": "keyswitch", "ks_type": "legato", "pos":0, "index":1},
		{"command": "keyswitch", "ks_type": "legato", "pos":0, "index":1},
		{"command": "note", "pitch":43, "vel":38, "pos":6196, "length":6386, "chan":0, },
		{"command": "note", "pitch":44, "vel":28, "pos":6782, "length":977, "chan":0, },
		{"command": "note", "pitch":44, "vel":47, "pos":8247, "length":4386, "chan":0, },
		{"command": "note", "pitch":46, "vel":67, "pos":14034, "length":7594, "chan":0, },
		{"command": "note", "pitch":48, "vel":82, "pos":14625, "length":1195, "chan":0, },
		{"command": "note", "pitch":48, "vel":80, "pos":16364, "length":5270, "chan":0, },
		{"command": "note", "pitch":50, "vel":86, "pos":22345, "length":5848, "chan":0, },
		{"command": "note", "pitch":51, "vel":96, "pos":22730, "length":2854, "chan":0, },
		{"command": "note", "pitch":51, "vel":96, "pos":25991, "length":2237, "chan":0, },
		{"command": "note", "pitch":56, "vel":86, "pos":30392, "length":5848, "chan":0, },
		{"command": "note", "pitch":55, "vel":96, "pos":30777, "length":2854, "chan":0, },
		{"command": "note", "pitch":55, "vel":96, "pos":34038, "length":2237, "chan":0, },
		{"command": "note", "pitch":36, "vel":38, "pos":41637, "length":6386, "chan":0, },
		{"command": "note", "pitch":39, "vel":28, "pos":42223, "length":977, "chan":0, },
		{"command": "note", "pitch":39, "vel":47, "pos":43688, "length":4386, "chan":0, },
		{"command": "pedal", "value":0, "pos":0, "chan":0, },
		{"command": "pedal", "value":127, "pos":1680, "chan":0, },
		{"command": "pedal", "value":0, "pos":29760, "chan":0, },
		{"command": "pedal", "value":127, "pos":30720, "chan":0, },
		{"command": "pedal", "value":0, "pos":56523, "chan":0, },
	],
	[
		{"command": "keyswitch", "ks_type": "legato", "pos":0, "index":1},
		{"command": "keyswitch", "ks_type": "speed", "pos":0, "index":1},
		{"command": "keyswitch", "ks_type": "direction", "pos":0, "index":0},
		{"command": "keyswitch", "ks_type": "direction", "pos":0, "index":2},
		{"command": "keyswitch", "ks_type": "legato", "pos":0, "index":1},
		{"command": "keyswitch", "ks_type": "legato", "pos":0, "index":1},
		{"command": "note", "pitch":60, "vel":1, "pos":3342, "length":1505, "chan":0, },
		{"command": "note", "pitch":62, "vel":1, "pos":3847, "length":1148, "chan":0, },
		{"command": "note", "pitch":64, "vel":1, "pos":4401, "length":672, "chan":0, },
		{"command": "note", "pitch":62, "vel":16, "pos":5804, "length":1874, "chan":0, },
		{"command": "note", "pitch":64, "vel":18, "pos":6258, "length":1511, "chan":0, },
		{"command": "note", "pitch":65, "vel":14, "pos":6749, "length":994, "chan":0, },
		{"command": "note", "pitch":64, "vel":41, "pos":8793, "length":2101, "chan":0, },
		{"command": "note", "pitch":65, "vel":41, "pos":9282, "length":1707, "chan":0, },
		{"command": "note", "pitch":67, "vel":41, "pos":9840, "length":1108, "chan":0, },
		{"command": "note", "pitch":65, "vel":63, "pos":11830, "length":2619, "chan":0, },
		{"command": "note", "pitch":67, "vel":58, "pos":12345, "length":2148, "chan":0, },
		{"command": "note", "pitch":69, "vel":56, "pos":12959, "length":1493, "chan":0, },
		{"command": "note", "pitch":67, "vel":83, "pos":15249, "length":3627, "chan":0, },
		{"command": "note", "pitch":69, "vel":77, "pos":15803, "length":3197, "chan":0, },
		{"command": "note", "pitch":71, "vel":98, "pos":16463, "length":2392, "chan":0, },
		{"command": "note", "pitch":69, "vel":127, "pos":20085, "length":7678, "chan":0, },
		{"command": "note", "pitch":71, "vel":127, "pos":20554, "length":7190, "chan":0, },
		{"command": "note", "pitch":72, "vel":127, "pos":21020, "length":6704, "chan":0, },
		{"command": "note", "pitch":57, "vel":17, "pos":28079, "length":1830, "chan":0, },
		{"command": "note", "pitch":59, "vel":1, "pos":28444, "length":1625, "chan":0, },
		{"command": "note", "pitch":60, "vel":1, "pos":28886, "length":1091, "chan":0, },
		{"command": "note", "pitch":59, "vel":33, "pos":31584, "length":1350, "chan":0, },
		{"command": "note", "pitch":60, "vel":33, "pos":31840, "length":1184, "chan":0, },
		{"command": "note", "pitch":62, "vel":27, "pos":32269, "length":704, "chan":0, },
		{"command": "note", "pitch":60, "vel":36, "pos":33675, "length":1946, "chan":0, },
		{"command": "note", "pitch":62, "vel":44, "pos":34150, "length":1587, "chan":0, },
		{"command": "note", "pitch":64, "vel":23, "pos":34692, "length":977, "chan":0, },
		{"command": "note", "pitch":62, "vel":57, "pos":36380, "length":3804, "chan":0, },
		{"command": "note", "pitch":64, "vel":65, "pos":36915, "length":3341, "chan":0, },
		{"command": "note", "pitch":66, "vel":41, "pos":37456, "length":3130, "chan":0, },
		{"command": "note", "pitch":66, "vel":127, "pos":41263, "length":11249, "chan":0, },
		{"command": "note", "pitch":67, "vel":127, "pos":42035, "length":10480, "chan":0, },
		{"command": "note", "pitch":52, "vel":21, "pos":49432, "length":1460, "chan":0, },
		{"command": "note", "pitch":54, "vel":23, "pos":49859, "length":1160, "chan":0, },
		{"command": "note", "pitch":54, "vel":74, "pos":52056, "length":1532, "chan":0, },
		{"command": "note", "pitch":55, "vel":79, "pos":52975, "length":665, "chan":0, },
		{"command": "note", "pitch":55, "vel":89, "pos":54292, "length":1196, "chan":0, },
		{"command": "note", "pitch":57, "vel":93, "pos":54753, "length":736, "chan":0, },
		{"command": "note", "pitch":57, "vel":107, "pos":55779, "length":1191, "chan":0, },
		{"command": "note", "pitch":59, "vel":94, "pos":56225, "length":787, "chan":0, },
		{"command": "note", "pitch":59, "vel":127, "pos":57674, "length":5209, "chan":0, },
		{"command": "note", "pitch":61, "vel":127, "pos":58221, "length":9107, "chan":0, },
		{"command": "note", "pitch":62, "vel":127, "pos":61705, "length":9107, "chan":0, },
		{"command": "pedal", "value":0, "pos":0, "chan":0, },
		{"command": "pedal", "value":127, "pos":1680, "chan":0, },
		{"command": "pedal", "value":0, "pos":26880, "chan":0, },
		{"command": "pedal", "value":127, "pos":28354, "chan":0, },
		{"command": "pedal", "value":0, "pos":50345, "chan":0, },
		{"command": "pedal", "value":127, "pos":50873, "chan":0, },
		{"command": "pedal", "value":0, "pos":70345, "chan":0, },
	],
	[
		{"command": "keyswitch", "ks_type": "articulation", "pos":0, "index":2},
		{"command": "keyswitch", "ks_type": "speed", "pos":0, "index":1},
		{"command": "keyswitch", "ks_type": "direction", "pos":0, "index":0},
		{"command": "keyswitch", "ks_type": "direction", "pos":0, "index":0},
		{"command": "keyswitch", "ks_type": "legato", "pos":0, "index":1},
		{"command": "keyswitch", "ks_type": "release_sample", "pos":0, "index":0},
		{"command": "note", "pitch":58, "vel":40, "pos":11488, "length":192, "chan":0, },
		{"command": "note", "pitch":62, "vel":38, "pos":11520, "length":365, "chan":0, },
		{"command": "note", "pitch":58, "vel":60, "pos":11986, "length":157, "chan":0, },
		{"command": "note", "pitch":62, "vel":69, "pos":12000, "length":1031, "chan":0, },
		{"command": "note", "pitch":57, "vel":40, "pos":19168, "length":192, "chan":0, },
		{"command": "note", "pitch":62, "vel":38, "pos":19200, "length":365, "chan":0, },
		{"command": "note", "pitch":57, "vel":60, "pos":19666, "length":157, "chan":0, },
		{"command": "note", "pitch":62, "vel":69, "pos":19680, "length":1031, "chan":0, },
		{"command": "note", "pitch":58, "vel":40, "pos":26848, "length":192, "chan":0, },
		{"command": "note", "pitch":62, "vel":38, "pos":26880, "length":365, "chan":0, },
		{"command": "note", "pitch":58, "vel":60, "pos":27346, "length":157, "chan":0, },
		{"command": "note", "pitch":62, "vel":69, "pos":27360, "length":1031, "chan":0, },
		{"command": "note", "pitch":57, "vel":40, "pos":34528, "length":192, "chan":0, },
		{"command": "note", "pitch":62, "vel":38, "pos":34560, "length":365, "chan":0, },
		{"command": "note", "pitch":54, "vel":38, "pos":34560, "length":365, "chan":0, },
		{"command": "note", "pitch":57, "vel":60, "pos":35026, "length":157, "chan":0, },
		{"command": "note", "pitch":62, "vel":69, "pos":35040, "length":1031, "chan":0, },
		{"command": "note", "pitch":54, "vel":69, "pos":35040, "length":1031, "chan":0, },
		{"command": "note", "pitch":58, "vel":40, "pos":42208, "length":192, "chan":0, },
		{"command": "note", "pitch":62, "vel":38, "pos":42240, "length":365, "chan":0, },
		{"command": "note", "pitch":55, "vel":38, "pos":42240, "length":365, "chan":0, },
		{"command": "note", "pitch":58, "vel":60, "pos":42706, "length":157, "chan":0, },
		{"command": "note", "pitch":62, "vel":69, "pos":42720, "length":1031, "chan":0, },
		{"command": "note", "pitch":55, "vel":69, "pos":42720, "length":1031, "chan":0, },
		{"command": "note", "pitch":57, "vel":40, "pos":49888, "length":192, "chan":0, },
		{"command": "note", "pitch":62, "vel":38, "pos":49920, "length":365, "chan":0, },
		{"command": "note", "pitch":53, "vel":38, "pos":49920, "length":365, "chan":0, },
		{"command": "note", "pitch":57, "vel":60, "pos":50386, "length":311, "chan":0, },
		{"command": "note", "pitch":62, "vel":69, "pos":50400, "length":1185, "chan":0, },
		{"command": "note", "pitch":53, "vel":69, "pos":50400, "length":451, "chan":0, },
		{"command": "note", "pitch":46, "vel":40, "pos":57568, "length":192, "chan":0, },
		{"command": "note", "pitch":57, "vel":38, "pos":57600, "length":365, "chan":0, },
		{"command": "note", "pitch":50, "vel":38, "pos":57600, "length":365, "chan":0, },
		{"command": "note", "pitch":62, "vel":38, "pos":57600, "length":365, "chan":0, },
		{"command": "note", "pitch":46, "vel":60, "pos":58066, "length":157, "chan":0, },
		{"command": "note", "pitch":57, "vel":69, "pos":58080, "length":1031, "chan":0, },
		{"command": "note", "pitch":50, "vel":69, "pos":58080, "length":1031, "chan":0, },
		{"command": "note", "pitch":62, "vel":69, "pos":58080, "length":1031, "chan":0, },
		{"command": "note", "pitch":45, "vel":40, "pos":65248, "length":192, "chan":0, },
		{"command": "note", "pitch":57, "vel":40, "pos":65248, "length":192, "chan":0, },
		{"command": "note", "pitch":50, "vel":38, "pos":65280, "length":365, "chan":0, },
		{"command": "note", "pitch":62, "vel":38, "pos":65280, "length":365, "chan":0, },
		{"command": "note", "pitch":54, "vel":38, "pos":65280, "length":365, "chan":0, },
		{"command": "note", "pitch":45, "vel":60, "pos":65746, "length":157, "chan":0, },
		{"command": "note", "pitch":57, "vel":60, "pos":65746, "length":157, "chan":0, },
		{"command": "note", "pitch":50, "vel":69, "pos":65760, "length":1031, "chan":0, },
		{"command": "note", "pitch":62, "vel":69, "pos":65760, "length":1031, "chan":0, },
		{"command": "note", "pitch":54, "vel":69, "pos":65760, "length":1031, "chan":0, },
		{"command": "keyswitch", "ks_type": "release_sample", "pos":76320, "index":0},
		{"command": "pedal", "value":127, "pos":5011, "chan":0, },
		{"command": "pedal", "value":0, "pos":19091, "chan":0, },
		{"command": "pedal", "value":127, "pos":19200, "chan":0, },
		{"command": "pedal", "value":0, "pos":26766, "chan":0, },
		{"command": "pedal", "value":127, "pos":26880, "chan":0, },
		{"command": "pedal", "value":0, "pos":34445, "chan":0, },
		{"command": "pedal", "value":127, "pos":34560, "chan":0, },
		{"command": "pedal", "value":0, "pos":42178, "chan":0, },
		{"command": "pedal", "value":127, "pos":42240, "chan":0, },
		{"command": "pedal", "value":0, "pos":49819, "chan":0, },
		{"command": "pedal", "value":127, "pos":49920, "chan":0, },
		{"command": "pedal", "value":0, "pos":57525, "chan":0, },
		{"command": "pedal", "value":127, "pos":57600, "chan":0, },
		{"command": "pedal", "value":0, "pos":65219, "chan":0, },
		{"command": "pedal", "value":127, "pos":65280, "chan":0, },
		{"command": "pedal", "value":0, "pos":78720, "chan":0, },
	],
	[
		{"command": "keyswitch", "ks_type": "release_sample", "pos":0, "index":0},
		{"command": "keyswitch", "ks_type": "speed", "pos":0, "index":1},
		{"command": "keyswitch", "ks_type": "direction", "pos":0, "index":0},
		{"command": "keyswitch", "ks_type": "direction", "pos":0, "index":0},
		{"command": "keyswitch", "ks_type": "legato", "pos":0, "index":1},
		{"command": "keyswitch", "ks_type": "legato", "pos":0, "index":3},
		{"command": "note", "pitch":48, "vel":21, "pos":960, "length":1420, "chan":0, },
		{"command": "note", "pitch":51, "vel":21, "pos":960, "length":1504, "chan":0, },
		{"command": "note", "pitch":55, "vel":21, "pos":960, "length":1426, "chan":0, },
		{"command": "note", "pitch":60, "vel":127, "pos":960, "length":1554, "chan":0, },
		{"command": "note", "pitch":63, "vel":127, "pos":960, "length":1629, "chan":0, },
		{"command": "note", "pitch":60, "vel":127, "pos":8639, "length":1436, "chan":0, },
		{"command": "note", "pitch":62, "vel":127, "pos":8640, "length":1440, "chan":0, },
		{"command": "note", "pitch":46, "vel":21, "pos":8645, "length":1388, "chan":0, },
		{"command": "note", "pitch":51, "vel":21, "pos":8658, "length":1407, "chan":0, },
		{"command": "note", "pitch":55, "vel":21, "pos":8662, "length":1385, "chan":0, },
		{"command": "note", "pitch":63, "vel":127, "pos":16320, "length":1746, "chan":0, },
		{"command": "note", "pitch":56, "vel":21, "pos":16320, "length":1671, "chan":0, },
		{"command": "note", "pitch":51, "vel":21, "pos":16327, "length":1790, "chan":0, },
		{"command": "note", "pitch":44, "vel":21, "pos":16334, "length":1811, "chan":0, },
		{"command": "note", "pitch":60, "vel":127, "pos":16342, "length":1731, "chan":0, },
		{"command": "note", "pitch":48, "vel":21, "pos":16416, "length":1590, "chan":0, },
		{"command": "note", "pitch":53, "vel":21, "pos":23999, "length":1622, "chan":0, },
		{"command": "note", "pitch":56, "vel":21, "pos":24000, "length":1579, "chan":0, },
		{"command": "note", "pitch":60, "vel":127, "pos":24000, "length":1605, "chan":0, },
		{"command": "note", "pitch":41, "vel":21, "pos":24000, "length":1574, "chan":0, },
		{"command": "note", "pitch":44, "vel":21, "pos":24000, "length":1602, "chan":0, },
		{"command": "note", "pitch":62, "vel":127, "pos":24000, "length":1567, "chan":0, },
		{"command": "note", "pitch":48, "vel":21, "pos":24012, "length":1619, "chan":0, },
		{"command": "note", "pitch":48, "vel":1, "pos":30720, "length":1420, "chan":0, },
		{"command": "note", "pitch":51, "vel":1, "pos":30720, "length":1504, "chan":0, },
		{"command": "note", "pitch":55, "vel":127, "pos":30720, "length":1426, "chan":0, },
		{"command": "note", "pitch":60, "vel":127, "pos":30720, "length":1554, "chan":0, },
		{"command": "note", "pitch":39, "vel":1, "pos":30720, "length":1629, "chan":0, },
		{"command": "note", "pitch":43, "vel":1, "pos":30720, "length":1629, "chan":0, },
		{"command": "note", "pitch":60, "vel":127, "pos":38399, "length":1436, "chan":0, },
		{"command": "note", "pitch":43, "vel":1, "pos":38400, "length":1440, "chan":0, },
		{"command": "note", "pitch":46, "vel":1, "pos":38405, "length":1388, "chan":0, },
		{"command": "note", "pitch":51, "vel":1, "pos":38418, "length":1407, "chan":0, },
		{"command": "note", "pitch":55, "vel":127, "pos":38422, "length":1385, "chan":0, },
		{"command": "note", "pitch":39, "vel":1, "pos":46080, "length":1746, "chan":0, },
		{"command": "note", "pitch":56, "vel":127, "pos":46080, "length":1671, "chan":0, },
		{"command": "note", "pitch":51, "vel":1, "pos":46087, "length":1790, "chan":0, },
		{"command": "note", "pitch":44, "vel":1, "pos":46094, "length":1811, "chan":0, },
		{"command": "note", "pitch":60, "vel":127, "pos":46102, "length":1731, "chan":0, },
		{"command": "note", "pitch":48, "vel":1, "pos":46176, "length":1590, "chan":0, },
		{"command": "note", "pitch":53, "vel":21, "pos":53759, "length":1622, "chan":0, },
		{"command": "note", "pitch":56, "vel":127, "pos":53760, "length":1579, "chan":0, },
		{"command": "note", "pitch":60, "vel":127, "pos":53760, "length":1605, "chan":0, },
		{"command": "note", "pitch":41, "vel":1, "pos":53760, "length":1574, "chan":0, },
		{"command": "note", "pitch":44, "vel":1, "pos":53760, "length":1602, "chan":0, },
		{"command": "note", "pitch":38, "vel":1, "pos":53760, "length":1567, "chan":0, },
		{"command": "note", "pitch":48, "vel":1, "pos":53772, "length":1619, "chan":0, },
		{"command": "note", "pitch":36, "vel":1, "pos":61440, "length":1420, "chan":0, },
		{"command": "note", "pitch":39, "vel":1, "pos":61440, "length":1420, "chan":0, },
		{"command": "note", "pitch":43, "vel":1, "pos":61440, "length":1420, "chan":0, },
		{"command": "note", "pitch":48, "vel":1, "pos":61440, "length":1420, "chan":0, },
		{"command": "note", "pitch":51, "vel":1, "pos":61440, "length":1420, "chan":0, },
		{"command": "note", "pitch":55, "vel":1, "pos":61440, "length":1420, "chan":0, },
		{"command": "note", "pitch":60, "vel":1, "pos":61440, "length":1420, "chan":0, },
		{"command": "pedal", "value":0, "pos":0, "chan":0, },
		{"command": "pedal", "value":127, "pos":804, "chan":0, },
		{"command": "pedal", "value":0, "pos":8640, "chan":0, },
		{"command": "pedal", "value":127, "pos":9120, "chan":0, },
		{"command": "pedal", "value":0, "pos":16320, "chan":0, },
		{"command": "pedal", "value":127, "pos":16800, "chan":0, },
		{"command": "pedal", "value":0, "pos":24000, "chan":0, },
		{"command": "pedal", "value":127, "pos":24480, "chan":0, },
		{"command": "pedal", "value":0, "pos":30720, "chan":0, },
		{"command": "pedal", "value":127, "pos":31200, "chan":0, },
		{"command": "pedal", "value":0, "pos":38400, "chan":0, },
		{"command": "pedal", "value":127, "pos":38880, "chan":0, },
		{"command": "pedal", "value":0, "pos":46080, "chan":0, },
		{"command": "pedal", "value":127, "pos":46560, "chan":0, },
		{"command": "pedal", "value":0, "pos":53760, "chan":0, },
		{"command": "pedal", "value":127, "pos":54240, "chan":0, },
		{"command": "pedal", "value":0, "pos":61439, "chan":0, },
		{"command": "pedal", "value":127, "pos":61920, "chan":0, },
		{"command": "pedal", "value":0, "pos":76800, "chan":0, },
	],
	[
		{"command": "keyswitch", "ks_type": "articulation", "pos":0, "index":1},
		{"command": "keyswitch", "ks_type": "speed", "pos":0, "index":1},
		{"command": "keyswitch", "ks_type": "direction", "pos":0, "index":0},
		{"command": "keyswitch", "ks_type": "direction", "pos":0, "index":0},
		{"command": "keyswitch", "ks_type": "legato", "pos":0, "index":1},
		{"command": "keyswitch", "ks_type": "legato", "pos":0, "index":1},
		{"command": "note", "pitch":48, "vel":6, "pos":3284, "length":1079, "chan":0, },
		{"command": "note", "pitch":53, "vel":19, "pos":3893, "length":577, "chan":0, },
		{"command": "note", "pitch":55, "vel":34, "pos":4881, "length":1017, "chan":0, },
		{"command": "note", "pitch":51, "vel":27, "pos":5005, "length":1302, "chan":0, },
		{"command": "note", "pitch":56, "vel":44, "pos":6050, "length":1165, "chan":0, },
		{"command": "note", "pitch":55, "vel":35, "pos":7637, "length":752, "chan":0, },
		{"command": "note", "pitch":60, "vel":29, "pos":7943, "length":556, "chan":0, },
		{"command": "note", "pitch":62, "vel":55, "pos":9203, "length":644, "chan":0, },
		{"command": "note", "pitch":58, "vel":40, "pos":9425, "length":787, "chan":0, },
		{"command": "pedal", "value":0, "pos":1370, "chan":0, },
		{"command": "pedal", "value":127, "pos":2162, "chan":0, },
		{"command": "pedal", "value":0, "pos":16080, "chan":0, },
	],
	[
		{"command": "keyswitch", "ks_type": "legato", "pos":0, "index":1},
		{"command": "keyswitch", "ks_type": "speed", "pos":0, "index":1},
		{"command": "keyswitch", "ks_type": "speed", "pos":0, "index":1},
		{"command": "keyswitch", "ks_type": "speed", "pos":0, "index":1},
		{"command": "keyswitch", "ks_type": "legato", "pos":0, "index":1},
		{"command": "keyswitch", "ks_type": "legato", "pos":0, "index":1},
		{"command": "note", "pitch":68, "vel":42, "pos":5726, "length":1071, "chan":0, },
		{"command": "note", "pitch":65, "vel":48, "pos":5757, "length":1035, "chan":0, },
		{"command": "note", "pitch":68, "vel":67, "pos":9082, "length":3960, "chan":0, },
		{"command": "note", "pitch":70, "vel":67, "pos":9082, "length":3960, "chan":0, },
		{"command": "note", "pitch":65, "vel":68, "pos":9092, "length":3935, "chan":0, },
		{"command": "note", "pitch":68, "vel":67, "pos":14400, "length":3636, "chan":0, },
		{"command": "note", "pitch":65, "vel":68, "pos":14410, "length":3611, "chan":0, },
		{"command": "note", "pitch":66, "vel":42, "pos":19169, "length":2913, "chan":0, },
		{"command": "note", "pitch":65, "vel":48, "pos":19200, "length":2877, "chan":0, },
		{"command": "note", "pitch":66, "vel":67, "pos":22525, "length":3960, "chan":0, },
		{"command": "note", "pitch":70, "vel":67, "pos":22525, "length":3960, "chan":0, },
		{"command": "note", "pitch":65, "vel":68, "pos":22535, "length":3935, "chan":0, },
		{"command": "note", "pitch":68, "vel":67, "pos":27843, "length":3960, "chan":0, },
		{"command": "note", "pitch":65, "vel":68, "pos":27853, "length":3935, "chan":0, },
		{"command": "note", "pitch":68, "vel":48, "pos":34560, "length":7334, "chan":0, },
		{"command": "note", "pitch":72, "vel":48, "pos":34560, "length":7334, "chan":0, },
		{"command": "pedal", "value":0, "pos":4143, "chan":0, },
		{"command": "pedal", "value":127, "pos":4754, "chan":0, },
		{"command": "pedal", "value":0, "pos":10959, "chan":0, },
		{"command": "pedal", "value":127, "pos":11841, "chan":0, },
		{"command": "pedal", "value":127, "pos":16031, "chan":0, },
		{"command": "pedal", "value":127, "pos":16334, "chan":0, },
		{"command": "pedal", "value":0, "pos":21120, "chan":0, },
		{"command": "pedal", "value":127, "pos":21612, "chan":0, },
		{"command": "pedal", "value":0, "pos":24360, "chan":0, },
		{"command": "pedal", "value":127, "pos":24783, "chan":0, },
		{"command": "pedal", "value":0, "pos":30280, "chan":0, },
		{"command": "pedal", "value":127, "pos":30552, "chan":0, },
		{"command": "pedal", "value":0, "pos":38400, "chan":0, },
	],
	[
		{"command": "note", "pitch":45, "vel":96, "pos":1440, "length":960, "chan":0, },
		{"command": "note", "pitch":55, "vel":96, "pos":3840, "length":960, "chan":0, },
		{"command": "note", "pitch":64, "vel":96, "pos":7680, "length":1440, "chan":0, },
	],
	[
		{"command": "note", "pitch":45, "vel":96, "pos":1440, "length":960, "chan":0, },
		{"command": "note", "pitch":55, "vel":96, "pos":3840, "length":960, "chan":0, },
		{"command": "note", "pitch":64, "vel":96, "pos":7680, "length":1440, "chan":0, },
	],
	[
		{"command": "note", "pitch":45, "vel":96, "pos":1440, "length":960, "chan":0, },
		{"command": "note", "pitch":55, "vel":96, "pos":3840, "length":960, "chan":0, },
		{"command": "note", "pitch":64, "vel":96, "pos":7680, "length":1440, "chan":0, },
	],
	[
		{"command": "note", "pitch":45, "vel":96, "pos":1440, "length":960, "chan":0, },
		{"command": "note", "pitch":55, "vel":96, "pos":3840, "length":960, "chan":0, },
		{"command": "note", "pitch":64, "vel":96, "pos":7680, "length":1440, "chan":0, },
	],
	[
		{"command": "note", "pitch":45, "vel":96, "pos":1440, "length":960, "chan":0, },
		{"command": "note", "pitch":55, "vel":96, "pos":3840, "length":960, "chan":0, },
		{"command": "note", "pitch":64, "vel":96, "pos":7680, "length":1440, "chan":0, },
	],
	[
		{"command": "keyswitch", "ks_type": "articulation", "pos":0, "index":2},
		{"command": "keyswitch", "ks_type": "speed", "pos":0, "index":1},
		{"command": "keyswitch", "ks_type": "direction", "pos":0, "index":0},
		{"command": "keyswitch", "ks_type": "legato", "pos":0, "index":3},
		{"command": "keyswitch", "ks_type": "direction", "pos":0, "index":2},
		{"command": "note", "pitch":50, "vel":96, "pos":720, "length":343, "chan":0, },
		{"command": "note", "pitch":54, "vel":96, "pos":960, "length":273, "chan":0, },
		{"command": "note", "pitch":57, "vel":96, "pos":1366, "length":314, "chan":0, },
		{"command": "note", "pitch":54, "vel":96, "pos":1440, "length":720, "chan":0, },
		{"command": "note", "pitch":49, "vel":96, "pos":8539, "length":204, "chan":0, },
		{"command": "note", "pitch":54, "vel":96, "pos":8640, "length":273, "chan":0, },
		{"command": "note", "pitch":57, "vel":96, "pos":9008, "length":265, "chan":0, },
		{"command": "note", "pitch":54, "vel":96, "pos":9120, "length":534, "chan":0, },
		{"command": "note", "pitch":50, "vel":96, "pos":16080, "length":343, "chan":0, },
		{"command": "note", "pitch":62, "vel":96, "pos":16080, "length":343, "chan":0, },
		{"command": "note", "pitch":54, "vel":96, "pos":16320, "length":273, "chan":0, },
		{"command": "note", "pitch":66, "vel":96, "pos":16320, "length":273, "chan":0, },
		{"command": "note", "pitch":57, "vel":96, "pos":16726, "length":314, "chan":0, },
		{"command": "note", "pitch":69, "vel":96, "pos":16726, "length":314, "chan":0, },
		{"command": "note", "pitch":54, "vel":96, "pos":16800, "length":720, "chan":0, },
		{"command": "note", "pitch":66, "vel":96, "pos":16800, "length":720, "chan":0, },
		{"command": "note", "pitch":49, "vel":96, "pos":23899, "length":204, "chan":0, },
		{"command": "note", "pitch":61, "vel":96, "pos":23899, "length":204, "chan":0, },
		{"command": "note", "pitch":54, "vel":96, "pos":24000, "length":273, "chan":0, },
		{"command": "note", "pitch":66, "vel":96, "pos":24000, "length":273, "chan":0, },
		{"command": "note", "pitch":57, "vel":96, "pos":24368, "length":265, "chan":0, },
		{"command": "note", "pitch":69, "vel":96, "pos":24368, "length":265, "chan":0, },
		{"command": "note", "pitch":54, "vel":96, "pos":24480, "length":534, "chan":0, },
		{"command": "note", "pitch":66, "vel":96, "pos":24480, "length":534, "chan":0, },
		{"command": "note", "pitch":50, "vel":96, "pos":31440, "length":343, "chan":0, },
		{"command": "note", "pitch":38, "vel":96, "pos":31440, "length":343, "chan":0, },
		{"command": "note", "pitch":54, "vel":96, "pos":31680, "length":273, "chan":0, },
		{"command": "note", "pitch":42, "vel":96, "pos":31680, "length":273, "chan":0, },
		{"command": "note", "pitch":57, "vel":96, "pos":32086, "length":314, "chan":0, },
		{"command": "note", "pitch":45, "vel":96, "pos":32086, "length":314, "chan":0, },
		{"command": "note", "pitch":54, "vel":96, "pos":32160, "length":720, "chan":0, },
		{"command": "note", "pitch":42, "vel":96, "pos":32160, "length":720, "chan":0, },
		{"command": "note", "pitch":49, "vel":96, "pos":39259, "length":204, "chan":0, },
		{"command": "note", "pitch":37, "vel":96, "pos":39259, "length":204, "chan":0, },
		{"command": "note", "pitch":54, "vel":96, "pos":39360, "length":273, "chan":0, },
		{"command": "note", "pitch":42, "vel":96, "pos":39360, "length":273, "chan":0, },
		{"command": "note", "pitch":57, "vel":96, "pos":39728, "length":265, "chan":0, },
		{"command": "note", "pitch":45, "vel":96, "pos":39728, "length":265, "chan":0, },
		{"command": "note", "pitch":54, "vel":96, "pos":39840, "length":534, "chan":0, },
		{"command": "note", "pitch":42, "vel":96, "pos":39840, "length":534, "chan":0, },
		{"command": "pedal", "value":0, "pos":0, "chan":0, },
		{"command": "pedal", "value":127, "pos":480, "chan":0, },
		{"command": "pedal", "value":0, "pos":8470, "chan":0, },
		{"command": "pedal", "value":127, "pos":8590, "chan":0, },
		{"command": "pedal", "value":0, "pos":16032, "chan":0, },
		{"command": "pedal", "value":127, "pos":16320, "chan":0, },
		{"command": "pedal", "value":0, "pos":23794, "chan":0, },
		{"command": "pedal", "value":127, "pos":24000, "chan":0, },
		{"command": "pedal", "value":0, "pos":31392, "chan":0, },
		{"command": "pedal", "value":127, "pos":31680, "chan":0, },
		{"command": "pedal", "value":0, "pos":39154, "chan":0, },
		{"command": "pedal", "value":127, "pos":39360, "chan":0, },
		{"command": "pedal", "value":0, "pos":46904, "chan":0, },
	],
	[
		{"command": "keyswitch", "ks_type": "direction", "pos":0, "index":2},
		{"command": "keyswitch", "ks_type": "speed", "pos":0, "index":1},
		{"command": "keyswitch", "ks_type": "direction", "pos":0, "index":0},
		{"command": "keyswitch", "ks_type": "direction", "pos":0, "index":0},
		{"command": "keyswitch", "ks_type": "legato", "pos":0, "index":3},
		{"command": "note", "pitch":61, "vel":96, "pos":886, "length":240, "chan":0, },
		{"command": "note", "pitch":58, "vel":96, "pos":960, "length":240, "chan":0, },
		{"command": "note", "pitch":63, "vel":96, "pos":1387, "length":240, "chan":0, },
		{"command": "note", "pitch":58, "vel":96, "pos":1440, "length":240, "chan":0, },
		{"command": "note", "pitch":65, "vel":96, "pos":1867, "length":240, "chan":0, },
		{"command": "note", "pitch":63, "vel":96, "pos":1920, "length":240, "chan":0, },
		{"command": "note", "pitch":61, "vel":96, "pos":8566, "length":240, "chan":0, },
		{"command": "note", "pitch":56, "vel":96, "pos":8640, "length":240, "chan":0, },
		{"command": "note", "pitch":63, "vel":96, "pos":9067, "length":240, "chan":0, },
		{"command": "note", "pitch":61, "vel":96, "pos":9120, "length":240, "chan":0, },
		{"command": "note", "pitch":65, "vel":96, "pos":9547, "length":240, "chan":0, },
		{"command": "note", "pitch":63, "vel":96, "pos":9600, "length":240, "chan":0, },
		{"command": "note", "pitch":58, "vel":96, "pos":16246, "length":240, "chan":0, },
		{"command": "note", "pitch":54, "vel":96, "pos":16320, "length":240, "chan":0, },
		{"command": "note", "pitch":63, "vel":96, "pos":16747, "length":240, "chan":0, },
		{"command": "note", "pitch":61, "vel":96, "pos":16800, "length":240, "chan":0, },
		{"command": "note", "pitch":65, "vel":96, "pos":17227, "length":240, "chan":0, },
		{"command": "note", "pitch":63, "vel":96, "pos":17280, "length":240, "chan":0, },
		{"command": "note", "pitch":60, "vel":87, "pos":23926, "length":240, "chan":0, },
		{"command": "note", "pitch":56, "vel":87, "pos":24000, "length":240, "chan":0, },
		{"command": "note", "pitch":63, "vel":96, "pos":24427, "length":240, "chan":0, },
		{"command": "note", "pitch":61, "vel":96, "pos":24480, "length":240, "chan":0, },
		{"command": "note", "pitch":68, "vel":106, "pos":24907, "length":240, "chan":0, },
		{"command": "note", "pitch":63, "vel":106, "pos":24960, "length":240, "chan":0, },
		{"command": "pedal", "value":0, "pos":0, "chan":0, },
		{"command": "pedal", "value":127, "pos":960, "chan":0, },
		{"command": "pedal", "value":0, "pos":8580, "chan":0, },
		{"command": "pedal", "value":127, "pos":8640, "chan":0, },
		{"command": "pedal", "value":0, "pos":16180, "chan":0, },
		{"command": "pedal", "value":127, "pos":16320, "chan":0, },
		{"command": "pedal", "value":0, "pos":23794, "chan":0, },
		{"command": "pedal", "value":127, "pos":24000, "chan":0, },
		{"command": "pedal", "value":0, "pos":30720, "chan":0, },
	],
	[
		{"command": "keyswitch", "ks_type": "legato", "pos":0, "index":3},
		{"command": "keyswitch", "ks_type": "speed", "pos":0, "index":1},
		{"command": "keyswitch", "ks_type": "direction", "pos":0, "index":0},
		{"command": "keyswitch", "ks_type": "direction", "pos":0, "index":0},
		{"command": "keyswitch", "ks_type": "legato", "pos":0, "index":3},
		{"command": "note", "pitch":48, "vel":96, "pos":886, "length":7495, "chan":0, },
		{"command": "note", "pitch":45, "vel":96, "pos":960, "length":7495, "chan":0, },
		{"command": "note", "pitch":60, "vel":96, "pos":1387, "length":7495, "chan":0, },
		{"command": "note", "pitch":57, "vel":96, "pos":1440, "length":7495, "chan":0, },
		{"command": "note", "pitch":72, "vel":96, "pos":1867, "length":7495, "chan":0, },
		{"command": "note", "pitch":69, "vel":96, "pos":1920, "length":7495, "chan":0, },
		{"command": "note", "pitch":47, "vel":96, "pos":8566, "length":7582, "chan":0, },
		{"command": "note", "pitch":43, "vel":96, "pos":8640, "length":7582, "chan":0, },
		{"command": "note", "pitch":59, "vel":96, "pos":9067, "length":7582, "chan":0, },
		{"command": "note", "pitch":55, "vel":96, "pos":9120, "length":7582, "chan":0, },
		{"command": "note", "pitch":71, "vel":96, "pos":9547, "length":7582, "chan":0, },
		{"command": "note", "pitch":67, "vel":96, "pos":9600, "length":7582, "chan":0, },
		{"command": "note", "pitch":43, "vel":96, "pos":16299, "length":7409, "chan":0, },
		{"command": "note", "pitch":38, "vel":96, "pos":16373, "length":7409, "chan":0, },
		{"command": "note", "pitch":55, "vel":96, "pos":16800, "length":7409, "chan":0, },
		{"command": "note", "pitch":50, "vel":96, "pos":16853, "length":7409, "chan":0, },
		{"command": "note", "pitch":67, "vel":96, "pos":17280, "length":7409, "chan":0, },
		{"command": "note", "pitch":62, "vel":96, "pos":17333, "length":7409, "chan":0, },
		{"command": "note", "pitch":41, "vel":96, "pos":23926, "length":7680, "chan":0, },
		{"command": "note", "pitch":38, "vel":96, "pos":24000, "length":7680, "chan":0, },
		{"command": "note", "pitch":53, "vel":96, "pos":24427, "length":7680, "chan":0, },
		{"command": "note", "pitch":50, "vel":96, "pos":24480, "length":7680, "chan":0, },
		{"command": "note", "pitch":65, "vel":96, "pos":24907, "length":7680, "chan":0, },
		{"command": "note", "pitch":62, "vel":96, "pos":24960, "length":7680, "chan":0, },
		{"command": "pedal", "value":0, "pos":0, "chan":0, },
	],
	[
		{"command": "keyswitch", "ks_type": "legato", "pos":0, "index":3},
		{"command": "keyswitch", "ks_type": "speed", "pos":0, "index":1},
		{"command": "keyswitch", "ks_type": "speed", "pos":0, "index":1},
		{"command": "keyswitch", "ks_type": "speed", "pos":0, "index":1},
		{"command": "keyswitch", "ks_type": "direction", "pos":0, "index":0},
		{"command": "note", "pitch":48, "vel":96, "pos":1883, "length":1216, "chan":0, },
		{"command": "note", "pitch":72, "vel":96, "pos":1920, "length":30720, "chan":0, },
		{"command": "note", "pitch":51, "vel":96, "pos":1920, "length":1216, "chan":0, },
		{"command": "note", "pitch":55, "vel":96, "pos":3758, "length":2002, "chan":0, },
		{"command": "note", "pitch":51, "vel":96, "pos":3840, "length":960, "chan":0, },
		{"command": "note", "pitch":56, "vel":96, "pos":4800, "length":960, "chan":0, },
		{"command": "note", "pitch":48, "vel":96, "pos":5723, "length":1216, "chan":0, },
		{"command": "note", "pitch":51, "vel":96, "pos":5760, "length":1216, "chan":0, },
		{"command": "note", "pitch":55, "vel":96, "pos":7598, "length":2002, "chan":0, },
		{"command": "note", "pitch":51, "vel":96, "pos":7680, "length":960, "chan":0, },
		{"command": "note", "pitch":56, "vel":96, "pos":8640, "length":960, "chan":0, },
		{"command": "note", "pitch":46, "vel":96, "pos":9563, "length":1216, "chan":0, },
		{"command": "note", "pitch":50, "vel":96, "pos":9600, "length":1216, "chan":0, },
		{"command": "note", "pitch":55, "vel":96, "pos":11438, "length":2002, "chan":0, },
		{"command": "note", "pitch":50, "vel":96, "pos":11520, "length":960, "chan":0, },
		{"command": "note", "pitch":56, "vel":96, "pos":12480, "length":960, "chan":0, },
		{"command": "note", "pitch":46, "vel":96, "pos":13403, "length":1216, "chan":0, },
		{"command": "note", "pitch":50, "vel":96, "pos":13440, "length":1216, "chan":0, },
		{"command": "note", "pitch":55, "vel":96, "pos":15278, "length":2002, "chan":0, },
		{"command": "note", "pitch":50, "vel":96, "pos":15360, "length":960, "chan":0, },
		{"command": "note", "pitch":56, "vel":96, "pos":16320, "length":960, "chan":0, },
		{"command": "note", "pitch":44, "vel":96, "pos":17243, "length":1216, "chan":0, },
		{"command": "note", "pitch":48, "vel":96, "pos":17243, "length":1216, "chan":0, },
		{"command": "note", "pitch":55, "vel":96, "pos":19118, "length":2002, "chan":0, },
		{"command": "note", "pitch":53, "vel":96, "pos":19200, "length":960, "chan":0, },
		{"command": "note", "pitch":56, "vel":96, "pos":20160, "length":960, "chan":0, },
		{"command": "note", "pitch":44, "vel":96, "pos":21083, "length":1216, "chan":0, },
		{"command": "note", "pitch":48, "vel":96, "pos":21083, "length":1216, "chan":0, },
		{"command": "note", "pitch":55, "vel":96, "pos":22958, "length":2002, "chan":0, },
		{"command": "note", "pitch":53, "vel":96, "pos":23040, "length":960, "chan":0, },
		{"command": "note", "pitch":56, "vel":96, "pos":24000, "length":960, "chan":0, },
		{"command": "note", "pitch":46, "vel":96, "pos":24923, "length":1216, "chan":0, },
		{"command": "note", "pitch":50, "vel":96, "pos":24960, "length":1216, "chan":0, },
		{"command": "note", "pitch":55, "vel":96, "pos":26798, "length":2002, "chan":0, },
		{"command": "note", "pitch":50, "vel":96, "pos":26880, "length":960, "chan":0, },
		{"command": "note", "pitch":56, "vel":96, "pos":27840, "length":960, "chan":0, },
		{"command": "note", "pitch":46, "vel":96, "pos":28763, "length":1216, "chan":0, },
		{"command": "note", "pitch":50, "vel":96, "pos":28800, "length":1216, "chan":0, },
		{"command": "note", "pitch":55, "vel":96, "pos":30638, "length":2002, "chan":0, },
		{"command": "note", "pitch":50, "vel":96, "pos":30720, "length":960, "chan":0, },
		{"command": "pedal", "value":0, "pos":0, "chan":0, },
	],
	[
		{"command": "keyswitch", "ks_type": "articulation", "pos":0, "index":1},
		{"command": "keyswitch", "ks_type": "speed", "pos":0, "index":1},
		{"command": "keyswitch", "ks_type": "direction", "pos":0, "index":0},
		{"command": "keyswitch", "ks_type": "legato", "pos":0, "index":3},
		{"command": "keyswitch", "ks_type": "legato", "pos":0, "index":3},
		{"command": "keyswitch", "ks_type": "direction", "pos":0, "index":2},
		{"command": "keyswitch", "ks_type": "direction", "pos":0, "index":2},
		{"command": "note", "pitch":47, "vel":1, "pos":3600, "length":303, "chan":0, },
		{"command": "note", "pitch":49, "vel":1, "pos":3840, "length":1009, "chan":0, },
		{"command": "note", "pitch":42, "vel":1, "pos":3840, "length":19200, "chan":0, },
		{"command": "note", "pitch":50, "vel":31, "pos":5520, "length":303, "chan":0, },
		{"command": "note", "pitch":52, "vel":31, "pos":5760, "length":1009, "chan":0, },
		{"command": "note", "pitch":54, "vel":51, "pos":7440, "length":303, "chan":0, },
		{"command": "note", "pitch":59, "vel":61, "pos":7680, "length":1720, "chan":0, },
		{"command": "keyswitch", "ks_type": "direction", "pos":7920, "index":2},
		{"command": "note", "pitch":55, "vel":81, "pos":11280, "length":303, "chan":0, },
		{"command": "note", "pitch":59, "vel":91, "pos":11520, "length":1700, "chan":0, },
		{"command": "keyswitch", "ks_type": "release_sample", "pos":12720, "index":1},
		{"command": "note", "pitch":54, "vel":111, "pos":15120, "length":303, "chan":0, },
		{"command": "note", "pitch":55, "vel":121, "pos":15360, "length":1310, "chan":0, },
		{"command": "keyswitch", "ks_type": "release_sample", "pos":15453, "index":0},
		{"command": "note", "pitch":54, "vel":91, "pos":17040, "length":303, "chan":0, },
		{"command": "note", "pitch":52, "vel":101, "pos":17280, "length":1295, "chan":0, },
		{"command": "note", "pitch":50, "vel":81, "pos":18960, "length":303, "chan":0, },
		{"command": "note", "pitch":52, "vel":91, "pos":19200, "length":1371, "chan":0, },
		{"command": "note", "pitch":50, "vel":61, "pos":20880, "length":303, "chan":0, },
		{"command": "note", "pitch":49, "vel":71, "pos":21120, "length":1340, "chan":0, },
		{"command": "note", "pitch":47, "vel":77, "pos":22954, "length":303, "chan":0, },
		{"command": "note", "pitch":49, "vel":77, "pos":23003, "length":1717, "chan":0, },
		{"command": "note", "pitch":47, "vel":17, "pos":26794, "length":303, "chan":0, },
		{"command": "note", "pitch":49, "vel":17, "pos":26843, "length":1717, "chan":0, },
	],
	[
		{"command": "keyswitch", "ks_type": "articulation", "pos":0, "index":1},
		{"command": "keyswitch", "ks_type": "speed", "pos":0, "index":1},
		{"command": "keyswitch", "ks_type": "direction", "pos":0, "index":0},
		{"command": "keyswitch", "ks_type": "legato", "pos":0, "index":3},
		{"command": "keyswitch", "ks_type": "legato", "pos":0, "index":3},
		{"command": "keyswitch", "ks_type": "direction", "pos":0, "index":2},
		{"command": "keyswitch", "ks_type": "direction", "pos":0, "index":2},
		{"command": "note", "pitch":59, "vel":1, "pos":3600, "length":303, "chan":0, },
		{"command": "note", "pitch":57, "vel":1, "pos":3840, "length":1009, "chan":0, },
		{"command": "note", "pitch":55, "vel":31, "pos":5520, "length":303, "chan":0, },
		{"command": "note", "pitch":54, "vel":31, "pos":5760, "length":1009, "chan":0, },
		{"command": "note", "pitch":52, "vel":51, "pos":7440, "length":303, "chan":0, },
		{"command": "note", "pitch":50, "vel":61, "pos":7680, "length":1720, "chan":0, },
		{"command": "keyswitch", "ks_type": "direction", "pos":7920, "index":2},
		{"command": "note", "pitch":54, "vel":81, "pos":11280, "length":303, "chan":0, },
		{"command": "note", "pitch":52, "vel":91, "pos":11520, "length":1700, "chan":0, },
		{"command": "keyswitch", "ks_type": "release_sample", "pos":12720, "index":1},
		{"command": "note", "pitch":54, "vel":71, "pos":15120, "length":303, "chan":0, },
		{"command": "note", "pitch":55, "vel":81, "pos":15360, "length":1310, "chan":0, },
		{"command": "keyswitch", "ks_type": "release_sample", "pos":15453, "index":0},
		{"command": "note", "pitch":54, "vel":71, "pos":17040, "length":303, "chan":0, },
		{"command": "note", "pitch":57, "vel":81, "pos":17280, "length":1310, "chan":0, },
		{"command": "note", "pitch":54, "vel":91, "pos":18960, "length":303, "chan":0, },
		{"command": "note", "pitch":52, "vel":101, "pos":19200, "length":1295, "chan":0, },
		{"command": "note", "pitch":50, "vel":81, "pos":20880, "length":303, "chan":0, },
		{"command": "note", "pitch":49, "vel":91, "pos":21120, "length":1371, "chan":0, },
		{"command": "note", "pitch":47, "vel":77, "pos":22954, "length":303, "chan":0, },
		{"command": "note", "pitch":49, "vel":77, "pos":23003, "length":1717, "chan":0, },
		{"command": "note", "pitch":47, "vel":17, "pos":26794, "length":303, "chan":0, },
		{"command": "note", "pitch":49, "vel":17, "pos":26843, "length":1717, "chan":0, },
	],
	[
		{"command": "keyswitch", "ks_type": "release_sample", "pos":0, "index":0},
		{"command": "keyswitch", "ks_type": "speed", "pos":0, "index":1},
		{"command": "keyswitch", "ks_type": "direction", "pos":0, "index":0},
		{"command": "keyswitch", "ks_type": "direction", "pos":0, "index":2},
		{"command": "keyswitch", "ks_type": "direction", "pos":0, "index":2},
		{"command": "keyswitch", "ks_type": "direction", "pos":0, "index":2},
		{"command": "note", "pitch":58, "vel":1, "pos":1794, "length":338, "chan":0, },
		{"command": "note", "pitch":57, "vel":1, "pos":1920, "length":480, "chan":0, },
		{"command": "note", "pitch":53, "vel":1, "pos":2400, "length":720, "chan":0, },
		{"command": "note", "pitch":57, "vel":1, "pos":2880, "length":641, "chan":0, },
		{"command": "note", "pitch":60, "vel":1, "pos":3714, "length":338, "chan":0, },
		{"command": "note", "pitch":57, "vel":1, "pos":3840, "length":480, "chan":0, },
		{"command": "note", "pitch":53, "vel":1, "pos":4320, "length":720, "chan":0, },
		{"command": "note", "pitch":57, "vel":1, "pos":4800, "length":641, "chan":0, },
		{"command": "note", "pitch":58, "vel":56, "pos":5634, "length":338, "chan":0, },
		{"command": "note", "pitch":57, "vel":56, "pos":5760, "length":480, "chan":0, },
		{"command": "note", "pitch":53, "vel":56, "pos":6240, "length":720, "chan":0, },
		{"command": "note", "pitch":57, "vel":56, "pos":6720, "length":641, "chan":0, },
		{"command": "note", "pitch":60, "vel":56, "pos":7554, "length":338, "chan":0, },
		{"command": "note", "pitch":57, "vel":56, "pos":7680, "length":480, "chan":0, },
		{"command": "note", "pitch":53, "vel":56, "pos":8160, "length":720, "chan":0, },
		{"command": "note", "pitch":57, "vel":56, "pos":8640, "length":641, "chan":0, },
		{"command": "note", "pitch":58, "vel":1, "pos":9474, "length":338, "chan":0, },
		{"command": "note", "pitch":57, "vel":1, "pos":9600, "length":480, "chan":0, },
		{"command": "note", "pitch":50, "vel":1, "pos":10067, "length":733, "chan":0, },
		{"command": "note", "pitch":53, "vel":1, "pos":10080, "length":720, "chan":0, },
		{"command": "note", "pitch":57, "vel":1, "pos":10560, "length":641, "chan":0, },
		{"command": "note", "pitch":60, "vel":1, "pos":11394, "length":338, "chan":0, },
		{"command": "note", "pitch":57, "vel":1, "pos":11520, "length":480, "chan":0, },
		{"command": "note", "pitch":50, "vel":1, "pos":11987, "length":733, "chan":0, },
		{"command": "note", "pitch":53, "vel":1, "pos":12000, "length":720, "chan":0, },
		{"command": "note", "pitch":57, "vel":1, "pos":12480, "length":641, "chan":0, },
		{"command": "note", "pitch":58, "vel":56, "pos":13314, "length":338, "chan":0, },
		{"command": "note", "pitch":57, "vel":56, "pos":13440, "length":480, "chan":0, },
		{"command": "note", "pitch":50, "vel":56, "pos":13907, "length":733, "chan":0, },
		{"command": "note", "pitch":53, "vel":56, "pos":13920, "length":720, "chan":0, },
		{"command": "note", "pitch":57, "vel":56, "pos":14400, "length":641, "chan":0, },
		{"command": "note", "pitch":60, "vel":56, "pos":15234, "length":338, "chan":0, },
		{"command": "note", "pitch":57, "vel":56, "pos":15360, "length":480, "chan":0, },
		{"command": "note", "pitch":50, "vel":56, "pos":15827, "length":733, "chan":0, },
		{"command": "note", "pitch":53, "vel":56, "pos":15840, "length":720, "chan":0, },
		{"command": "note", "pitch":57, "vel":56, "pos":16320, "length":641, "chan":0, },
		{"command": "note", "pitch":58, "vel":1, "pos":17154, "length":338, "chan":0, },
		{"command": "note", "pitch":57, "vel":1, "pos":17280, "length":480, "chan":0, },
		{"command": "note", "pitch":48, "vel":1, "pos":17747, "length":733, "chan":0, },
		{"command": "note", "pitch":53, "vel":1, "pos":17760, "length":720, "chan":0, },
		{"command": "note", "pitch":57, "vel":1, "pos":18240, "length":641, "chan":0, },
		{"command": "note", "pitch":60, "vel":1, "pos":19074, "length":338, "chan":0, },
		{"command": "note", "pitch":57, "vel":1, "pos":19200, "length":480, "chan":0, },
		{"command": "note", "pitch":48, "vel":1, "pos":19667, "length":733, "chan":0, },
		{"command": "note", "pitch":53, "vel":1, "pos":19680, "length":720, "chan":0, },
		{"command": "note", "pitch":57, "vel":1, "pos":20160, "length":641, "chan":0, },
		{"command": "note", "pitch":58, "vel":56, "pos":20994, "length":338, "chan":0, },
		{"command": "note", "pitch":57, "vel":56, "pos":21120, "length":480, "chan":0, },
		{"command": "note", "pitch":48, "vel":56, "pos":21587, "length":733, "chan":0, },
		{"command": "note", "pitch":53, "vel":56, "pos":21600, "length":720, "chan":0, },
		{"command": "note", "pitch":57, "vel":56, "pos":22080, "length":641, "chan":0, },
		{"command": "note", "pitch":60, "vel":56, "pos":22914, "length":338, "chan":0, },
		{"command": "note", "pitch":57, "vel":56, "pos":23040, "length":480, "chan":0, },
		{"command": "note", "pitch":48, "vel":56, "pos":23507, "length":733, "chan":0, },
		{"command": "note", "pitch":53, "vel":56, "pos":23520, "length":720, "chan":0, },
		{"command": "note", "pitch":57, "vel":56, "pos":24000, "length":641, "chan":0, },
		{"command": "note", "pitch":62, "vel":1, "pos":24834, "length":338, "chan":0, },
		{"command": "note", "pitch":57, "vel":1, "pos":24960, "length":480, "chan":0, },
		{"command": "note", "pitch":50, "vel":1, "pos":25427, "length":733, "chan":0, },
		{"command": "note", "pitch":53, "vel":1, "pos":25440, "length":720, "chan":0, },
		{"command": "note", "pitch":57, "vel":1, "pos":25920, "length":641, "chan":0, },
		{"command": "note", "pitch":60, "vel":1, "pos":26754, "length":338, "chan":0, },
		{"command": "note", "pitch":57, "vel":1, "pos":26880, "length":480, "chan":0, },
		{"command": "note", "pitch":50, "vel":1, "pos":27347, "length":733, "chan":0, },
		{"command": "note", "pitch":53, "vel":1, "pos":27360, "length":720, "chan":0, },
		{"command": "note", "pitch":57, "vel":1, "pos":27840, "length":641, "chan":0, },
		{"command": "note", "pitch":58, "vel":56, "pos":28674, "length":338, "chan":0, },
		{"command": "note", "pitch":57, "vel":56, "pos":28800, "length":480, "chan":0, },
		{"command": "note", "pitch":50, "vel":56, "pos":29267, "length":733, "chan":0, },
		{"command": "note", "pitch":53, "vel":56, "pos":29280, "length":720, "chan":0, },
		{"command": "note", "pitch":57, "vel":56, "pos":29760, "length":641, "chan":0, },
		{"command": "note", "pitch":60, "vel":56, "pos":30594, "length":338, "chan":0, },
		{"command": "note", "pitch":57, "vel":56, "pos":30720, "length":480, "chan":0, },
		{"command": "note", "pitch":50, "vel":56, "pos":31187, "length":733, "chan":0, },
		{"command": "note", "pitch":53, "vel":56, "pos":31200, "length":720, "chan":0, },
		{"command": "note", "pitch":57, "vel":56, "pos":31680, "length":641, "chan":0, },
		{"command": "note", "pitch":62, "vel":1, "pos":32514, "length":338, "chan":0, },
		{"command": "note", "pitch":57, "vel":1, "pos":32640, "length":480, "chan":0, },
		{"command": "note", "pitch":48, "vel":1, "pos":33107, "length":733, "chan":0, },
		{"command": "note", "pitch":53, "vel":1, "pos":33120, "length":720, "chan":0, },
		{"command": "note", "pitch":57, "vel":1, "pos":33600, "length":641, "chan":0, },
		{"command": "note", "pitch":60, "vel":1, "pos":34434, "length":338, "chan":0, },
		{"command": "note", "pitch":57, "vel":1, "pos":34560, "length":480, "chan":0, },
		{"command": "note", "pitch":48, "vel":1, "pos":35027, "length":733, "chan":0, },
		{"command": "note", "pitch":53, "vel":1, "pos":35040, "length":720, "chan":0, },
		{"command": "note", "pitch":57, "vel":1, "pos":35520, "length":641, "chan":0, },
		{"command": "note", "pitch":57, "vel":56, "pos":36354, "length":338, "chan":0, },
		{"command": "note", "pitch":53, "vel":56, "pos":36480, "length":1200, "chan":0, },
		{"command": "note", "pitch":48, "vel":56, "pos":36947, "length":733, "chan":0, },
		{"command": "note", "pitch":57, "vel":56, "pos":37440, "length":641, "chan":0, },
		{"command": "note", "pitch":60, "vel":56, "pos":38274, "length":338, "chan":0, },
		{"command": "note", "pitch":57, "vel":56, "pos":38400, "length":480, "chan":0, },
		{"command": "note", "pitch":48, "vel":56, "pos":38867, "length":733, "chan":0, },
		{"command": "note", "pitch":53, "vel":56, "pos":38880, "length":720, "chan":0, },
		{"command": "note", "pitch":57, "vel":56, "pos":39360, "length":641, "chan":0, },
		{"command": "note", "pitch":65, "vel":1, "pos":40320, "length":362, "chan":0, },
		{"command": "note", "pitch":60, "vel":1, "pos":40320, "length":480, "chan":0, },
		{"command": "note", "pitch":46, "vel":1, "pos":40787, "length":733, "chan":0, },
		{"command": "note", "pitch":50, "vel":1, "pos":40787, "length":733, "chan":0, },
		{"command": "note", "pitch":53, "vel":1, "pos":40800, "length":720, "chan":0, },
		{"command": "note", "pitch":57, "vel":1, "pos":41280, "length":641, "chan":0, },
		{"command": "note", "pitch":65, "vel":1, "pos":42114, "length":338, "chan":0, },
		{"command": "note", "pitch":60, "vel":1, "pos":42240, "length":405, "chan":0, },
		{"command": "note", "pitch":46, "vel":1, "pos":42707, "length":733, "chan":0, },
		{"command": "note", "pitch":50, "vel":1, "pos":42707, "length":733, "chan":0, },
		{"command": "note", "pitch":53, "vel":1, "pos":42720, "length":720, "chan":0, },
		{"command": "note", "pitch":57, "vel":1, "pos":43200, "length":641, "chan":0, },
		{"command": "note", "pitch":64, "vel":57, "pos":44034, "length":338, "chan":0, },
		{"command": "note", "pitch":60, "vel":57, "pos":44160, "length":405, "chan":0, },
		{"command": "note", "pitch":46, "vel":56, "pos":44627, "length":733, "chan":0, },
		{"command": "note", "pitch":50, "vel":56, "pos":44627, "length":733, "chan":0, },
		{"command": "note", "pitch":53, "vel":56, "pos":44640, "length":720, "chan":0, },
		{"command": "note", "pitch":57, "vel":56, "pos":45120, "length":641, "chan":0, },
		{"command": "note", "pitch":64, "vel":56, "pos":45954, "length":338, "chan":0, },
		{"command": "note", "pitch":60, "vel":61, "pos":46080, "length":338, "chan":0, },
		{"command": "note", "pitch":57, "vel":56, "pos":46080, "length":480, "chan":0, },
		{"command": "note", "pitch":46, "vel":56, "pos":46547, "length":733, "chan":0, },
		{"command": "note", "pitch":50, "vel":56, "pos":46547, "length":733, "chan":0, },
		{"command": "note", "pitch":53, "vel":56, "pos":46560, "length":720, "chan":0, },
		{"command": "note", "pitch":57, "vel":56, "pos":47040, "length":641, "chan":0, },
		{"command": "note", "pitch":65, "vel":127, "pos":48000, "length":362, "chan":0, },
		{"command": "note", "pitch":60, "vel":127, "pos":48000, "length":480, "chan":0, },
		{"command": "note", "pitch":46, "vel":127, "pos":48467, "length":733, "chan":0, },
		{"command": "note", "pitch":49, "vel":127, "pos":48467, "length":733, "chan":0, },
		{"command": "note", "pitch":53, "vel":127, "pos":48480, "length":720, "chan":0, },
		{"command": "note", "pitch":57, "vel":127, "pos":48960, "length":641, "chan":0, },
		{"command": "note", "pitch":65, "vel":127, "pos":49794, "length":338, "chan":0, },
		{"command": "note", "pitch":60, "vel":127, "pos":49920, "length":405, "chan":0, },
		{"command": "note", "pitch":46, "vel":127, "pos":50387, "length":733, "chan":0, },
		{"command": "note", "pitch":49, "vel":127, "pos":50387, "length":733, "chan":0, },
		{"command": "note", "pitch":53, "vel":127, "pos":50400, "length":720, "chan":0, },
		{"command": "note", "pitch":57, "vel":127, "pos":50880, "length":641, "chan":0, },
		{"command": "note", "pitch":63, "vel":57, "pos":51714, "length":338, "chan":0, },
		{"command": "note", "pitch":60, "vel":57, "pos":51840, "length":405, "chan":0, },
		{"command": "note", "pitch":46, "vel":56, "pos":52307, "length":733, "chan":0, },
		{"command": "note", "pitch":49, "vel":56, "pos":52307, "length":733, "chan":0, },
		{"command": "note", "pitch":53, "vel":56, "pos":52320, "length":720, "chan":0, },
		{"command": "note", "pitch":57, "vel":56, "pos":52800, "length":641, "chan":0, },
		{"command": "note", "pitch":61, "vel":56, "pos":53634, "length":338, "chan":0, },
		{"command": "note", "pitch":60, "vel":61, "pos":53760, "length":338, "chan":0, },
		{"command": "note", "pitch":57, "vel":56, "pos":53760, "length":480, "chan":0, },
		{"command": "note", "pitch":46, "vel":56, "pos":54227, "length":733, "chan":0, },
		{"command": "note", "pitch":49, "vel":56, "pos":54227, "length":733, "chan":0, },
		{"command": "note", "pitch":53, "vel":56, "pos":54240, "length":720, "chan":0, },
		{"command": "note", "pitch":57, "vel":56, "pos":54720, "length":641, "chan":0, },
		{"command": "note", "pitch":58, "vel":97, "pos":55554, "length":338, "chan":0, },
		{"command": "note", "pitch":41, "vel":97, "pos":55554, "length":338, "chan":0, },
		{"command": "note", "pitch":45, "vel":97, "pos":55680, "length":338, "chan":0, },
		{"command": "note", "pitch":57, "vel":97, "pos":55680, "length":480, "chan":0, },
		{"command": "note", "pitch":53, "vel":97, "pos":56160, "length":720, "chan":0, },
		{"command": "note", "pitch":41, "vel":97, "pos":56514, "length":338, "chan":0, },
		{"command": "note", "pitch":45, "vel":97, "pos":56640, "length":338, "chan":0, },
		{"command": "note", "pitch":57, "vel":97, "pos":56640, "length":641, "chan":0, },
		{"command": "note", "pitch":60, "vel":97, "pos":57474, "length":338, "chan":0, },
		{"command": "note", "pitch":41, "vel":97, "pos":57474, "length":338, "chan":0, },
		{"command": "note", "pitch":57, "vel":97, "pos":57600, "length":480, "chan":0, },
		{"command": "note", "pitch":45, "vel":97, "pos":57600, "length":338, "chan":0, },
		{"command": "note", "pitch":53, "vel":97, "pos":58080, "length":720, "chan":0, },
		{"command": "note", "pitch":41, "vel":97, "pos":58434, "length":338, "chan":0, },
		{"command": "note", "pitch":45, "vel":97, "pos":58560, "length":338, "chan":0, },
		{"command": "note", "pitch":57, "vel":97, "pos":58560, "length":641, "chan":0, },
		{"command": "note", "pitch":58, "vel":67, "pos":59394, "length":338, "chan":0, },
		{"command": "note", "pitch":41, "vel":67, "pos":59394, "length":338, "chan":0, },
		{"command": "note", "pitch":45, "vel":67, "pos":59520, "length":338, "chan":0, },
		{"command": "note", "pitch":57, "vel":67, "pos":59520, "length":480, "chan":0, },
		{"command": "note", "pitch":53, "vel":67, "pos":60000, "length":720, "chan":0, },
		{"command": "note", "pitch":41, "vel":67, "pos":60354, "length":338, "chan":0, },
		{"command": "note", "pitch":45, "vel":67, "pos":60480, "length":338, "chan":0, },
		{"command": "note", "pitch":57, "vel":67, "pos":60480, "length":641, "chan":0, },
		{"command": "note", "pitch":60, "vel":67, "pos":61314, "length":338, "chan":0, },
		{"command": "note", "pitch":41, "vel":67, "pos":61314, "length":338, "chan":0, },
		{"command": "note", "pitch":57, "vel":67, "pos":61440, "length":480, "chan":0, },
		{"command": "note", "pitch":45, "vel":67, "pos":61440, "length":338, "chan":0, },
		{"command": "note", "pitch":53, "vel":67, "pos":61920, "length":720, "chan":0, },
		{"command": "note", "pitch":41, "vel":67, "pos":62274, "length":338, "chan":0, },
		{"command": "note", "pitch":45, "vel":67, "pos":62400, "length":338, "chan":0, },
		{"command": "note", "pitch":57, "vel":67, "pos":62400, "length":641, "chan":0, },
		{"command": "note", "pitch":58, "vel":27, "pos":63234, "length":338, "chan":0, },
		{"command": "note", "pitch":41, "vel":27, "pos":63234, "length":338, "chan":0, },
		{"command": "note", "pitch":45, "vel":27, "pos":63360, "length":338, "chan":0, },
		{"command": "note", "pitch":57, "vel":27, "pos":63360, "length":480, "chan":0, },
		{"command": "note", "pitch":53, "vel":27, "pos":63840, "length":720, "chan":0, },
		{"command": "note", "pitch":41, "vel":27, "pos":64194, "length":338, "chan":0, },
		{"command": "note", "pitch":45, "vel":27, "pos":64320, "length":338, "chan":0, },
		{"command": "note", "pitch":57, "vel":27, "pos":64320, "length":641, "chan":0, },
		{"command": "note", "pitch":60, "vel":27, "pos":65154, "length":338, "chan":0, },
		{"command": "note", "pitch":41, "vel":27, "pos":65154, "length":338, "chan":0, },
		{"command": "note", "pitch":57, "vel":27, "pos":65280, "length":480, "chan":0, },
		{"command": "note", "pitch":45, "vel":27, "pos":65280, "length":338, "chan":0, },
		{"command": "note", "pitch":53, "vel":27, "pos":65760, "length":720, "chan":0, },
		{"command": "note", "pitch":41, "vel":27, "pos":66114, "length":338, "chan":0, },
		{"command": "note", "pitch":45, "vel":27, "pos":66240, "length":338, "chan":0, },
		{"command": "note", "pitch":57, "vel":27, "pos":66240, "length":641, "chan":0, },
		{"command": "note", "pitch":58, "vel":1, "pos":67074, "length":338, "chan":0, },
		{"command": "note", "pitch":41, "vel":1, "pos":67074, "length":338, "chan":0, },
		{"command": "note", "pitch":45, "vel":1, "pos":67200, "length":338, "chan":0, },
		{"command": "note", "pitch":57, "vel":1, "pos":67200, "length":480, "chan":0, },
		{"command": "note", "pitch":53, "vel":1, "pos":67680, "length":720, "chan":0, },
		{"command": "note", "pitch":41, "vel":1, "pos":68034, "length":338, "chan":0, },
		{"command": "note", "pitch":45, "vel":1, "pos":68160, "length":338, "chan":0, },
		{"command": "note", "pitch":57, "vel":1, "pos":68160, "length":641, "chan":0, },
		{"command": "note", "pitch":60, "vel":1, "pos":68994, "length":338, "chan":0, },
		{"command": "note", "pitch":41, "vel":1, "pos":68994, "length":338, "chan":0, },
		{"command": "note", "pitch":57, "vel":1, "pos":69120, "length":480, "chan":0, },
		{"command": "note", "pitch":45, "vel":1, "pos":69120, "length":338, "chan":0, },
		{"command": "note", "pitch":53, "vel":1, "pos":69600, "length":720, "chan":0, },
		{"command": "note", "pitch":41, "vel":1, "pos":69954, "length":338, "chan":0, },
		{"command": "note", "pitch":45, "vel":1, "pos":70080, "length":338, "chan":0, },
		{"command": "note", "pitch":57, "vel":1, "pos":70080, "length":641, "chan":0, },
	],
	[
		{"command": "keyswitch", "ks_type": "direction", "pos":0, "index":2},
		{"command": "keyswitch", "ks_type": "speed", "pos":0, "index":1},
		{"command": "keyswitch", "ks_type": "direction", "pos":0, "index":0},
		{"command": "keyswitch", "ks_type": "direction", "pos":0, "index":2},
		{"command": "keyswitch", "ks_type": "direction", "pos":0, "index":2},
		{"command": "keyswitch", "ks_type": "direction", "pos":0, "index":2},
		{"command": "note", "pitch":51, "vel":87, "pos":3840, "length":7596, "chan":0, },
		{"command": "note", "pitch":54, "vel":1, "pos":3840, "length":480, "chan":0, },
		{"command": "note", "pitch":46, "vel":1, "pos":4800, "length":480, "chan":0, },
		{"command": "note", "pitch":54, "vel":61, "pos":6720, "length":480, "chan":0, },
		{"command": "note", "pitch":46, "vel":61, "pos":7680, "length":480, "chan":0, },
		{"command": "note", "pitch":54, "vel":21, "pos":9600, "length":480, "chan":0, },
		{"command": "note", "pitch":46, "vel":21, "pos":10560, "length":480, "chan":0, },
		{"command": "note", "pitch":51, "vel":67, "pos":11474, "length":7642, "chan":0, },
		{"command": "note", "pitch":56, "vel":91, "pos":11520, "length":480, "chan":0, },
		{"command": "note", "pitch":48, "vel":41, "pos":12480, "length":414, "chan":0, },
		{"command": "note", "pitch":56, "vel":41, "pos":14400, "length":480, "chan":0, },
		{"command": "note", "pitch":48, "vel":41, "pos":15360, "length":480, "chan":0, },
		{"command": "note", "pitch":56, "vel":11, "pos":17280, "length":480, "chan":0, },
		{"command": "note", "pitch":48, "vel":11, "pos":18240, "length":480, "chan":0, },
		{"command": "keyswitch", "ks_type": "direction", "pos":18320, "index":2},
		{"command": "note", "pitch":51, "vel":87, "pos":19200, "length":15276, "chan":0, },
		{"command": "note", "pitch":54, "vel":1, "pos":19200, "length":960, "chan":0, },
		{"command": "note", "pitch":46, "vel":1, "pos":20160, "length":960, "chan":0, },
		{"command": "note", "pitch":54, "vel":61, "pos":21120, "length":960, "chan":0, },
		{"command": "note", "pitch":46, "vel":61, "pos":22080, "length":960, "chan":0, },
		{"command": "note", "pitch":54, "vel":101, "pos":23040, "length":960, "chan":0, },
		{"command": "note", "pitch":46, "vel":101, "pos":24000, "length":960, "chan":0, },
		{"command": "note", "pitch":54, "vel":61, "pos":24960, "length":960, "chan":0, },
		{"command": "note", "pitch":46, "vel":61, "pos":25920, "length":960, "chan":0, },
		{"command": "note", "pitch":56, "vel":51, "pos":26880, "length":960, "chan":0, },
		{"command": "note", "pitch":48, "vel":51, "pos":27840, "length":960, "chan":0, },
		{"command": "note", "pitch":56, "vel":51, "pos":28800, "length":960, "chan":0, },
		{"command": "note", "pitch":48, "vel":51, "pos":29760, "length":960, "chan":0, },
		{"command": "note", "pitch":56, "vel":101, "pos":30720, "length":960, "chan":0, },
		{"command": "note", "pitch":48, "vel":101, "pos":31680, "length":960, "chan":0, },
		{"command": "note", "pitch":56, "vel":127, "pos":32640, "length":960, "chan":0, },
		{"command": "note", "pitch":48, "vel":127, "pos":33600, "length":960, "chan":0, },
		{"command": "note", "pitch":51, "vel":87, "pos":34560, "length":15276, "chan":0, },
		{"command": "note", "pitch":54, "vel":1, "pos":34560, "length":6240, "chan":0, },
		{"command": "note", "pitch":46, "vel":1, "pos":35520, "length":6240, "chan":0, },
		{"command": "note", "pitch":56, "vel":11, "pos":42240, "length":6240, "chan":0, },
		{"command": "note", "pitch":48, "vel":11, "pos":43200, "length":6240, "chan":0, },
	],
	[
		{"command": "keyswitch", "ks_type": "direction", "pos":0, "index":2},
		{"command": "keyswitch", "ks_type": "articulation", "pos":0, "index":1},
		{"command": "keyswitch", "ks_type": "speed", "pos":0, "index":1},
		{"command": "keyswitch", "ks_type": "direction", "pos":0, "index":0},
		{"command": "keyswitch", "ks_type": "legato", "pos":0, "index":0},
		{"command": "note", "pitch":52, "vel":84, "pos":130, "length":6111, "chan":0, },
		{"command": "note", "pitch":59, "vel":68, "pos":184, "length":5863, "chan":0, },
		{"command": "note", "pitch":60, "vel":99, "pos":695, "length":5498, "chan":0, },
		{"command": "note", "pitch":64, "vel":119, "pos":695, "length":5498, "chan":0, },
		{"command": "note", "pitch":66, "vel":119, "pos":695, "length":5498, "chan":0, },
		{"command": "note", "pitch":55, "vel":83, "pos":713, "length":5524, "chan":0, },
		{"command": "note", "pitch":49, "vel":84, "pos":7680, "length":5510, "chan":0, },
		{"command": "note", "pitch":56, "vel":68, "pos":7734, "length":5262, "chan":0, },
		{"command": "note", "pitch":57, "vel":99, "pos":8245, "length":4897, "chan":0, },
		{"command": "note", "pitch":61, "vel":99, "pos":8245, "length":4897, "chan":0, },
		{"command": "note", "pitch":63, "vel":127, "pos":8245, "length":4897, "chan":0, },
		{"command": "note", "pitch":68, "vel":127, "pos":8245, "length":4897, "chan":0, },
		{"command": "note", "pitch":52, "vel":83, "pos":8263, "length":4923, "chan":0, },
		{"command": "note", "pitch":40, "vel":84, "pos":15592, "length":6111, "chan":0, },
		{"command": "note", "pitch":47, "vel":68, "pos":15646, "length":5863, "chan":0, },
		{"command": "note", "pitch":48, "vel":99, "pos":16157, "length":5498, "chan":0, },
		{"command": "note", "pitch":52, "vel":127, "pos":16157, "length":5498, "chan":0, },
		{"command": "note", "pitch":54, "vel":127, "pos":16157, "length":5498, "chan":0, },
		{"command": "note", "pitch":43, "vel":83, "pos":16175, "length":5524, "chan":0, },
		{"command": "note", "pitch":37, "vel":84, "pos":23142, "length":5510, "chan":0, },
		{"command": "note", "pitch":44, "vel":68, "pos":23196, "length":5262, "chan":0, },
		{"command": "note", "pitch":45, "vel":99, "pos":23707, "length":4897, "chan":0, },
		{"command": "note", "pitch":49, "vel":99, "pos":23707, "length":4897, "chan":0, },
		{"command": "note", "pitch":51, "vel":127, "pos":23707, "length":4897, "chan":0, },
		{"command": "note", "pitch":56, "vel":127, "pos":23707, "length":4897, "chan":0, },
		{"command": "note", "pitch":40, "vel":83, "pos":23725, "length":4923, "chan":0, },
	],
	[
		{"command": "keyswitch", "ks_type": "articulation", "pos":0, "index":1},
		{"command": "keyswitch", "ks_type": "speed", "pos":0, "index":1},
		{"command": "keyswitch", "ks_type": "direction", "pos":0, "index":0},
		{"command": "keyswitch", "ks_type": "legato", "pos":0, "index":0},
		{"command": "keyswitch", "ks_type": "legato", "pos":0, "index":3},
		{"command": "note", "pitch":36, "vel":45, "pos":1650, "length":1952, "chan":0, },
		{"command": "note", "pitch":39, "vel":68, "pos":2458, "length":1159, "chan":0, },
		{"command": "note", "pitch":43, "vel":67, "pos":6187, "length":1636, "chan":0, },
		{"command": "note", "pitch":39, "vel":64, "pos":6997, "length":836, "chan":0, },
		{"command": "note", "pitch":38, "vel":79, "pos":10366, "length":5405, "chan":0, },
		{"command": "note", "pitch":39, "vel":90, "pos":10975, "length":4878, "chan":0, },
		{"command": "note", "pitch":44, "vel":87, "pos":17579, "length":1621, "chan":0, },
		{"command": "note", "pitch":43, "vel":87, "pos":17967, "length":8641, "chan":0, },
		{"command": "note", "pitch":46, "vel":84, "pos":22080, "length":5760, "chan":0, },
		{"command": "note", "pitch":48, "vel":84, "pos":26880, "length":10560, "chan":0, },
		{"command": "note", "pitch":43, "vel":84, "pos":29760, "length":8640, "chan":0, },
		{"command": "keyswitch", "ks_type": "legato", "pos":36480, "index":3},
		{"command": "pedal", "value":127, "pos":967, "chan":0, },
		{"command": "pedal", "value":0, "pos":44160, "chan":0, },
	],
	[
		{"command": "keyswitch", "ks_type": "legato", "pos":1, "index":3},
		{"command": "keyswitch", "ks_type": "legato", "pos":1, "index":3},
		{"command": "keyswitch", "ks_type": "direction", "pos":1, "index":0},
		{"command": "keyswitch", "ks_type": "speed", "pos":1, "index":1},
		{"command": "keyswitch", "ks_type": "legato", "pos":1, "index":3},
		{"command": "note", "pitch":37, "vel":96, "pos":991, "length":960, "chan":0, },
		{"command": "note", "pitch":44, "vel":96, "pos":1013, "length":960, "chan":0, },
		{"command": "note", "pitch":40, "vel":96, "pos":1041, "length":960, "chan":0, },
		{"command": "note", "pitch":37, "vel":96, "pos":4646, "length":1145, "chan":0, },
		{"command": "note", "pitch":45, "vel":96, "pos":4668, "length":1145, "chan":0, },
		{"command": "note", "pitch":40, "vel":96, "pos":4794, "length":1047, "chan":0, },
		{"command": "note", "pitch":37, "vel":96, "pos":8671, "length":960, "chan":0, },
		{"command": "note", "pitch":44, "vel":96, "pos":8693, "length":960, "chan":0, },
		{"command": "note", "pitch":40, "vel":96, "pos":8721, "length":960, "chan":0, },
		{"command": "note", "pitch":36, "vel":96, "pos":12326, "length":1145, "chan":0, },
		{"command": "note", "pitch":44, "vel":96, "pos":12348, "length":1145, "chan":0, },
		{"command": "note", "pitch":39, "vel":96, "pos":12474, "length":1047, "chan":0, },
		{"command": "note", "pitch":37, "vel":96, "pos":16351, "length":960, "chan":0, },
		{"command": "note", "pitch":49, "vel":96, "pos":16351, "length":960, "chan":0, },
		{"command": "note", "pitch":56, "vel":96, "pos":16373, "length":960, "chan":0, },
		{"command": "note", "pitch":44, "vel":96, "pos":16401, "length":932, "chan":0, },
		{"command": "note", "pitch":40, "vel":96, "pos":16401, "length":960, "chan":0, },
		{"command": "note", "pitch":52, "vel":96, "pos":16401, "length":960, "chan":0, },
		{"command": "note", "pitch":37, "vel":96, "pos":19755, "length":1396, "chan":0, },
		{"command": "note", "pitch":49, "vel":96, "pos":19755, "length":1396, "chan":0, },
		{"command": "note", "pitch":45, "vel":96, "pos":19777, "length":1396, "chan":0, },
		{"command": "note", "pitch":57, "vel":96, "pos":19777, "length":1396, "chan":0, },
		{"command": "note", "pitch":40, "vel":96, "pos":19903, "length":1298, "chan":0, },
		{"command": "note", "pitch":52, "vel":96, "pos":19903, "length":1298, "chan":0, },
		{"command": "note", "pitch":37, "vel":96, "pos":23898, "length":1134, "chan":0, },
		{"command": "note", "pitch":49, "vel":96, "pos":23898, "length":1134, "chan":0, },
		{"command": "note", "pitch":44, "vel":96, "pos":23920, "length":1134, "chan":0, },
		{"command": "note", "pitch":56, "vel":96, "pos":23920, "length":1134, "chan":0, },
		{"command": "note", "pitch":40, "vel":96, "pos":23948, "length":1134, "chan":0, },
		{"command": "note", "pitch":52, "vel":96, "pos":23948, "length":1134, "chan":0, },
		{"command": "note", "pitch":36, "vel":96, "pos":27588, "length":1243, "chan":0, },
		{"command": "note", "pitch":48, "vel":96, "pos":27588, "length":1243, "chan":0, },
		{"command": "note", "pitch":44, "vel":96, "pos":27610, "length":1243, "chan":0, },
		{"command": "note", "pitch":56, "vel":96, "pos":27610, "length":1243, "chan":0, },
		{"command": "note", "pitch":39, "vel":96, "pos":27736, "length":1145, "chan":0, },
		{"command": "note", "pitch":51, "vel":96, "pos":27736, "length":1145, "chan":0, },
		{"command": "keyswitch", "ks_type": "legato", "pos":30721, "index":3},
		{"command": "pedal", "value":0, "pos":561, "chan":0, },
		{"command": "pedal", "value":127, "pos":1041, "chan":0, },
		{"command": "pedal", "value":0, "pos":4881, "chan":0, },
		{"command": "pedal", "value":127, "pos":5361, "chan":0, },
		{"command": "pedal", "value":0, "pos":8721, "chan":0, },
		{"command": "pedal", "value":127, "pos":9201, "chan":0, },
		{"command": "pedal", "value":0, "pos":12561, "chan":0, },
		{"command": "pedal", "value":127, "pos":13041, "chan":0, },
		{"command": "pedal", "value":0, "pos":16401, "chan":0, },
		{"command": "pedal", "value":127, "pos":16881, "chan":0, },
		{"command": "pedal", "value":0, "pos":20241, "chan":0, },
		{"command": "pedal", "value":127, "pos":20721, "chan":0, },
		{"command": "pedal", "value":0, "pos":24081, "chan":0, },
		{"command": "pedal", "value":127, "pos":24561, "chan":0, },
		{"command": "pedal", "value":0, "pos":27921, "chan":0, },
		{"command": "pedal", "value":127, "pos":28401, "chan":0, },
		{"command": "pedal", "value":0, "pos":31761, "chan":0, },
	],
	[
		{"command": "keyswitch", "ks_type": "articulation", "pos":0, "index":1},
		{"command": "keyswitch", "ks_type": "speed", "pos":0, "index":1},
		{"command": "keyswitch", "ks_type": "speed", "pos":0, "index":1},
		{"command": "keyswitch", "ks_type": "direction", "pos":0, "index":2},
		{"command": "keyswitch", "ks_type": "direction", "pos":0, "index":2},
		{"command": "note", "pitch":40, "vel":75, "pos":1918, "length":456, "chan":0, },
		{"command": "note", "pitch":43, "vel":72, "pos":1919, "length":433, "chan":0, },
		{"command": "note", "pitch":47, "vel":69, "pos":1920, "length":460, "chan":0, },
		{"command": "note", "pitch":42, "vel":90, "pos":5755, "length":393, "chan":0, },
		{"command": "note", "pitch":38, "vel":84, "pos":5758, "length":418, "chan":0, },
		{"command": "note", "pitch":47, "vel":88, "pos":5760, "length":431, "chan":0, },
		{"command": "note", "pitch":40, "vel":82, "pos":9587, "length":619, "chan":0, },
		{"command": "note", "pitch":36, "vel":84, "pos":9588, "length":602, "chan":0, },
		{"command": "note", "pitch":43, "vel":80, "pos":9599, "length":583, "chan":0, },
		{"command": "note", "pitch":47, "vel":83, "pos":9600, "length":610, "chan":0, },
		{"command": "note", "pitch":38, "vel":81, "pos":13438, "length":925, "chan":0, },
		{"command": "note", "pitch":42, "vel":71, "pos":13438, "length":929, "chan":0, },
		{"command": "note", "pitch":47, "vel":78, "pos":13440, "length":959, "chan":0, },
		{"command": "note", "pitch":40, "vel":88, "pos":17279, "length":1042, "chan":0, },
		{"command": "note", "pitch":43, "vel":90, "pos":17279, "length":1052, "chan":0, },
		{"command": "note", "pitch":47, "vel":98, "pos":17280, "length":1071, "chan":0, },
		{"command": "note", "pitch":48, "vel":83, "pos":21120, "length":1283, "chan":0, },
		{"command": "note", "pitch":40, "vel":90, "pos":21133, "length":1234, "chan":0, },
		{"command": "note", "pitch":43, "vel":75, "pos":21134, "length":1232, "chan":0, },
		{"command": "note", "pitch":38, "vel":81, "pos":24959, "length":759, "chan":0, },
		{"command": "note", "pitch":47, "vel":87, "pos":24960, "length":716, "chan":0, },
		{"command": "note", "pitch":50, "vel":84, "pos":24960, "length":736, "chan":0, },
		{"command": "note", "pitch":43, "vel":76, "pos":24960, "length":716, "chan":0, },
		{"command": "note", "pitch":42, "vel":89, "pos":28800, "length":1002, "chan":0, },
		{"command": "note", "pitch":51, "vel":74, "pos":28800, "length":1020, "chan":0, },
		{"command": "note", "pitch":39, "vel":71, "pos":28800, "length":1022, "chan":0, },
		{"command": "note", "pitch":47, "vel":80, "pos":28813, "length":1002, "chan":0, },
	],
	[
		{"command": "keyswitch", "ks_type": "articulation", "pos":0, "index":2},
		{"command": "keyswitch", "ks_type": "speed", "pos":0, "index":1},
		{"command": "keyswitch", "ks_type": "speed", "pos":0, "index":1},
		{"command": "keyswitch", "ks_type": "speed", "pos":0, "index":1},
		{"command": "keyswitch", "ks_type": "legato", "pos":0, "index":3},
		{"command": "note", "pitch":47, "vel":66, "pos":3840, "length":7680, "chan":0, },
		{"command": "note", "pitch":38, "vel":71, "pos":3840, "length":7680, "chan":0, },
		{"command": "note", "pitch":50, "vel":61, "pos":3840, "length":7680, "chan":0, },
		{"command": "note", "pitch":43, "vel":65, "pos":3840, "length":7680, "chan":0, },
		{"command": "note", "pitch":39, "vel":83, "pos":11520, "length":7680, "chan":0, },
		{"command": "note", "pitch":51, "vel":85, "pos":11520, "length":7680, "chan":0, },
		{"command": "note", "pitch":46, "vel":81, "pos":11520, "length":7680, "chan":0, },
		{"command": "note", "pitch":43, "vel":76, "pos":11520, "length":7680, "chan":0, },
		{"command": "note", "pitch":43, "vel":71, "pos":19200, "length":7680, "chan":0, },
		{"command": "note", "pitch":47, "vel":79, "pos":19200, "length":7680, "chan":0, },
		{"command": "note", "pitch":38, "vel":80, "pos":19200, "length":7680, "chan":0, },
		{"command": "note", "pitch":50, "vel":79, "pos":19200, "length":7680, "chan":0, },
		{"command": "note", "pitch":36, "vel":79, "pos":26880, "length":7680, "chan":0, },
		{"command": "note", "pitch":40, "vel":79, "pos":26880, "length":7680, "chan":0, },
		{"command": "note", "pitch":43, "vel":79, "pos":26880, "length":7680, "chan":0, },
		{"command": "note", "pitch":48, "vel":79, "pos":26880, "length":7680, "chan":0, },
		{"command": "note", "pitch":52, "vel":79, "pos":26880, "length":7680, "chan":0, },
		{"command": "note", "pitch":47, "vel":66, "pos":34560, "length":7680, "chan":0, },
		{"command": "note", "pitch":38, "vel":71, "pos":34560, "length":7680, "chan":0, },
		{"command": "note", "pitch":50, "vel":61, "pos":34560, "length":7680, "chan":0, },
		{"command": "note", "pitch":43, "vel":65, "pos":34560, "length":7680, "chan":0, },
		{"command": "note", "pitch":39, "vel":77, "pos":42240, "length":7680, "chan":0, },
		{"command": "note", "pitch":51, "vel":77, "pos":42240, "length":7680, "chan":0, },
		{"command": "note", "pitch":46, "vel":77, "pos":42240, "length":7680, "chan":0, },
		{"command": "note", "pitch":43, "vel":77, "pos":42240, "length":7680, "chan":0, },
		{"command": "note", "pitch":41, "vel":84, "pos":49920, "length":7680, "chan":0, },
		{"command": "note", "pitch":45, "vel":90, "pos":49920, "length":7680, "chan":0, },
		{"command": "note", "pitch":48, "vel":86, "pos":49920, "length":7680, "chan":0, },
		{"command": "note", "pitch":53, "vel":79, "pos":49920, "length":7680, "chan":0, },
		{"command": "note", "pitch":43, "vel":71, "pos":57600, "length":7680, "chan":0, },
		{"command": "note", "pitch":47, "vel":79, "pos":57600, "length":7680, "chan":0, },
		{"command": "note", "pitch":38, "vel":80, "pos":57600, "length":7680, "chan":0, },
		{"command": "note", "pitch":50, "vel":79, "pos":57600, "length":7680, "chan":0, },
		{"command": "note", "pitch":55, "vel":79, "pos":57600, "length":7680, "chan":0, },
		{"command": "keyswitch", "ks_type": "legato", "pos":64320, "index":3},
	],
	[
		{"command": "keyswitch", "ks_type": "articulation", "pos":0, "index":2},
		{"command": "keyswitch", "ks_type": "speed", "pos":0, "index":1},
		{"command": "keyswitch", "ks_type": "speed", "pos":0, "index":1},
		{"command": "keyswitch", "ks_type": "speed", "pos":0, "index":1},
		{"command": "keyswitch", "ks_type": "legato", "pos":0, "index":3},
		{"command": "note", "pitch":39, "vel":47, "pos":479, "length":3110, "chan":0, },
		{"command": "note", "pitch":44, "vel":33, "pos":479, "length":3150, "chan":0, },
		{"command": "note", "pitch":51, "vel":44, "pos":479, "length":3155, "chan":0, },
		{"command": "note", "pitch":56, "vel":76, "pos":480, "length":3097, "chan":0, },
		{"command": "note", "pitch":55, "vel":44, "pos":501, "length":3095, "chan":0, },
		{"command": "note", "pitch":43, "vel":46, "pos":518, "length":3098, "chan":0, },
		{"command": "note", "pitch":36, "vel":36, "pos":520, "length":3090, "chan":0, },
		{"command": "note", "pitch":48, "vel":34, "pos":530, "length":3064, "chan":0, },
		{"command": "note", "pitch":58, "vel":77, "pos":4320, "length":3222, "chan":0, },
		{"command": "note", "pitch":46, "vel":61, "pos":4325, "length":3249, "chan":0, },
		{"command": "note", "pitch":51, "vel":61, "pos":4325, "length":3282, "chan":0, },
		{"command": "note", "pitch":39, "vel":44, "pos":4335, "length":3218, "chan":0, },
		{"command": "note", "pitch":43, "vel":52, "pos":4336, "length":3207, "chan":0, },
		{"command": "note", "pitch":36, "vel":52, "pos":4350, "length":3186, "chan":0, },
		{"command": "note", "pitch":55, "vel":59, "pos":4354, "length":3194, "chan":0, },
		{"command": "note", "pitch":48, "vel":42, "pos":4373, "length":3194, "chan":0, },
		{"command": "note", "pitch":44, "vel":58, "pos":8148, "length":3194, "chan":0, },
		{"command": "note", "pitch":56, "vel":76, "pos":8160, "length":3173, "chan":0, },
		{"command": "note", "pitch":51, "vel":61, "pos":8167, "length":3179, "chan":0, },
		{"command": "note", "pitch":36, "vel":59, "pos":8177, "length":3118, "chan":0, },
		{"command": "note", "pitch":43, "vel":64, "pos":8178, "length":3137, "chan":0, },
		{"command": "note", "pitch":55, "vel":69, "pos":8179, "length":3135, "chan":0, },
		{"command": "note", "pitch":39, "vel":49, "pos":8190, "length":3146, "chan":0, },
		{"command": "note", "pitch":48, "vel":40, "pos":8215, "length":3094, "chan":0, },
		{"command": "note", "pitch":58, "vel":90, "pos":11915, "length":2661, "chan":0, },
		{"command": "note", "pitch":46, "vel":76, "pos":11921, "length":2639, "chan":0, },
		{"command": "note", "pitch":43, "vel":67, "pos":11927, "length":2561, "chan":0, },
		{"command": "note", "pitch":36, "vel":65, "pos":11934, "length":2604, "chan":0, },
		{"command": "note", "pitch":39, "vel":61, "pos":11934, "length":2626, "chan":0, },
		{"command": "note", "pitch":51, "vel":64, "pos":11934, "length":2646, "chan":0, },
		{"command": "note", "pitch":55, "vel":50, "pos":11975, "length":2551, "chan":0, },
		{"command": "note", "pitch":48, "vel":47, "pos":11982, "length":2548, "chan":0, },
		{"command": "note", "pitch":43, "vel":47, "pos":15778, "length":3110, "chan":0, },
		{"command": "note", "pitch":48, "vel":33, "pos":15778, "length":3150, "chan":0, },
		{"command": "note", "pitch":55, "vel":44, "pos":15778, "length":3155, "chan":0, },
		{"command": "note", "pitch":60, "vel":76, "pos":15779, "length":3097, "chan":0, },
		{"command": "note", "pitch":58, "vel":44, "pos":15800, "length":3095, "chan":0, },
		{"command": "note", "pitch":46, "vel":46, "pos":15817, "length":3098, "chan":0, },
		{"command": "note", "pitch":39, "vel":36, "pos":15819, "length":3090, "chan":0, },
		{"command": "note", "pitch":51, "vel":34, "pos":15829, "length":3064, "chan":0, },
		{"command": "note", "pitch":62, "vel":77, "pos":19619, "length":3222, "chan":0, },
		{"command": "note", "pitch":50, "vel":61, "pos":19624, "length":3249, "chan":0, },
		{"command": "note", "pitch":55, "vel":61, "pos":19624, "length":3282, "chan":0, },
		{"command": "note", "pitch":43, "vel":44, "pos":19634, "length":3218, "chan":0, },
		{"command": "note", "pitch":46, "vel":52, "pos":19635, "length":3207, "chan":0, },
		{"command": "note", "pitch":39, "vel":52, "pos":19649, "length":3186, "chan":0, },
		{"command": "note", "pitch":58, "vel":59, "pos":19653, "length":3194, "chan":0, },
		{"command": "note", "pitch":51, "vel":42, "pos":19672, "length":3194, "chan":0, },
		{"command": "note", "pitch":51, "vel":58, "pos":23447, "length":3194, "chan":0, },
		{"command": "note", "pitch":62, "vel":76, "pos":23459, "length":3173, "chan":0, },
		{"command": "note", "pitch":56, "vel":61, "pos":23466, "length":3179, "chan":0, },
		{"command": "note", "pitch":41, "vel":59, "pos":23476, "length":3118, "chan":0, },
		{"command": "note", "pitch":48, "vel":64, "pos":23477, "length":3137, "chan":0, },
		{"command": "note", "pitch":60, "vel":69, "pos":23478, "length":3135, "chan":0, },
		{"command": "note", "pitch":44, "vel":49, "pos":23489, "length":3146, "chan":0, },
		{"command": "note", "pitch":53, "vel":40, "pos":23514, "length":3094, "chan":0, },
		{"command": "note", "pitch":51, "vel":58, "pos":27284, "length":3194, "chan":0, },
		{"command": "note", "pitch":63, "vel":76, "pos":27296, "length":3173, "chan":0, },
		{"command": "note", "pitch":56, "vel":61, "pos":27303, "length":3179, "chan":0, },
		{"command": "note", "pitch":41, "vel":59, "pos":27313, "length":3118, "chan":0, },
		{"command": "note", "pitch":48, "vel":64, "pos":27314, "length":3137, "chan":0, },
		{"command": "note", "pitch":60, "vel":69, "pos":27315, "length":3135, "chan":0, },
		{"command": "note", "pitch":44, "vel":49, "pos":27326, "length":3146, "chan":0, },
		{"command": "note", "pitch":53, "vel":40, "pos":27351, "length":3094, "chan":0, },
		{"command": "note", "pitch":51, "vel":58, "pos":31165, "length":3194, "chan":0, },
		{"command": "note", "pitch":65, "vel":76, "pos":31177, "length":3173, "chan":0, },
		{"command": "note", "pitch":56, "vel":61, "pos":31184, "length":3179, "chan":0, },
		{"command": "note", "pitch":41, "vel":59, "pos":31194, "length":3118, "chan":0, },
		{"command": "note", "pitch":48, "vel":64, "pos":31195, "length":3137, "chan":0, },
		{"command": "note", "pitch":60, "vel":69, "pos":31196, "length":3135, "chan":0, },
		{"command": "note", "pitch":44, "vel":49, "pos":31207, "length":3146, "chan":0, },
		{"command": "note", "pitch":53, "vel":40, "pos":31232, "length":3094, "chan":0, },
		{"command": "note", "pitch":53, "vel":58, "pos":34983, "length":3194, "chan":0, },
		{"command": "note", "pitch":67, "vel":76, "pos":34995, "length":3173, "chan":0, },
		{"command": "note", "pitch":58, "vel":61, "pos":35002, "length":3179, "chan":0, },
		{"command": "note", "pitch":43, "vel":59, "pos":35012, "length":3118, "chan":0, },
		{"command": "note", "pitch":50, "vel":64, "pos":35013, "length":3137, "chan":0, },
		{"command": "note", "pitch":62, "vel":69, "pos":35014, "length":3135, "chan":0, },
		{"command": "note", "pitch":46, "vel":49, "pos":35025, "length":3146, "chan":0, },
		{"command": "note", "pitch":55, "vel":40, "pos":35050, "length":3094, "chan":0, },
		{"command": "keyswitch", "ks_type": "legato", "pos":38864, "index":3},
		{"command": "note", "pitch":62, "vel":61, "pos":38869, "length":6589, "chan":0, },
		{"command": "note", "pitch":67, "vel":61, "pos":38869, "length":6577, "chan":0, },
		{"command": "note", "pitch":55, "vel":44, "pos":38879, "length":6558, "chan":0, },
		{"command": "note", "pitch":58, "vel":52, "pos":38880, "length":6547, "chan":0, },
		{"command": "note", "pitch":51, "vel":52, "pos":38894, "length":6526, "chan":0, },
		{"command": "note", "pitch":70, "vel":59, "pos":38898, "length":6534, "chan":0, },
		{"command": "note", "pitch":63, "vel":42, "pos":38917, "length":6534, "chan":0, },
		{"command": "keyswitch", "ks_type": "legato", "pos":44670, "index":3},
		{"command": "pedal", "value":0, "pos":0, "chan":0, },
		{"command": "pedal", "value":127, "pos":3322, "chan":0, },
		{"command": "pedal", "value":0, "pos":4537, "chan":0, },
		{"command": "pedal", "value":127, "pos":7124, "chan":0, },
		{"command": "pedal", "value":0, "pos":8165, "chan":0, },
		{"command": "pedal", "value":127, "pos":10506, "chan":0, },
		{"command": "pedal", "value":0, "pos":12169, "chan":0, },
		{"command": "pedal", "value":127, "pos":14112, "chan":0, },
		{"command": "pedal", "value":0, "pos":15957, "chan":0, },
		{"command": "pedal", "value":127, "pos":18240, "chan":0, },
		{"command": "pedal", "value":0, "pos":19867, "chan":0, },
		{"command": "pedal", "value":127, "pos":22080, "chan":0, },
		{"command": "pedal", "value":0, "pos":23645, "chan":0, },
		{"command": "pedal", "value":127, "pos":26400, "chan":0, },
		{"command": "pedal", "value":0, "pos":27459, "chan":0, },
		{"command": "pedal", "value":127, "pos":30240, "chan":0, },
		{"command": "pedal", "value":0, "pos":31318, "chan":0, },
		{"command": "pedal", "value":127, "pos":34080, "chan":0, },
		{"command": "pedal", "value":0, "pos":35340, "chan":0, },
		{"command": "pedal", "value":127, "pos":37920, "chan":0, },
		{"command": "pedal", "value":0, "pos":39172, "chan":0, },
	],
	[
		{"command": "keyswitch", "ks_type": "speed", "pos":0, "index":1},
		{"command": "keyswitch", "ks_type": "direction", "pos":0, "index":0},
		{"command": "keyswitch", "ks_type": "direction", "pos":0, "index":2},
		{"command": "keyswitch", "ks_type": "direction", "pos":0, "index":2},
		{"command": "keyswitch", "ks_type": "articulation", "pos":0, "index":2},
		{"command": "note", "pitch":36, "vel":20, "pos":1888, "length":2566, "chan":0, },
		{"command": "note", "pitch":39, "vel":32, "pos":1889, "length":2565, "chan":0, },
		{"command": "note", "pitch":43, "vel":25, "pos":1901, "length":2567, "chan":0, },
		{"command": "note", "pitch":48, "vel":19, "pos":1920, "length":2553, "chan":0, },
		{"command": "note", "pitch":36, "vel":45, "pos":5739, "length":1640, "chan":0, },
		{"command": "note", "pitch":45, "vel":49, "pos":5740, "length":1643, "chan":0, },
		{"command": "note", "pitch":41, "vel":52, "pos":5759, "length":1632, "chan":0, },
		{"command": "note", "pitch":48, "vel":56, "pos":5760, "length":1624, "chan":0, },
		{"command": "note", "pitch":39, "vel":17, "pos":9579, "length":2550, "chan":0, },
		{"command": "note", "pitch":36, "vel":47, "pos":9591, "length":2534, "chan":0, },
		{"command": "note", "pitch":43, "vel":42, "pos":9600, "length":2513, "chan":0, },
		{"command": "note", "pitch":48, "vel":41, "pos":9600, "length":2533, "chan":0, },
		{"command": "note", "pitch":51, "vel":41, "pos":9600, "length":2533, "chan":0, },
		{"command": "note", "pitch":55, "vel":41, "pos":9600, "length":2533, "chan":0, },
		{"command": "note", "pitch":36, "vel":45, "pos":13419, "length":1640, "chan":0, },
		{"command": "note", "pitch":45, "vel":49, "pos":13420, "length":1643, "chan":0, },
		{"command": "note", "pitch":41, "vel":52, "pos":13439, "length":1632, "chan":0, },
		{"command": "note", "pitch":48, "vel":56, "pos":13440, "length":1624, "chan":0, },
		{"command": "note", "pitch":53, "vel":56, "pos":13440, "length":1624, "chan":0, },
		{"command": "note", "pitch":57, "vel":56, "pos":13440, "length":1624, "chan":0, },
		{"command": "note", "pitch":36, "vel":87, "pos":17271, "length":2534, "chan":0, },
		{"command": "note", "pitch":43, "vel":82, "pos":17280, "length":2513, "chan":0, },
		{"command": "note", "pitch":48, "vel":81, "pos":17280, "length":2533, "chan":0, },
		{"command": "note", "pitch":55, "vel":81, "pos":17280, "length":2533, "chan":0, },
		{"command": "note", "pitch":60, "vel":81, "pos":17280, "length":2533, "chan":0, },
		{"command": "note", "pitch":39, "vel":57, "pos":17351, "length":2458, "chan":0, },
		{"command": "note", "pitch":51, "vel":81, "pos":17372, "length":2441, "chan":0, },
		{"command": "note", "pitch":36, "vel":85, "pos":21099, "length":1640, "chan":0, },
		{"command": "note", "pitch":41, "vel":92, "pos":21119, "length":1632, "chan":0, },
		{"command": "note", "pitch":48, "vel":96, "pos":21120, "length":1624, "chan":0, },
		{"command": "note", "pitch":53, "vel":96, "pos":21120, "length":1624, "chan":0, },
		{"command": "note", "pitch":62, "vel":96, "pos":21120, "length":1624, "chan":0, },
		{"command": "note", "pitch":45, "vel":89, "pos":21177, "length":1566, "chan":0, },
		{"command": "note", "pitch":57, "vel":96, "pos":21197, "length":1547, "chan":0, },
		{"command": "note", "pitch":43, "vel":82, "pos":24960, "length":2513, "chan":0, },
		{"command": "note", "pitch":48, "vel":81, "pos":24960, "length":2533, "chan":0, },
		{"command": "note", "pitch":55, "vel":81, "pos":24960, "length":2533, "chan":0, },
		{"command": "note", "pitch":60, "vel":81, "pos":24960, "length":2533, "chan":0, },
		{"command": "note", "pitch":67, "vel":81, "pos":24960, "length":2533, "chan":0, },
		{"command": "note", "pitch":39, "vel":57, "pos":25000, "length":2489, "chan":0, },
		{"command": "note", "pitch":51, "vel":81, "pos":25021, "length":2472, "chan":0, },
		{"command": "note", "pitch":63, "vel":81, "pos":25021, "length":2472, "chan":0, },
		{"command": "note", "pitch":36, "vel":127, "pos":28779, "length":1640, "chan":0, },
		{"command": "note", "pitch":45, "vel":127, "pos":28780, "length":1643, "chan":0, },
		{"command": "note", "pitch":41, "vel":127, "pos":28799, "length":1632, "chan":0, },
		{"command": "note", "pitch":48, "vel":127, "pos":28800, "length":1624, "chan":0, },
		{"command": "note", "pitch":53, "vel":127, "pos":28800, "length":1624, "chan":0, },
		{"command": "note", "pitch":57, "vel":127, "pos":28800, "length":1624, "chan":0, },
		{"command": "note", "pitch":62, "vel":127, "pos":28800, "length":1624, "chan":0, },
		{"command": "note", "pitch":65, "vel":127, "pos":28800, "length":1624, "chan":0, },
		{"command": "note", "pitch":69, "vel":127, "pos":28800, "length":1624, "chan":0, },
		{"command": "note", "pitch":70, "vel":127, "pos":32609, "length":2464, "chan":0, },
		{"command": "note", "pitch":63, "vel":127, "pos":32609, "length":2464, "chan":0, },
		{"command": "note", "pitch":39, "vel":117, "pos":32619, "length":2450, "chan":0, },
		{"command": "note", "pitch":51, "vel":127, "pos":32625, "length":2448, "chan":0, },
		{"command": "note", "pitch":43, "vel":127, "pos":32640, "length":2413, "chan":0, },
		{"command": "note", "pitch":46, "vel":127, "pos":32640, "length":2433, "chan":0, },
		{"command": "note", "pitch":55, "vel":127, "pos":32640, "length":2433, "chan":0, },
		{"command": "note", "pitch":58, "vel":127, "pos":32640, "length":2433, "chan":0, },
		{"command": "note", "pitch":67, "vel":127, "pos":32640, "length":2433, "chan":0, },
		{"command": "note", "pitch":36, "vel":127, "pos":36459, "length":1640, "chan":0, },
		{"command": "note", "pitch":45, "vel":127, "pos":36460, "length":1643, "chan":0, },
		{"command": "note", "pitch":41, "vel":127, "pos":36479, "length":1632, "chan":0, },
		{"command": "note", "pitch":48, "vel":127, "pos":36480, "length":1624, "chan":0, },
		{"command": "note", "pitch":53, "vel":127, "pos":36480, "length":1624, "chan":0, },
		{"command": "note", "pitch":57, "vel":127, "pos":36480, "length":1624, "chan":0, },
		{"command": "note", "pitch":62, "vel":127, "pos":36480, "length":1624, "chan":0, },
		{"command": "note", "pitch":65, "vel":127, "pos":36480, "length":1624, "chan":0, },
		{"command": "note", "pitch":69, "vel":127, "pos":36480, "length":1624, "chan":0, },
		{"command": "note", "pitch":67, "vel":81, "pos":40290, "length":2563, "chan":0, },
		{"command": "note", "pitch":43, "vel":82, "pos":40290, "length":2543, "chan":0, },
		{"command": "note", "pitch":39, "vel":57, "pos":40299, "length":2550, "chan":0, },
		{"command": "note", "pitch":48, "vel":81, "pos":40320, "length":2533, "chan":0, },
		{"command": "note", "pitch":51, "vel":81, "pos":40320, "length":2533, "chan":0, },
		{"command": "note", "pitch":55, "vel":81, "pos":40320, "length":2533, "chan":0, },
		{"command": "note", "pitch":60, "vel":81, "pos":40320, "length":2533, "chan":0, },
		{"command": "note", "pitch":63, "vel":81, "pos":40320, "length":2533, "chan":0, },
		{"command": "note", "pitch":36, "vel":85, "pos":44139, "length":1640, "chan":0, },
		{"command": "note", "pitch":45, "vel":89, "pos":44140, "length":1643, "chan":0, },
		{"command": "note", "pitch":41, "vel":92, "pos":44159, "length":1632, "chan":0, },
		{"command": "note", "pitch":48, "vel":96, "pos":44160, "length":1624, "chan":0, },
		{"command": "note", "pitch":53, "vel":96, "pos":44160, "length":1624, "chan":0, },
		{"command": "note", "pitch":57, "vel":96, "pos":44160, "length":1624, "chan":0, },
		{"command": "note", "pitch":62, "vel":96, "pos":44160, "length":1624, "chan":0, },
		{"command": "note", "pitch":65, "vel":96, "pos":44160, "length":1624, "chan":0, },
		{"command": "note", "pitch":39, "vel":37, "pos":47979, "length":2550, "chan":0, },
		{"command": "note", "pitch":36, "vel":67, "pos":47991, "length":2534, "chan":0, },
		{"command": "note", "pitch":43, "vel":62, "pos":48000, "length":2513, "chan":0, },
		{"command": "note", "pitch":48, "vel":61, "pos":48000, "length":2533, "chan":0, },
		{"command": "note", "pitch":51, "vel":61, "pos":48000, "length":2533, "chan":0, },
		{"command": "note", "pitch":55, "vel":61, "pos":48000, "length":2533, "chan":0, },
		{"command": "note", "pitch":60, "vel":61, "pos":48000, "length":2533, "chan":0, },
		{"command": "note", "pitch":36, "vel":45, "pos":51819, "length":1640, "chan":0, },
		{"command": "note", "pitch":45, "vel":49, "pos":51820, "length":1643, "chan":0, },
		{"command": "note", "pitch":41, "vel":52, "pos":51839, "length":1632, "chan":0, },
		{"command": "note", "pitch":48, "vel":56, "pos":51840, "length":1624, "chan":0, },
		{"command": "note", "pitch":53, "vel":56, "pos":51840, "length":1624, "chan":0, },
		{"command": "note", "pitch":57, "vel":56, "pos":51840, "length":1624, "chan":0, },
		{"command": "note", "pitch":39, "vel":17, "pos":55659, "length":2550, "chan":0, },
		{"command": "note", "pitch":36, "vel":47, "pos":55671, "length":2534, "chan":0, },
		{"command": "note", "pitch":43, "vel":42, "pos":55680, "length":2513, "chan":0, },
		{"command": "note", "pitch":48, "vel":41, "pos":55680, "length":2533, "chan":0, },
		{"command": "note", "pitch":51, "vel":41, "pos":55680, "length":2533, "chan":0, },
		{"command": "note", "pitch":55, "vel":41, "pos":55680, "length":2533, "chan":0, },
		{"command": "note", "pitch":36, "vel":45, "pos":59499, "length":1640, "chan":0, },
		{"command": "note", "pitch":45, "vel":49, "pos":59500, "length":1643, "chan":0, },
		{"command": "note", "pitch":41, "vel":52, "pos":59519, "length":1632, "chan":0, },
		{"command": "note", "pitch":48, "vel":56, "pos":59520, "length":1624, "chan":0, },
		{"command": "note", "pitch":53, "vel":56, "pos":59520, "length":1624, "chan":0, },
	],
	[
		{"command": "note", "pitch":45, "vel":96, "pos":1440, "length":960, "chan":0, },
		{"command": "note", "pitch":55, "vel":96, "pos":3840, "length":960, "chan":0, },
		{"command": "note", "pitch":64, "vel":96, "pos":7680, "length":1440, "chan":0, },
	],
	[
		{"command": "keyswitch", "ks_type": "direction", "pos":0, "index":0},
		{"command": "keyswitch", "ks_type": "direction", "pos":0, "index":2},
		{"command": "keyswitch", "ks_type": "direction", "pos":0, "index":2},
		{"command": "keyswitch", "ks_type": "legato", "pos":0, "index":1},
		{"command": "keyswitch", "ks_type": "speed", "pos":0, "index":1},
		{"command": "keyswitch", "ks_type": "speed", "pos":0, "index":1},
		{"command": "note", "pitch":36, "vel":46, "pos":925, "length":2772, "chan":0, },
		{"command": "note", "pitch":43, "vel":48, "pos":925, "length":2772, "chan":0, },
		{"command": "note", "pitch":39, "vel":40, "pos":960, "length":2737, "chan":0, },
		{"command": "note", "pitch":36, "vel":46, "pos":4765, "length":2772, "chan":0, },
		{"command": "note", "pitch":44, "vel":48, "pos":4765, "length":2772, "chan":0, },
		{"command": "note", "pitch":41, "vel":40, "pos":4800, "length":2737, "chan":0, },
		{"command": "note", "pitch":37, "vel":46, "pos":8605, "length":2772, "chan":0, },
		{"command": "note", "pitch":44, "vel":48, "pos":8605, "length":2772, "chan":0, },
		{"command": "note", "pitch":41, "vel":40, "pos":8640, "length":2737, "chan":0, },
		{"command": "note", "pitch":37, "vel":46, "pos":12348, "length":2772, "chan":0, },
		{"command": "note", "pitch":43, "vel":48, "pos":12348, "length":2772, "chan":0, },
		{"command": "note", "pitch":41, "vel":40, "pos":12383, "length":2737, "chan":0, },
		{"command": "note", "pitch":36, "vel":46, "pos":16285, "length":2772, "chan":0, },
		{"command": "note", "pitch":43, "vel":48, "pos":16285, "length":2772, "chan":0, },
		{"command": "note", "pitch":55, "vel":48, "pos":16285, "length":2772, "chan":0, },
		{"command": "note", "pitch":39, "vel":40, "pos":16320, "length":2737, "chan":0, },
		{"command": "note", "pitch":51, "vel":40, "pos":16320, "length":2737, "chan":0, },
		{"command": "note", "pitch":55, "vel":48, "pos":20125, "length":2772, "chan":0, },
		{"command": "note", "pitch":36, "vel":46, "pos":20125, "length":2772, "chan":0, },
		{"command": "note", "pitch":44, "vel":48, "pos":20125, "length":2772, "chan":0, },
		{"command": "note", "pitch":53, "vel":48, "pos":20125, "length":2772, "chan":0, },
		{"command": "note", "pitch":41, "vel":40, "pos":20160, "length":2737, "chan":0, },
		{"command": "note", "pitch":55, "vel":48, "pos":23947, "length":2790, "chan":0, },
		{"command": "note", "pitch":37, "vel":46, "pos":23965, "length":2772, "chan":0, },
		{"command": "note", "pitch":44, "vel":48, "pos":23965, "length":2772, "chan":0, },
		{"command": "note", "pitch":56, "vel":48, "pos":24000, "length":2737, "chan":0, },
		{"command": "note", "pitch":41, "vel":40, "pos":24000, "length":2737, "chan":0, },
		{"command": "note", "pitch":60, "vel":48, "pos":27787, "length":2790, "chan":0, },
		{"command": "note", "pitch":37, "vel":46, "pos":27805, "length":2772, "chan":0, },
		{"command": "note", "pitch":43, "vel":48, "pos":27805, "length":2772, "chan":0, },
		{"command": "note", "pitch":55, "vel":48, "pos":27840, "length":2737, "chan":0, },
		{"command": "note", "pitch":41, "vel":40, "pos":27840, "length":2737, "chan":0, },
		{"command": "note", "pitch":60, "vel":48, "pos":31627, "length":12989, "chan":0, },
		{"command": "note", "pitch":36, "vel":46, "pos":31645, "length":1866, "chan":0, },
		{"command": "note", "pitch":43, "vel":48, "pos":31645, "length":1866, "chan":0, },
		{"command": "note", "pitch":58, "vel":48, "pos":31680, "length":7680, "chan":0, },
		{"command": "note", "pitch":40, "vel":40, "pos":31680, "length":1831, "chan":0, },
		{"command": "note", "pitch":37, "vel":46, "pos":35520, "length":1866, "chan":0, },
		{"command": "note", "pitch":44, "vel":48, "pos":35520, "length":1866, "chan":0, },
		{"command": "note", "pitch":41, "vel":40, "pos":35555, "length":1831, "chan":0, },
		{"command": "note", "pitch":39, "vel":46, "pos":39325, "length":1866, "chan":0, },
		{"command": "note", "pitch":46, "vel":48, "pos":39325, "length":1866, "chan":0, },
		{"command": "note", "pitch":43, "vel":40, "pos":39360, "length":1831, "chan":0, },
		{"command": "note", "pitch":61, "vel":40, "pos":39360, "length":5256, "chan":0, },
		{"command": "note", "pitch":39, "vel":46, "pos":43165, "length":1866, "chan":0, },
		{"command": "note", "pitch":46, "vel":48, "pos":43165, "length":1866, "chan":0, },
		{"command": "note", "pitch":43, "vel":40, "pos":43200, "length":1831, "chan":0, },
	],
	[
		{"command": "keyswitch", "ks_type": "speed", "pos":0, "index":1},
		{"command": "keyswitch", "ks_type": "speed", "pos":0, "index":1},
		{"command": "keyswitch", "ks_type": "direction", "pos":0, "index":0},
		{"command": "keyswitch", "ks_type": "direction", "pos":0, "index":0},
		{"command": "keyswitch", "ks_type": "direction", "pos":0, "index":0},
		{"command": "keyswitch", "ks_type": "legato", "pos":0, "index":1},
		{"command": "note", "pitch":48, "vel":87, "pos":938, "length":115, "chan":0, },
		{"command": "note", "pitch":51, "vel":87, "pos":960, "length":6538, "chan":0, },
		{"command": "keyswitch", "ks_type": "articulation", "pos":2040, "index":2},
		{"command": "note", "pitch":67, "vel":127, "pos":2838, "length":515, "chan":0, },
		{"command": "note", "pitch":68, "vel":127, "pos":2880, "length":929, "chan":0, },
		{"command": "note", "pitch":67, "vel":127, "pos":6678, "length":515, "chan":0, },
		{"command": "note", "pitch":68, "vel":127, "pos":6720, "length":929, "chan":0, },
		{"command": "keyswitch", "ks_type": "articulation", "pos":8400, "index":2},
		{"command": "note", "pitch":47, "vel":87, "pos":8618, "length":115, "chan":0, },
		{"command": "note", "pitch":50, "vel":87, "pos":8640, "length":6664, "chan":0, },
		{"command": "keyswitch", "ks_type": "articulation", "pos":9600, "index":2},
		{"command": "note", "pitch":67, "vel":127, "pos":10549, "length":515, "chan":0, },
		{"command": "note", "pitch":68, "vel":127, "pos":10591, "length":929, "chan":0, },
		{"command": "note", "pitch":67, "vel":127, "pos":13429, "length":515, "chan":0, },
		{"command": "note", "pitch":71, "vel":127, "pos":13471, "length":929, "chan":0, },
		{"command": "keyswitch", "ks_type": "articulation", "pos":15600, "index":2},
		{"command": "note", "pitch":48, "vel":87, "pos":16298, "length":115, "chan":0, },
		{"command": "note", "pitch":51, "vel":87, "pos":16320, "length":6586, "chan":0, },
		{"command": "keyswitch", "ks_type": "articulation", "pos":17280, "index":2},
		{"command": "note", "pitch":67, "vel":127, "pos":18198, "length":515, "chan":0, },
		{"command": "note", "pitch":68, "vel":127, "pos":18240, "length":929, "chan":0, },
		{"command": "note", "pitch":67, "vel":127, "pos":22038, "length":515, "chan":0, },
		{"command": "note", "pitch":70, "vel":127, "pos":22080, "length":929, "chan":0, },
		{"command": "keyswitch", "ks_type": "articulation", "pos":23040, "index":2},
		{"command": "note", "pitch":46, "vel":87, "pos":23978, "length":115, "chan":0, },
		{"command": "note", "pitch":50, "vel":87, "pos":24000, "length":6621, "chan":0, },
		{"command": "keyswitch", "ks_type": "articulation", "pos":24720, "index":2},
		{"command": "note", "pitch":67, "vel":127, "pos":25909, "length":515, "chan":0, },
		{"command": "note", "pitch":68, "vel":127, "pos":25951, "length":929, "chan":0, },
		{"command": "note", "pitch":67, "vel":127, "pos":28765, "length":515, "chan":0, },
		{"command": "note", "pitch":72, "vel":127, "pos":28807, "length":929, "chan":0, },
		{"command": "keyswitch", "ks_type": "articulation", "pos":30960, "index":2},
		{"command": "note", "pitch":44, "vel":87, "pos":31643, "length":240, "chan":0, },
		{"command": "note", "pitch":48, "vel":87, "pos":31680, "length":6609, "chan":0, },
		{"command": "keyswitch", "ks_type": "articulation", "pos":31920, "index":2},
		{"command": "note", "pitch":67, "vel":127, "pos":32629, "length":515, "chan":0, },
		{"command": "note", "pitch":68, "vel":127, "pos":32671, "length":929, "chan":0, },
		{"command": "note", "pitch":67, "vel":127, "pos":36445, "length":515, "chan":0, },
		{"command": "note", "pitch":68, "vel":127, "pos":36487, "length":929, "chan":0, },
		{"command": "keyswitch", "ks_type": "articulation", "pos":38400, "index":2},
		{"command": "note", "pitch":46, "vel":87, "pos":39323, "length":240, "chan":0, },
		{"command": "note", "pitch":50, "vel":87, "pos":39360, "length":6651, "chan":0, },
		{"command": "keyswitch", "ks_type": "articulation", "pos":39840, "index":2},
		{"command": "note", "pitch":62, "vel":127, "pos":40309, "length":515, "chan":0, },
		{"command": "note", "pitch":63, "vel":127, "pos":40351, "length":929, "chan":0, },
		{"command": "note", "pitch":62, "vel":127, "pos":44125, "length":515, "chan":0, },
		{"command": "note", "pitch":63, "vel":127, "pos":44167, "length":929, "chan":0, },
	],
	[
		{"command": "keyswitch", "ks_type": "direction", "pos":0, "index":0},
		{"command": "keyswitch", "ks_type": "direction", "pos":0, "index":2},
		{"command": "keyswitch", "ks_type": "direction", "pos":0, "index":2},
		{"command": "keyswitch", "ks_type": "legato", "pos":0, "index":1},
		{"command": "keyswitch", "ks_type": "speed", "pos":0, "index":1},
		{"command": "keyswitch", "ks_type": "speed", "pos":0, "index":1},
		{"command": "note", "pitch":51, "vel":96, "pos":3795, "length":5805, "chan":0, },
		{"command": "keyswitch", "ks_type": "speed", "pos":3840, "index":1},
		{"command": "note", "pitch":55, "vel":96, "pos":3840, "length":5760, "chan":0, },
		{"command": "keyswitch", "ks_type": "speed", "pos":4800, "index":2},
		{"command": "keyswitch", "ks_type": "speed", "pos":5760, "index":1},
		{"command": "keyswitch", "ks_type": "speed", "pos":6720, "index":2},
		{"command": "keyswitch", "ks_type": "speed", "pos":7680, "index":1},
	],
	[
		{"command": "keyswitch", "ks_type": "direction", "pos":0, "index":0},
		{"command": "keyswitch", "ks_type": "direction", "pos":0, "index":2},
		{"command": "keyswitch", "ks_type": "direction", "pos":0, "index":2},
		{"command": "keyswitch", "ks_type": "legato", "pos":0, "index":1},
		{"command": "keyswitch", "ks_type": "speed", "pos":0, "index":1},
		{"command": "keyswitch", "ks_type": "speed", "pos":0, "index":1},
		{"command": "keyswitch", "ks_type": "speed", "pos":4907, "index":0},
		{"command": "note", "pitch":48, "vel":32, "pos":7658, "length":993, "chan":0, },
		{"command": "note", "pitch":52, "vel":42, "pos":8046, "length":674, "chan":0, },
		{"command": "note", "pitch":55, "vel":49, "pos":8359, "length":393, "chan":0, },
		{"command": "note", "pitch":59, "vel":36, "pos":8623, "length":249, "chan":0, },
		{"command": "note", "pitch":57, "vel":56, "pos":9139, "length":1921, "chan":0, },
		{"command": "note", "pitch":60, "vel":47, "pos":9520, "length":1490, "chan":0, },
		{"command": "note", "pitch":64, "vel":51, "pos":9895, "length":1175, "chan":0, },
		{"command": "note", "pitch":67, "vel":54, "pos":10427, "length":557, "chan":0, },
		{"command": "keyswitch", "ks_type": "speed", "pos":11550, "index":0},
		{"command": "keyswitch", "ks_type": "speed", "pos":13039, "index":0},
		{"command": "keyswitch", "ks_type": "speed", "pos":14997, "index":1},
		{"command": "keyswitch", "ks_type": "speed", "pos":16209, "index":1},
		{"command": "keyswitch", "ks_type": "speed", "pos":17057, "index":2},
		{"command": "keyswitch", "ks_type": "speed", "pos":19346, "index":2},
		{"command": "keyswitch", "ks_type": "speed", "pos":20523, "index":1},
		{"command": "keyswitch", "ks_type": "speed", "pos":21511, "index":1},
		{"command": "keyswitch", "ks_type": "speed", "pos":22780, "index":0},
		{"command": "pedal", "value":127, "pos":7024, "chan":0, },
		{"command": "pedal", "value":0, "pos":25413, "chan":0, },
	],
	[
		{"command": "keyswitch", "ks_type": "direction", "pos":0, "index":0},
		{"command": "keyswitch", "ks_type": "direction", "pos":0, "index":0},
		{"command": "keyswitch", "ks_type": "direction", "pos":0, "index":0},
		{"command": "keyswitch", "ks_type": "legato", "pos":0, "index":1},
		{"command": "keyswitch", "ks_type": "legato", "pos":0, "index":1},
		{"command": "keyswitch", "ks_type": "legato", "pos":0, "index":1},
		{"command": "note", "pitch":64, "vel":51, "pos":3814, "length":593, "chan":0, },
		{"command": "note", "pitch":67, "vel":51, "pos":3840, "length":1527, "chan":0, },
		{"command": "note", "pitch":71, "vel":1, "pos":4800, "length":593, "chan":0, },
		{"command": "note", "pitch":71, "vel":1, "pos":5734, "length":1783, "chan":0, },
		{"command": "note", "pitch":72, "vel":1, "pos":5760, "length":1731, "chan":0, },
		{"command": "note", "pitch":64, "vel":51, "pos":7654, "length":593, "chan":0, },
		{"command": "note", "pitch":67, "vel":51, "pos":7680, "length":1527, "chan":0, },
		{"command": "note", "pitch":71, "vel":1, "pos":8640, "length":593, "chan":0, },
		{"command": "note", "pitch":71, "vel":1, "pos":9574, "length":784, "chan":0, },
		{"command": "note", "pitch":72, "vel":1, "pos":9600, "length":732, "chan":0, },
		{"command": "note", "pitch":63, "vel":51, "pos":11494, "length":593, "chan":0, },
		{"command": "note", "pitch":67, "vel":51, "pos":11520, "length":1527, "chan":0, },
		{"command": "note", "pitch":70, "vel":1, "pos":12480, "length":593, "chan":0, },
		{"command": "note", "pitch":70, "vel":1, "pos":13414, "length":1783, "chan":0, },
		{"command": "note", "pitch":72, "vel":1, "pos":13440, "length":1731, "chan":0, },
		{"command": "note", "pitch":63, "vel":51, "pos":15334, "length":593, "chan":0, },
		{"command": "note", "pitch":67, "vel":51, "pos":15360, "length":1527, "chan":0, },
		{"command": "note", "pitch":70, "vel":1, "pos":16320, "length":593, "chan":0, },
		{"command": "note", "pitch":70, "vel":1, "pos":17254, "length":497, "chan":0, },
		{"command": "note", "pitch":72, "vel":1, "pos":17280, "length":445, "chan":0, },
		{"command": "note", "pitch":52, "vel":51, "pos":19174, "length":593, "chan":0, },
		{"command": "note", "pitch":55, "vel":51, "pos":19200, "length":1527, "chan":0, },
		{"command": "note", "pitch":59, "vel":21, "pos":20160, "length":593, "chan":0, },
		{"command": "note", "pitch":59, "vel":21, "pos":21094, "length":1738, "chan":0, },
		{"command": "note", "pitch":60, "vel":21, "pos":21120, "length":1686, "chan":0, },
		{"command": "note", "pitch":52, "vel":51, "pos":23014, "length":593, "chan":0, },
		{"command": "note", "pitch":55, "vel":51, "pos":23040, "length":1527, "chan":0, },
		{"command": "note", "pitch":59, "vel":21, "pos":24000, "length":593, "chan":0, },
		{"command": "note", "pitch":59, "vel":21, "pos":24934, "length":835, "chan":0, },
		{"command": "note", "pitch":60, "vel":21, "pos":24960, "length":783, "chan":0, },
		{"command": "note", "pitch":51, "vel":51, "pos":26854, "length":593, "chan":0, },
		{"command": "note", "pitch":55, "vel":51, "pos":26880, "length":1527, "chan":0, },
		{"command": "note", "pitch":58, "vel":21, "pos":27840, "length":593, "chan":0, },
		{"command": "note", "pitch":58, "vel":21, "pos":28774, "length":1670, "chan":0, },
		{"command": "note", "pitch":60, "vel":21, "pos":28800, "length":1618, "chan":0, },
		{"command": "note", "pitch":51, "vel":51, "pos":30694, "length":593, "chan":0, },
		{"command": "note", "pitch":55, "vel":51, "pos":30720, "length":1527, "chan":0, },
		{"command": "note", "pitch":58, "vel":21, "pos":31680, "length":593, "chan":0, },
		{"command": "note", "pitch":58, "vel":21, "pos":32614, "length":852, "chan":0, },
		{"command": "note", "pitch":60, "vel":21, "pos":32640, "length":800, "chan":0, },
	],
	[
		{"command": "keyswitch", "ks_type": "legato", "pos":0, "index":1},
		{"command": "keyswitch", "ks_type": "direction", "pos":0, "index":0},
		{"command": "keyswitch", "ks_type": "direction", "pos":0, "index":0},
		{"command": "keyswitch", "ks_type": "legato", "pos":0, "index":3},
		{"command": "keyswitch", "ks_type": "legato", "pos":0, "index":3},
		{"command": "keyswitch", "ks_type": "articulation", "pos":0, "index":1},
		{"command": "note", "pitch":66, "vel":1, "pos":3764, "length":3179, "chan":0, },
		{"command": "note", "pitch":67, "vel":1, "pos":3840, "length":3103, "chan":0, },
		{"command": "note", "pitch":64, "vel":1, "pos":7610, "length":3473, "chan":0, },
		{"command": "note", "pitch":66, "vel":1, "pos":7680, "length":3403, "chan":0, },
		{"command": "note", "pitch":62, "vel":1, "pos":11450, "length":3581, "chan":0, },
		{"command": "note", "pitch":66, "vel":1, "pos":11520, "length":3511, "chan":0, },
		{"command": "note", "pitch":67, "vel":1, "pos":12247, "length":5428, "chan":0, },
		{"command": "note", "pitch":60, "vel":1, "pos":15162, "length":3718, "chan":0, },
		{"command": "note", "pitch":64, "vel":1, "pos":15232, "length":3648, "chan":0, },
		{"command": "note", "pitch":66, "vel":1, "pos":19124, "length":3179, "chan":0, },
		{"command": "note", "pitch":67, "vel":1, "pos":19200, "length":3103, "chan":0, },
		{"command": "note", "pitch":64, "vel":1, "pos":22970, "length":3473, "chan":0, },
		{"command": "note", "pitch":66, "vel":1, "pos":23040, "length":3403, "chan":0, },
		{"command": "note", "pitch":62, "vel":1, "pos":26810, "length":3581, "chan":0, },
		{"command": "note", "pitch":66, "vel":1, "pos":26880, "length":3511, "chan":0, },
		{"command": "note", "pitch":67, "vel":1, "pos":27607, "length":6664, "chan":0, },
		{"command": "note", "pitch":60, "vel":11, "pos":30462, "length":3778, "chan":0, },
		{"command": "note", "pitch":64, "vel":11, "pos":30532, "length":3775, "chan":0, },
	],
	[
		{"command": "keyswitch", "ks_type": "direction", "pos":0, "index":0},
		{"command": "keyswitch", "ks_type": "direction", "pos":0, "index":0},
		{"command": "keyswitch", "ks_type": "direction", "pos":0, "index":0},
		{"command": "keyswitch", "ks_type": "direction", "pos":0, "index":0},
		{"command": "keyswitch", "ks_type": "speed", "pos":0, "index":1},
		{"command": "keyswitch", "ks_type": "speed", "pos":0, "index":1},
		{"command": "note", "pitch":53, "vel":47, "pos":3822, "length":871, "chan":0, },
		{"command": "note", "pitch":55, "vel":47, "pos":3840, "length":853, "chan":0, },
		{"command": "note", "pitch":55, "vel":67, "pos":5268, "length":865, "chan":0, },
		{"command": "note", "pitch":56, "vel":67, "pos":5280, "length":853, "chan":0, },
		{"command": "note", "pitch":56, "vel":77, "pos":6720, "length":905, "chan":0, },
		{"command": "note", "pitch":58, "vel":77, "pos":6720, "length":905, "chan":0, },
		{"command": "note", "pitch":53, "vel":51, "pos":8633, "length":3847, "chan":0, },
		{"command": "note", "pitch":55, "vel":51, "pos":8640, "length":3840, "chan":0, },
		{"command": "note", "pitch":55, "vel":47, "pos":12948, "length":865, "chan":0, },
		{"command": "note", "pitch":56, "vel":47, "pos":12960, "length":853, "chan":0, },
		{"command": "note", "pitch":56, "vel":27, "pos":14400, "length":905, "chan":0, },
		{"command": "note", "pitch":58, "vel":27, "pos":14400, "length":905, "chan":0, },
		{"command": "note", "pitch":53, "vel":51, "pos":16313, "length":2607, "chan":0, },
		{"command": "note", "pitch":55, "vel":51, "pos":16320, "length":2600, "chan":0, },
		{"command": "note", "pitch":60, "vel":117, "pos":19182, "length":871, "chan":0, },
		{"command": "note", "pitch":58, "vel":117, "pos":19200, "length":853, "chan":0, },
		{"command": "note", "pitch":58, "vel":77, "pos":20628, "length":865, "chan":0, },
		{"command": "note", "pitch":56, "vel":77, "pos":20640, "length":853, "chan":0, },
		{"command": "note", "pitch":56, "vel":47, "pos":22080, "length":905, "chan":0, },
		{"command": "note", "pitch":55, "vel":47, "pos":22080, "length":905, "chan":0, },
		{"command": "note", "pitch":53, "vel":51, "pos":23993, "length":2800, "chan":0, },
		{"command": "note", "pitch":55, "vel":51, "pos":24000, "length":2793, "chan":0, },
		{"command": "note", "pitch":60, "vel":77, "pos":26880, "length":871, "chan":0, },
		{"command": "note", "pitch":58, "vel":77, "pos":26898, "length":853, "chan":0, },
		{"command": "note", "pitch":58, "vel":57, "pos":28326, "length":865, "chan":0, },
		{"command": "note", "pitch":56, "vel":57, "pos":28338, "length":853, "chan":0, },
		{"command": "note", "pitch":56, "vel":57, "pos":29778, "length":905, "chan":0, },
		{"command": "note", "pitch":55, "vel":57, "pos":29778, "length":905, "chan":0, },
		{"command": "note", "pitch":53, "vel":97, "pos":31691, "length":2608, "chan":0, },
		{"command": "note", "pitch":55, "vel":97, "pos":31698, "length":2601, "chan":0, },
		{"command": "note", "pitch":53, "vel":47, "pos":36462, "length":871, "chan":0, },
		{"command": "note", "pitch":60, "vel":47, "pos":36462, "length":871, "chan":0, },
		{"command": "note", "pitch":55, "vel":47, "pos":36480, "length":853, "chan":0, },
		{"command": "note", "pitch":63, "vel":47, "pos":36480, "length":853, "chan":0, },
		{"command": "note", "pitch":55, "vel":67, "pos":37908, "length":865, "chan":0, },
		{"command": "note", "pitch":63, "vel":67, "pos":37908, "length":865, "chan":0, },
		{"command": "note", "pitch":56, "vel":67, "pos":37920, "length":853, "chan":0, },
		{"command": "note", "pitch":65, "vel":67, "pos":37920, "length":853, "chan":0, },
		{"command": "note", "pitch":56, "vel":77, "pos":39360, "length":905, "chan":0, },
		{"command": "note", "pitch":60, "vel":77, "pos":39360, "length":905, "chan":0, },
		{"command": "note", "pitch":58, "vel":77, "pos":39360, "length":905, "chan":0, },
		{"command": "note", "pitch":65, "vel":77, "pos":39360, "length":905, "chan":0, },
		{"command": "note", "pitch":53, "vel":61, "pos":41273, "length":3812, "chan":0, },
		{"command": "note", "pitch":55, "vel":61, "pos":41280, "length":3805, "chan":0, },
		{"command": "note", "pitch":60, "vel":47, "pos":45582, "length":871, "chan":0, },
		{"command": "note", "pitch":55, "vel":47, "pos":45588, "length":865, "chan":0, },
		{"command": "note", "pitch":63, "vel":47, "pos":45600, "length":853, "chan":0, },
		{"command": "note", "pitch":56, "vel":47, "pos":45600, "length":853, "chan":0, },
		{"command": "note", "pitch":63, "vel":67, "pos":47028, "length":865, "chan":0, },
		{"command": "note", "pitch":65, "vel":67, "pos":47040, "length":853, "chan":0, },
		{"command": "note", "pitch":56, "vel":27, "pos":47040, "length":905, "chan":0, },
		{"command": "note", "pitch":58, "vel":27, "pos":47040, "length":905, "chan":0, },
		{"command": "note", "pitch":53, "vel":51, "pos":48953, "length":2777, "chan":0, },
		{"command": "note", "pitch":55, "vel":51, "pos":48960, "length":2770, "chan":0, },
		{"command": "note", "pitch":60, "vel":117, "pos":51822, "length":871, "chan":0, },
		{"command": "note", "pitch":68, "vel":127, "pos":51840, "length":850, "chan":0, },
		{"command": "note", "pitch":65, "vel":127, "pos":51840, "length":850, "chan":0, },
		{"command": "note", "pitch":58, "vel":117, "pos":51840, "length":853, "chan":0, },
		{"command": "note", "pitch":58, "vel":77, "pos":53268, "length":865, "chan":0, },
		{"command": "note", "pitch":67, "vel":77, "pos":53268, "length":865, "chan":0, },
		{"command": "note", "pitch":56, "vel":77, "pos":53280, "length":853, "chan":0, },
		{"command": "note", "pitch":63, "vel":77, "pos":53280, "length":853, "chan":0, },
		{"command": "note", "pitch":56, "vel":47, "pos":54716, "length":909, "chan":0, },
		{"command": "note", "pitch":65, "vel":47, "pos":54716, "length":909, "chan":0, },
		{"command": "note", "pitch":55, "vel":47, "pos":54720, "length":905, "chan":0, },
		{"command": "note", "pitch":60, "vel":47, "pos":54720, "length":905, "chan":0, },
		{"command": "note", "pitch":53, "vel":51, "pos":56633, "length":2800, "chan":0, },
		{"command": "note", "pitch":55, "vel":51, "pos":56640, "length":2793, "chan":0, },
		{"command": "note", "pitch":60, "vel":77, "pos":59520, "length":871, "chan":0, },
		{"command": "note", "pitch":68, "vel":77, "pos":59520, "length":871, "chan":0, },
		{"command": "note", "pitch":58, "vel":77, "pos":59538, "length":853, "chan":0, },
		{"command": "note", "pitch":65, "vel":77, "pos":59538, "length":853, "chan":0, },
		{"command": "note", "pitch":58, "vel":57, "pos":60966, "length":865, "chan":0, },
		{"command": "note", "pitch":67, "vel":57, "pos":60966, "length":865, "chan":0, },
		{"command": "note", "pitch":56, "vel":57, "pos":60978, "length":853, "chan":0, },
		{"command": "note", "pitch":63, "vel":57, "pos":60978, "length":853, "chan":0, },
		{"command": "note", "pitch":56, "vel":57, "pos":62378, "length":927, "chan":0, },
		{"command": "note", "pitch":65, "vel":57, "pos":62378, "length":927, "chan":0, },
		{"command": "note", "pitch":55, "vel":57, "pos":62400, "length":905, "chan":0, },
		{"command": "note", "pitch":60, "vel":57, "pos":62400, "length":905, "chan":0, },
		{"command": "note", "pitch":53, "vel":97, "pos":64331, "length":2608, "chan":0, },
		{"command": "note", "pitch":55, "vel":97, "pos":64338, "length":2601, "chan":0, },
		{"command": "note", "pitch":53, "vel":47, "pos":69102, "length":871, "chan":0, },
		{"command": "note", "pitch":41, "vel":47, "pos":69102, "length":871, "chan":0, },
		{"command": "note", "pitch":60, "vel":47, "pos":69102, "length":871, "chan":0, },
		{"command": "note", "pitch":55, "vel":47, "pos":69120, "length":853, "chan":0, },
		{"command": "note", "pitch":43, "vel":47, "pos":69120, "length":853, "chan":0, },
		{"command": "note", "pitch":63, "vel":47, "pos":69120, "length":853, "chan":0, },
		{"command": "note", "pitch":55, "vel":67, "pos":70548, "length":865, "chan":0, },
		{"command": "note", "pitch":43, "vel":67, "pos":70548, "length":865, "chan":0, },
		{"command": "note", "pitch":63, "vel":67, "pos":70548, "length":865, "chan":0, },
		{"command": "note", "pitch":56, "vel":67, "pos":70560, "length":853, "chan":0, },
		{"command": "note", "pitch":44, "vel":67, "pos":70560, "length":853, "chan":0, },
		{"command": "note", "pitch":65, "vel":67, "pos":70560, "length":853, "chan":0, },
		{"command": "note", "pitch":56, "vel":77, "pos":72000, "length":905, "chan":0, },
		{"command": "note", "pitch":58, "vel":77, "pos":72000, "length":905, "chan":0, },
		{"command": "note", "pitch":44, "vel":77, "pos":72000, "length":905, "chan":0, },
		{"command": "note", "pitch":46, "vel":77, "pos":72000, "length":905, "chan":0, },
		{"command": "note", "pitch":65, "vel":77, "pos":72000, "length":905, "chan":0, },
		{"command": "note", "pitch":68, "vel":77, "pos":72000, "length":905, "chan":0, },
		{"command": "note", "pitch":53, "vel":51, "pos":73913, "length":3847, "chan":0, },
		{"command": "note", "pitch":41, "vel":51, "pos":73913, "length":3847, "chan":0, },
		{"command": "note", "pitch":60, "vel":51, "pos":73913, "length":3847, "chan":0, },
		{"command": "note", "pitch":55, "vel":51, "pos":73920, "length":3840, "chan":0, },
		{"command": "note", "pitch":43, "vel":51, "pos":73920, "length":3840, "chan":0, },
		{"command": "note", "pitch":63, "vel":51, "pos":73920, "length":3840, "chan":0, },
		{"command": "note", "pitch":55, "vel":47, "pos":78228, "length":865, "chan":0, },
		{"command": "note", "pitch":43, "vel":47, "pos":78228, "length":865, "chan":0, },
		{"command": "note", "pitch":63, "vel":47, "pos":78228, "length":865, "chan":0, },
		{"command": "note", "pitch":56, "vel":47, "pos":78240, "length":853, "chan":0, },
		{"command": "note", "pitch":44, "vel":47, "pos":78240, "length":853, "chan":0, },
		{"command": "note", "pitch":65, "vel":47, "pos":78240, "length":853, "chan":0, },
		{"command": "note", "pitch":56, "vel":27, "pos":79680, "length":905, "chan":0, },
		{"command": "note", "pitch":58, "vel":27, "pos":79680, "length":905, "chan":0, },
		{"command": "note", "pitch":44, "vel":27, "pos":79680, "length":905, "chan":0, },
		{"command": "note", "pitch":46, "vel":27, "pos":79680, "length":905, "chan":0, },
		{"command": "note", "pitch":65, "vel":27, "pos":79680, "length":905, "chan":0, },
		{"command": "note", "pitch":68, "vel":27, "pos":79680, "length":905, "chan":0, },
		{"command": "note", "pitch":53, "vel":51, "pos":81593, "length":2607, "chan":0, },
		{"command": "note", "pitch":41, "vel":51, "pos":81593, "length":2607, "chan":0, },
		{"command": "note", "pitch":60, "vel":51, "pos":81593, "length":2607, "chan":0, },
		{"command": "note", "pitch":55, "vel":51, "pos":81600, "length":2600, "chan":0, },
		{"command": "note", "pitch":43, "vel":51, "pos":81600, "length":2600, "chan":0, },
		{"command": "note", "pitch":63, "vel":51, "pos":81600, "length":2600, "chan":0, },
		{"command": "note", "pitch":60, "vel":117, "pos":84462, "length":871, "chan":0, },
		{"command": "note", "pitch":48, "vel":117, "pos":84462, "length":871, "chan":0, },
		{"command": "note", "pitch":68, "vel":117, "pos":84462, "length":871, "chan":0, },
		{"command": "note", "pitch":58, "vel":117, "pos":84480, "length":853, "chan":0, },
		{"command": "note", "pitch":46, "vel":117, "pos":84480, "length":853, "chan":0, },
		{"command": "note", "pitch":65, "vel":117, "pos":84480, "length":853, "chan":0, },
		{"command": "note", "pitch":58, "vel":77, "pos":85908, "length":865, "chan":0, },
		{"command": "note", "pitch":46, "vel":77, "pos":85908, "length":865, "chan":0, },
		{"command": "note", "pitch":65, "vel":77, "pos":85908, "length":865, "chan":0, },
		{"command": "note", "pitch":56, "vel":77, "pos":85920, "length":853, "chan":0, },
		{"command": "note", "pitch":44, "vel":77, "pos":85920, "length":853, "chan":0, },
		{"command": "note", "pitch":60, "vel":77, "pos":85920, "length":853, "chan":0, },
		{"command": "note", "pitch":56, "vel":47, "pos":87360, "length":905, "chan":0, },
		{"command": "note", "pitch":55, "vel":47, "pos":87360, "length":905, "chan":0, },
		{"command": "note", "pitch":44, "vel":47, "pos":87360, "length":905, "chan":0, },
		{"command": "note", "pitch":43, "vel":47, "pos":87360, "length":905, "chan":0, },
		{"command": "note", "pitch":65, "vel":47, "pos":87360, "length":905, "chan":0, },
		{"command": "note", "pitch":60, "vel":47, "pos":87360, "length":905, "chan":0, },
		{"command": "note", "pitch":53, "vel":51, "pos":89273, "length":2800, "chan":0, },
		{"command": "note", "pitch":41, "vel":51, "pos":89273, "length":2800, "chan":0, },
		{"command": "note", "pitch":60, "vel":51, "pos":89273, "length":2800, "chan":0, },
		{"command": "note", "pitch":55, "vel":51, "pos":89280, "length":2793, "chan":0, },
		{"command": "note", "pitch":43, "vel":51, "pos":89280, "length":2793, "chan":0, },
		{"command": "note", "pitch":63, "vel":51, "pos":89280, "length":2793, "chan":0, },
		{"command": "note", "pitch":60, "vel":77, "pos":92160, "length":871, "chan":0, },
		{"command": "note", "pitch":48, "vel":77, "pos":92160, "length":871, "chan":0, },
		{"command": "note", "pitch":68, "vel":77, "pos":92160, "length":871, "chan":0, },
		{"command": "note", "pitch":58, "vel":77, "pos":92178, "length":853, "chan":0, },
		{"command": "note", "pitch":46, "vel":77, "pos":92178, "length":853, "chan":0, },
		{"command": "note", "pitch":65, "vel":77, "pos":92178, "length":853, "chan":0, },
		{"command": "note", "pitch":58, "vel":57, "pos":93606, "length":865, "chan":0, },
		{"command": "note", "pitch":46, "vel":57, "pos":93606, "length":865, "chan":0, },
		{"command": "note", "pitch":65, "vel":57, "pos":93606, "length":865, "chan":0, },
		{"command": "note", "pitch":56, "vel":57, "pos":93618, "length":853, "chan":0, },
		{"command": "note", "pitch":44, "vel":57, "pos":93618, "length":853, "chan":0, },
		{"command": "note", "pitch":60, "vel":57, "pos":93618, "length":853, "chan":0, },
		{"command": "note", "pitch":56, "vel":57, "pos":95058, "length":905, "chan":0, },
		{"command": "note", "pitch":55, "vel":57, "pos":95058, "length":905, "chan":0, },
		{"command": "note", "pitch":44, "vel":57, "pos":95058, "length":905, "chan":0, },
		{"command": "note", "pitch":43, "vel":57, "pos":95058, "length":905, "chan":0, },
		{"command": "note", "pitch":65, "vel":57, "pos":95058, "length":905, "chan":0, },
		{"command": "note", "pitch":60, "vel":57, "pos":95058, "length":905, "chan":0, },
		{"command": "note", "pitch":53, "vel":97, "pos":96971, "length":2608, "chan":0, },
		{"command": "note", "pitch":41, "vel":97, "pos":96971, "length":2608, "chan":0, },
		{"command": "note", "pitch":60, "vel":97, "pos":96971, "length":2608, "chan":0, },
		{"command": "note", "pitch":55, "vel":97, "pos":96978, "length":2601, "chan":0, },
		{"command": "note", "pitch":43, "vel":97, "pos":96978, "length":2601, "chan":0, },
		{"command": "note", "pitch":63, "vel":97, "pos":96978, "length":2601, "chan":0, },
	],
	[
		{"command": "note", "pitch":45, "vel":96, "pos":1440, "length":960, "chan":0, },
		{"command": "note", "pitch":55, "vel":96, "pos":3840, "length":960, "chan":0, },
		{"command": "note", "pitch":64, "vel":96, "pos":7680, "length":1440, "chan":0, },
	],
]
clip_lengths = [34560, 30719, 15364, 15359, 86400, 46080, 15359, 15360, 34560, 30960, 19200, 15359, 30719, 46079, 53760, 30719, 21120, 30719, 15360, 15360, 15360, 30719, 46079, 94079, 36480, 11520, 21120, 15359, 69119, 35123, 15359, 15359, 23279, 17251, 38399, 15359, 15359, 15359, 38399, 77520, 15359, 26879, 19919, 37440, 15359, 24960, 78720, 34559, 30719, 15359, 15359, 15359, 15359, 15359, 15359, 15359, 56130, 28236, 15359, 15359, 15359, 15359, 15359, 15359, 44253, 32640, 44253, 44253, 59262, 82560, 82560, 82559, 80639, 19200, 48959, 15359, 15359, 15359, 15359, 15359, 47999, 38400, 41279, 42240, 44400, 44400, 83920, 65759, 32640, 46080, 34560, 34641, 82560, 54239, 65280, 15359, 59760, 54479, 15360, 32516, 53760, 40960, 121440, 15359, ]
lowest_pitches = [36, 46, 48, 46, 36, 37, 53, 53, 60, 60, 47, 43, 36, 41, 51, 49, 48, 56, 45, 45, 45, 44, 36, 38, 41, 53, 54, 45, 36, 51, 45, 45, 48, 52, 57, 45, 45, 45, 58, 49, 60, 37, 53, 48, 60, 36, 56, 48, 60, 45, 45, 45, 45, 45, 45, 45, 53, 53, 45, 45, 45, 45, 45, 45, 60, 68, 54, 55, 55, 36, 52, 45, 36, 48, 65, 45, 45, 45, 45, 45, 37, 54, 38, 44, 42, 47, 41, 46, 37, 36, 36, 36, 36, 36, 36, 45, 36, 44, 51, 48, 51, 60, 41, 45, ]
highest_pitches = [63, 53, 62, 58, 72, 55, 63, 63, 70, 72, 61, 63, 68, 70, 70, 63, 62, 67, 64, 64, 64, 70, 72, 67, 63, 58, 59, 64, 72, 70, 64, 64, 62, 62, 72, 64, 64, 64, 70, 67, 63, 42, 60, 63, 70, 64, 71, 65, 63, 64, 64, 64, 64, 64, 64, 64, 59, 65, 64, 64, 64, 64, 64, 64, 62, 72, 61, 67, 65, 56, 72, 62, 63, 62, 72, 64, 64, 64, 64, 64, 69, 68, 72, 72, 59, 59, 65, 56, 68, 48, 57, 51, 55, 70, 70, 64, 61, 72, 55, 67, 72, 67, 68, 64, ]
